G04 EAGLE Gerber RS-274X export*
G75*
%MOMM*%
%FSLAX34Y34*%
%LPD*%
%INBottom Copper*%
%IPPOS*%
%AMOC8*
5,1,8,0,0,1.08239X$1,22.5*%
G01*
%ADD10C,1.879600*%
%ADD11P,1.429621X8X292.500000*%
%ADD12C,1.320800*%
%ADD13P,1.429621X8X202.500000*%
%ADD14P,1.429621X8X22.500000*%
%ADD15P,1.429621X8X112.500000*%
%ADD16C,1.320800*%
%ADD17C,1.508000*%
%ADD18C,1.875000*%
%ADD19C,2.250000*%
%ADD20C,1.408000*%
%ADD21C,0.756400*%
%ADD22C,0.152400*%

G36*
X58898Y10162D02*
X58898Y10162D01*
X58911Y10161D01*
X59097Y10182D01*
X59285Y10201D01*
X59298Y10205D01*
X59311Y10206D01*
X59490Y10264D01*
X59670Y10319D01*
X59682Y10325D01*
X59694Y10329D01*
X59859Y10421D01*
X60024Y10511D01*
X60034Y10519D01*
X60046Y10526D01*
X60189Y10648D01*
X60333Y10768D01*
X60342Y10779D01*
X60352Y10787D01*
X60468Y10936D01*
X60586Y11082D01*
X60592Y11094D01*
X60600Y11104D01*
X60685Y11273D01*
X60771Y11439D01*
X60775Y11452D01*
X60781Y11464D01*
X60830Y11646D01*
X60882Y11826D01*
X60884Y11840D01*
X60887Y11853D01*
X60900Y12041D01*
X60915Y12228D01*
X60914Y12241D01*
X60915Y12254D01*
X60890Y12442D01*
X60868Y12627D01*
X60864Y12640D01*
X60863Y12653D01*
X60761Y12969D01*
X59515Y15977D01*
X59515Y19583D01*
X60895Y22915D01*
X63445Y25465D01*
X66111Y26569D01*
X66777Y26845D01*
X70383Y26845D01*
X73715Y25465D01*
X76265Y22915D01*
X77645Y19583D01*
X77645Y15977D01*
X76399Y12969D01*
X76395Y12956D01*
X76389Y12945D01*
X76337Y12764D01*
X76282Y12584D01*
X76281Y12571D01*
X76278Y12558D01*
X76262Y12370D01*
X76244Y12183D01*
X76246Y12170D01*
X76245Y12156D01*
X76267Y11969D01*
X76286Y11783D01*
X76290Y11770D01*
X76292Y11757D01*
X76350Y11577D01*
X76406Y11398D01*
X76412Y11387D01*
X76416Y11374D01*
X76509Y11209D01*
X76599Y11045D01*
X76608Y11035D01*
X76614Y11023D01*
X76737Y10881D01*
X76858Y10737D01*
X76869Y10729D01*
X76877Y10718D01*
X77026Y10603D01*
X77173Y10486D01*
X77185Y10480D01*
X77196Y10472D01*
X77364Y10388D01*
X77531Y10302D01*
X77544Y10298D01*
X77556Y10292D01*
X77739Y10243D01*
X77919Y10192D01*
X77932Y10191D01*
X77945Y10188D01*
X78276Y10161D01*
X84284Y10161D01*
X84298Y10162D01*
X84311Y10161D01*
X84497Y10182D01*
X84685Y10201D01*
X84698Y10205D01*
X84711Y10206D01*
X84890Y10264D01*
X85070Y10319D01*
X85082Y10325D01*
X85094Y10329D01*
X85259Y10421D01*
X85424Y10511D01*
X85434Y10519D01*
X85446Y10526D01*
X85589Y10648D01*
X85733Y10768D01*
X85742Y10779D01*
X85752Y10787D01*
X85868Y10936D01*
X85986Y11082D01*
X85992Y11094D01*
X86000Y11104D01*
X86085Y11273D01*
X86171Y11439D01*
X86175Y11452D01*
X86181Y11464D01*
X86230Y11646D01*
X86282Y11826D01*
X86284Y11840D01*
X86287Y11853D01*
X86300Y12041D01*
X86315Y12228D01*
X86314Y12241D01*
X86315Y12254D01*
X86290Y12442D01*
X86268Y12627D01*
X86264Y12640D01*
X86263Y12653D01*
X86161Y12969D01*
X84915Y15977D01*
X84915Y19583D01*
X86295Y22915D01*
X88845Y25465D01*
X91511Y26569D01*
X92177Y26845D01*
X95783Y26845D01*
X99115Y25465D01*
X101665Y22915D01*
X103045Y19583D01*
X103045Y15977D01*
X101799Y12969D01*
X101795Y12956D01*
X101789Y12945D01*
X101737Y12764D01*
X101682Y12584D01*
X101681Y12571D01*
X101678Y12558D01*
X101662Y12370D01*
X101644Y12183D01*
X101646Y12170D01*
X101645Y12156D01*
X101667Y11969D01*
X101686Y11783D01*
X101690Y11770D01*
X101692Y11757D01*
X101750Y11577D01*
X101806Y11398D01*
X101812Y11387D01*
X101816Y11374D01*
X101909Y11209D01*
X101999Y11045D01*
X102008Y11035D01*
X102014Y11023D01*
X102137Y10881D01*
X102258Y10737D01*
X102269Y10729D01*
X102277Y10718D01*
X102426Y10603D01*
X102573Y10486D01*
X102585Y10480D01*
X102596Y10472D01*
X102764Y10388D01*
X102931Y10302D01*
X102944Y10298D01*
X102956Y10292D01*
X103139Y10243D01*
X103319Y10192D01*
X103332Y10191D01*
X103345Y10188D01*
X103676Y10161D01*
X877808Y10161D01*
X877826Y10163D01*
X877844Y10161D01*
X878026Y10182D01*
X878209Y10201D01*
X878226Y10206D01*
X878243Y10208D01*
X878418Y10265D01*
X878594Y10319D01*
X878609Y10327D01*
X878626Y10333D01*
X878786Y10423D01*
X878948Y10511D01*
X878961Y10522D01*
X878977Y10531D01*
X879116Y10651D01*
X879257Y10768D01*
X879268Y10782D01*
X879282Y10794D01*
X879394Y10939D01*
X879509Y11082D01*
X879517Y11098D01*
X879528Y11112D01*
X879610Y11277D01*
X879695Y11439D01*
X879700Y11456D01*
X879708Y11472D01*
X879755Y11651D01*
X879806Y11826D01*
X879808Y11844D01*
X879812Y11861D01*
X879839Y12192D01*
X879839Y877808D01*
X879837Y877826D01*
X879839Y877844D01*
X879818Y878026D01*
X879799Y878209D01*
X879794Y878226D01*
X879792Y878243D01*
X879735Y878418D01*
X879681Y878594D01*
X879673Y878609D01*
X879667Y878626D01*
X879577Y878786D01*
X879489Y878948D01*
X879478Y878961D01*
X879469Y878977D01*
X879349Y879116D01*
X879232Y879257D01*
X879218Y879268D01*
X879206Y879282D01*
X879061Y879394D01*
X878918Y879509D01*
X878902Y879517D01*
X878888Y879528D01*
X878723Y879610D01*
X878561Y879695D01*
X878544Y879700D01*
X878528Y879708D01*
X878349Y879755D01*
X878174Y879806D01*
X878156Y879808D01*
X878139Y879812D01*
X877808Y879839D01*
X114602Y879839D01*
X114593Y879838D01*
X114584Y879839D01*
X114393Y879819D01*
X114201Y879799D01*
X114192Y879797D01*
X114184Y879796D01*
X114000Y879738D01*
X113816Y879681D01*
X113808Y879677D01*
X113800Y879674D01*
X113631Y879581D01*
X113462Y879489D01*
X113455Y879484D01*
X113447Y879479D01*
X113300Y879354D01*
X113153Y879232D01*
X113147Y879225D01*
X113140Y879219D01*
X113021Y879068D01*
X112901Y878918D01*
X112896Y878910D01*
X112891Y878903D01*
X112803Y878730D01*
X112715Y878561D01*
X112713Y878552D01*
X112708Y878544D01*
X112657Y878358D01*
X112604Y878174D01*
X112603Y878165D01*
X112600Y878156D01*
X112586Y877964D01*
X112571Y877772D01*
X112572Y877764D01*
X112571Y877755D01*
X112595Y877563D01*
X112618Y877373D01*
X112620Y877364D01*
X112622Y877355D01*
X112683Y877173D01*
X112742Y876990D01*
X112747Y876982D01*
X112750Y876974D01*
X112846Y876806D01*
X112940Y876639D01*
X112946Y876632D01*
X112951Y876625D01*
X113165Y876372D01*
X113400Y876137D01*
X115063Y872123D01*
X115063Y867777D01*
X113400Y863763D01*
X110327Y860690D01*
X106553Y859127D01*
X106545Y859122D01*
X106536Y859120D01*
X106367Y859027D01*
X106198Y858936D01*
X106191Y858931D01*
X106183Y858926D01*
X106035Y858802D01*
X105887Y858680D01*
X105882Y858673D01*
X105875Y858667D01*
X105755Y858517D01*
X105634Y858367D01*
X105629Y858359D01*
X105624Y858352D01*
X105537Y858183D01*
X105446Y858011D01*
X105444Y858002D01*
X105440Y857994D01*
X105388Y857812D01*
X105333Y857624D01*
X105333Y857615D01*
X105330Y857607D01*
X105315Y857416D01*
X105299Y857223D01*
X105300Y857214D01*
X105299Y857206D01*
X105322Y857015D01*
X105344Y856823D01*
X105347Y856815D01*
X105348Y856806D01*
X105408Y856624D01*
X105467Y856440D01*
X105472Y856432D01*
X105474Y856424D01*
X105570Y856256D01*
X105663Y856088D01*
X105669Y856082D01*
X105674Y856074D01*
X105801Y855928D01*
X105925Y855783D01*
X105932Y855777D01*
X105938Y855770D01*
X106090Y855653D01*
X106242Y855534D01*
X106250Y855530D01*
X106257Y855525D01*
X106553Y855373D01*
X110327Y853810D01*
X113400Y850737D01*
X115063Y846723D01*
X115063Y842377D01*
X113400Y838363D01*
X110327Y835290D01*
X107841Y834260D01*
X107763Y834218D01*
X107680Y834185D01*
X107586Y834123D01*
X107486Y834070D01*
X107418Y834014D01*
X107343Y833965D01*
X107263Y833886D01*
X107176Y833814D01*
X107120Y833745D01*
X107057Y833682D01*
X106993Y833589D01*
X106922Y833501D01*
X106881Y833423D01*
X106831Y833349D01*
X106788Y833245D01*
X106735Y833145D01*
X106710Y833059D01*
X106676Y832977D01*
X106654Y832867D01*
X106622Y832758D01*
X106614Y832670D01*
X106597Y832583D01*
X106597Y832469D01*
X106587Y832357D01*
X106597Y832269D01*
X106597Y832180D01*
X106620Y832069D01*
X106633Y831957D01*
X106660Y831872D01*
X106677Y831785D01*
X106721Y831681D01*
X106756Y831574D01*
X106799Y831496D01*
X106833Y831414D01*
X106897Y831321D01*
X106952Y831222D01*
X107010Y831155D01*
X107060Y831081D01*
X107140Y831002D01*
X107214Y830916D01*
X107284Y830862D01*
X107347Y830799D01*
X107442Y830738D01*
X107531Y830668D01*
X107610Y830628D01*
X107685Y830580D01*
X107815Y830525D01*
X107891Y830487D01*
X107935Y830475D01*
X107991Y830452D01*
X108723Y830214D01*
X110397Y829361D01*
X111918Y828256D01*
X113246Y826928D01*
X114351Y825407D01*
X115204Y823733D01*
X115785Y821946D01*
X115825Y821689D01*
X104648Y821689D01*
X104630Y821687D01*
X104613Y821689D01*
X104430Y821668D01*
X104248Y821649D01*
X104231Y821644D01*
X104213Y821642D01*
X104135Y821617D01*
X103998Y821656D01*
X103980Y821658D01*
X103963Y821662D01*
X103632Y821689D01*
X92455Y821689D01*
X92495Y821946D01*
X93076Y823733D01*
X93929Y825407D01*
X95034Y826928D01*
X96362Y828256D01*
X97883Y829361D01*
X99557Y830214D01*
X100289Y830452D01*
X100371Y830488D01*
X100455Y830514D01*
X100554Y830568D01*
X100658Y830614D01*
X100731Y830665D01*
X100808Y830707D01*
X100895Y830780D01*
X100987Y830845D01*
X101049Y830909D01*
X101117Y830966D01*
X101187Y831055D01*
X101265Y831137D01*
X101312Y831212D01*
X101368Y831281D01*
X101419Y831382D01*
X101479Y831477D01*
X101511Y831560D01*
X101551Y831639D01*
X101582Y831748D01*
X101622Y831854D01*
X101637Y831941D01*
X101661Y832027D01*
X101670Y832139D01*
X101688Y832251D01*
X101685Y832340D01*
X101692Y832428D01*
X101679Y832540D01*
X101675Y832653D01*
X101654Y832740D01*
X101644Y832828D01*
X101608Y832935D01*
X101582Y833045D01*
X101545Y833126D01*
X101517Y833210D01*
X101461Y833308D01*
X101414Y833411D01*
X101362Y833483D01*
X101318Y833560D01*
X101244Y833645D01*
X101177Y833736D01*
X101111Y833796D01*
X101053Y833863D01*
X100964Y833932D01*
X100880Y834009D01*
X100804Y834055D01*
X100734Y834109D01*
X100608Y834173D01*
X100536Y834217D01*
X100493Y834233D01*
X100439Y834260D01*
X97953Y835290D01*
X94880Y838363D01*
X93217Y842377D01*
X93217Y846723D01*
X94880Y850737D01*
X97953Y853810D01*
X101596Y855319D01*
X101727Y855373D01*
X101735Y855378D01*
X101744Y855380D01*
X101912Y855472D01*
X102082Y855564D01*
X102089Y855569D01*
X102097Y855574D01*
X102243Y855697D01*
X102393Y855820D01*
X102398Y855827D01*
X102405Y855833D01*
X102525Y855983D01*
X102646Y856133D01*
X102651Y856141D01*
X102656Y856147D01*
X102744Y856319D01*
X102833Y856489D01*
X102836Y856498D01*
X102840Y856506D01*
X102892Y856690D01*
X102947Y856876D01*
X102947Y856884D01*
X102950Y856893D01*
X102965Y857084D01*
X102981Y857277D01*
X102980Y857286D01*
X102981Y857294D01*
X102958Y857485D01*
X102936Y857677D01*
X102933Y857685D01*
X102932Y857694D01*
X102872Y857877D01*
X102813Y858060D01*
X102809Y858068D01*
X102806Y858076D01*
X102710Y858244D01*
X102617Y858412D01*
X102611Y858418D01*
X102606Y858426D01*
X102480Y858571D01*
X102355Y858717D01*
X102348Y858723D01*
X102342Y858730D01*
X102190Y858847D01*
X102038Y858966D01*
X102030Y858970D01*
X102023Y858975D01*
X101727Y859127D01*
X97953Y860690D01*
X94880Y863763D01*
X93217Y867777D01*
X93217Y872123D01*
X94880Y876137D01*
X95115Y876372D01*
X95120Y876379D01*
X95127Y876384D01*
X95248Y876534D01*
X95370Y876683D01*
X95374Y876691D01*
X95379Y876698D01*
X95468Y876868D01*
X95558Y877039D01*
X95561Y877048D01*
X95565Y877055D01*
X95618Y877239D01*
X95673Y877425D01*
X95674Y877434D01*
X95676Y877442D01*
X95692Y877633D01*
X95710Y877826D01*
X95709Y877835D01*
X95709Y877844D01*
X95687Y878033D01*
X95666Y878226D01*
X95663Y878235D01*
X95662Y878243D01*
X95603Y878427D01*
X95545Y878610D01*
X95540Y878618D01*
X95538Y878626D01*
X95442Y878795D01*
X95350Y878962D01*
X95344Y878969D01*
X95340Y878977D01*
X95214Y879122D01*
X95089Y879269D01*
X95082Y879275D01*
X95076Y879282D01*
X94925Y879399D01*
X94773Y879519D01*
X94765Y879523D01*
X94758Y879528D01*
X94586Y879614D01*
X94414Y879701D01*
X94406Y879704D01*
X94398Y879708D01*
X94210Y879758D01*
X94027Y879809D01*
X94018Y879810D01*
X94009Y879812D01*
X93678Y879839D01*
X32841Y879839D01*
X32832Y879838D01*
X32823Y879839D01*
X32631Y879818D01*
X32440Y879799D01*
X32432Y879797D01*
X32423Y879796D01*
X32240Y879738D01*
X32055Y879681D01*
X32047Y879677D01*
X32039Y879674D01*
X31871Y879581D01*
X31701Y879489D01*
X31694Y879484D01*
X31687Y879479D01*
X31539Y879354D01*
X31392Y879232D01*
X31386Y879225D01*
X31380Y879219D01*
X31260Y879068D01*
X31140Y878918D01*
X31135Y878910D01*
X31130Y878903D01*
X31042Y878730D01*
X30954Y878561D01*
X30952Y878552D01*
X30948Y878544D01*
X30896Y878358D01*
X30843Y878174D01*
X30842Y878165D01*
X30840Y878156D01*
X30826Y877964D01*
X30810Y877772D01*
X30811Y877764D01*
X30810Y877755D01*
X30835Y877562D01*
X30857Y877373D01*
X30860Y877364D01*
X30861Y877355D01*
X30922Y877172D01*
X30982Y876990D01*
X30986Y876982D01*
X30989Y876974D01*
X31084Y876808D01*
X31180Y876639D01*
X31185Y876632D01*
X31190Y876625D01*
X31405Y876372D01*
X32420Y875356D01*
X34365Y870661D01*
X34365Y865579D01*
X32420Y860884D01*
X28826Y857290D01*
X24131Y855345D01*
X19049Y855345D01*
X14354Y857290D01*
X13628Y858015D01*
X13621Y858021D01*
X13616Y858028D01*
X13467Y858148D01*
X13317Y858271D01*
X13309Y858275D01*
X13302Y858280D01*
X13132Y858368D01*
X12961Y858459D01*
X12952Y858462D01*
X12945Y858466D01*
X12760Y858519D01*
X12575Y858574D01*
X12566Y858575D01*
X12558Y858577D01*
X12367Y858593D01*
X12174Y858610D01*
X12165Y858609D01*
X12156Y858610D01*
X11967Y858588D01*
X11774Y858567D01*
X11765Y858564D01*
X11757Y858563D01*
X11574Y858504D01*
X11390Y858445D01*
X11382Y858441D01*
X11374Y858438D01*
X11207Y858344D01*
X11038Y858251D01*
X11031Y858245D01*
X11023Y858240D01*
X10878Y858115D01*
X10731Y857990D01*
X10725Y857983D01*
X10718Y857977D01*
X10601Y857826D01*
X10481Y857674D01*
X10477Y857666D01*
X10472Y857659D01*
X10386Y857487D01*
X10299Y857315D01*
X10296Y857307D01*
X10292Y857299D01*
X10243Y857113D01*
X10191Y856927D01*
X10190Y856919D01*
X10188Y856910D01*
X10161Y856579D01*
X10161Y809661D01*
X10162Y809652D01*
X10161Y809643D01*
X10182Y809451D01*
X10201Y809260D01*
X10203Y809252D01*
X10204Y809243D01*
X10262Y809060D01*
X10319Y808875D01*
X10323Y808867D01*
X10326Y808859D01*
X10419Y808691D01*
X10511Y808521D01*
X10516Y808514D01*
X10521Y808507D01*
X10646Y808359D01*
X10768Y808212D01*
X10775Y808206D01*
X10781Y808200D01*
X10933Y808079D01*
X11082Y807960D01*
X11090Y807956D01*
X11097Y807950D01*
X11270Y807862D01*
X11439Y807774D01*
X11448Y807772D01*
X11456Y807768D01*
X11641Y807716D01*
X11826Y807663D01*
X11835Y807662D01*
X11844Y807660D01*
X12036Y807646D01*
X12228Y807630D01*
X12236Y807631D01*
X12245Y807630D01*
X12436Y807654D01*
X12627Y807677D01*
X12636Y807680D01*
X12645Y807681D01*
X12826Y807742D01*
X13010Y807802D01*
X13018Y807806D01*
X13026Y807809D01*
X13194Y807905D01*
X13361Y808000D01*
X13368Y808005D01*
X13375Y808010D01*
X13628Y808225D01*
X14354Y808950D01*
X19049Y810895D01*
X24131Y810895D01*
X28826Y808950D01*
X32420Y805356D01*
X34365Y800661D01*
X34365Y795579D01*
X32420Y790884D01*
X28826Y787290D01*
X25567Y785940D01*
X24131Y785345D01*
X19049Y785345D01*
X14354Y787290D01*
X13628Y788015D01*
X13621Y788021D01*
X13616Y788028D01*
X13467Y788148D01*
X13317Y788271D01*
X13309Y788275D01*
X13302Y788280D01*
X13132Y788368D01*
X12961Y788459D01*
X12952Y788462D01*
X12945Y788466D01*
X12760Y788519D01*
X12575Y788574D01*
X12566Y788575D01*
X12558Y788577D01*
X12367Y788593D01*
X12174Y788610D01*
X12165Y788609D01*
X12156Y788610D01*
X11967Y788588D01*
X11774Y788567D01*
X11765Y788564D01*
X11757Y788563D01*
X11574Y788504D01*
X11390Y788445D01*
X11382Y788441D01*
X11374Y788438D01*
X11207Y788344D01*
X11038Y788251D01*
X11031Y788245D01*
X11023Y788240D01*
X10878Y788115D01*
X10731Y787990D01*
X10725Y787983D01*
X10718Y787977D01*
X10601Y787826D01*
X10481Y787674D01*
X10477Y787666D01*
X10472Y787659D01*
X10386Y787487D01*
X10299Y787315D01*
X10296Y787307D01*
X10292Y787299D01*
X10243Y787113D01*
X10191Y786927D01*
X10190Y786919D01*
X10188Y786910D01*
X10161Y786579D01*
X10161Y529396D01*
X10162Y529382D01*
X10161Y529369D01*
X10182Y529181D01*
X10201Y528995D01*
X10205Y528982D01*
X10206Y528969D01*
X10264Y528788D01*
X10319Y528610D01*
X10325Y528598D01*
X10329Y528586D01*
X10421Y528421D01*
X10511Y528256D01*
X10519Y528246D01*
X10526Y528234D01*
X10649Y528090D01*
X10768Y527947D01*
X10779Y527938D01*
X10787Y527928D01*
X10936Y527812D01*
X11082Y527694D01*
X11094Y527688D01*
X11104Y527680D01*
X11273Y527595D01*
X11439Y527509D01*
X11452Y527505D01*
X11464Y527499D01*
X11646Y527450D01*
X11826Y527398D01*
X11840Y527396D01*
X11853Y527393D01*
X12041Y527380D01*
X12228Y527365D01*
X12241Y527366D01*
X12254Y527365D01*
X12442Y527390D01*
X12627Y527412D01*
X12640Y527416D01*
X12653Y527417D01*
X12969Y527519D01*
X15977Y528765D01*
X19583Y528765D01*
X22915Y527385D01*
X25465Y524835D01*
X26845Y521503D01*
X26845Y517897D01*
X25465Y514565D01*
X22915Y512015D01*
X22206Y511721D01*
X22205Y511721D01*
X19583Y510635D01*
X15977Y510635D01*
X12969Y511881D01*
X12956Y511885D01*
X12945Y511891D01*
X12764Y511943D01*
X12584Y511998D01*
X12571Y511999D01*
X12558Y512002D01*
X12370Y512018D01*
X12183Y512036D01*
X12170Y512034D01*
X12156Y512035D01*
X11969Y512013D01*
X11783Y511994D01*
X11770Y511990D01*
X11757Y511988D01*
X11577Y511930D01*
X11398Y511874D01*
X11387Y511868D01*
X11374Y511864D01*
X11209Y511771D01*
X11045Y511681D01*
X11035Y511672D01*
X11023Y511666D01*
X10881Y511543D01*
X10737Y511422D01*
X10729Y511411D01*
X10718Y511403D01*
X10603Y511254D01*
X10486Y511107D01*
X10480Y511095D01*
X10472Y511084D01*
X10388Y510916D01*
X10302Y510749D01*
X10298Y510736D01*
X10292Y510724D01*
X10243Y510541D01*
X10192Y510361D01*
X10191Y510348D01*
X10188Y510335D01*
X10161Y510004D01*
X10161Y504396D01*
X10162Y504382D01*
X10161Y504369D01*
X10182Y504181D01*
X10201Y503995D01*
X10205Y503982D01*
X10206Y503969D01*
X10264Y503790D01*
X10319Y503610D01*
X10325Y503598D01*
X10329Y503586D01*
X10421Y503421D01*
X10511Y503256D01*
X10519Y503246D01*
X10526Y503234D01*
X10648Y503091D01*
X10768Y502947D01*
X10779Y502938D01*
X10787Y502928D01*
X10936Y502812D01*
X11082Y502694D01*
X11094Y502688D01*
X11104Y502680D01*
X11273Y502595D01*
X11439Y502509D01*
X11452Y502505D01*
X11464Y502499D01*
X11646Y502450D01*
X11826Y502398D01*
X11840Y502396D01*
X11853Y502393D01*
X12041Y502380D01*
X12228Y502365D01*
X12241Y502366D01*
X12254Y502365D01*
X12442Y502390D01*
X12627Y502412D01*
X12640Y502416D01*
X12653Y502417D01*
X12969Y502519D01*
X15977Y503765D01*
X19583Y503765D01*
X22915Y502385D01*
X25465Y499835D01*
X26845Y496503D01*
X26845Y492897D01*
X25465Y489565D01*
X22915Y487015D01*
X19583Y485635D01*
X15977Y485635D01*
X12969Y486881D01*
X12956Y486885D01*
X12945Y486891D01*
X12764Y486943D01*
X12584Y486998D01*
X12571Y486999D01*
X12558Y487002D01*
X12370Y487018D01*
X12183Y487036D01*
X12170Y487034D01*
X12156Y487035D01*
X11969Y487013D01*
X11783Y486994D01*
X11770Y486990D01*
X11757Y486988D01*
X11577Y486930D01*
X11398Y486874D01*
X11387Y486868D01*
X11374Y486864D01*
X11209Y486771D01*
X11045Y486681D01*
X11035Y486672D01*
X11023Y486666D01*
X10881Y486543D01*
X10737Y486422D01*
X10729Y486411D01*
X10718Y486403D01*
X10603Y486254D01*
X10486Y486107D01*
X10480Y486095D01*
X10472Y486084D01*
X10388Y485916D01*
X10302Y485749D01*
X10298Y485736D01*
X10292Y485724D01*
X10243Y485541D01*
X10192Y485361D01*
X10191Y485348D01*
X10188Y485335D01*
X10161Y485004D01*
X10161Y479396D01*
X10162Y479382D01*
X10161Y479369D01*
X10182Y479183D01*
X10201Y478995D01*
X10205Y478982D01*
X10206Y478969D01*
X10264Y478790D01*
X10319Y478610D01*
X10325Y478598D01*
X10329Y478586D01*
X10421Y478421D01*
X10511Y478256D01*
X10519Y478246D01*
X10526Y478234D01*
X10648Y478091D01*
X10768Y477947D01*
X10779Y477938D01*
X10787Y477928D01*
X10936Y477812D01*
X11082Y477694D01*
X11094Y477688D01*
X11104Y477680D01*
X11273Y477595D01*
X11439Y477509D01*
X11452Y477505D01*
X11464Y477499D01*
X11646Y477450D01*
X11826Y477398D01*
X11840Y477396D01*
X11853Y477393D01*
X12041Y477380D01*
X12228Y477365D01*
X12241Y477366D01*
X12254Y477365D01*
X12442Y477390D01*
X12627Y477412D01*
X12640Y477416D01*
X12653Y477417D01*
X12969Y477519D01*
X15977Y478765D01*
X19583Y478765D01*
X22915Y477385D01*
X25465Y474835D01*
X26845Y471503D01*
X26845Y467897D01*
X25465Y464565D01*
X22915Y462015D01*
X20319Y460940D01*
X19583Y460635D01*
X15977Y460635D01*
X12969Y461881D01*
X12956Y461885D01*
X12945Y461891D01*
X12764Y461943D01*
X12584Y461998D01*
X12571Y461999D01*
X12558Y462002D01*
X12370Y462018D01*
X12183Y462036D01*
X12170Y462034D01*
X12156Y462035D01*
X11969Y462013D01*
X11783Y461994D01*
X11770Y461990D01*
X11757Y461988D01*
X11577Y461930D01*
X11398Y461874D01*
X11387Y461868D01*
X11374Y461864D01*
X11209Y461771D01*
X11045Y461681D01*
X11035Y461672D01*
X11023Y461666D01*
X10881Y461543D01*
X10737Y461422D01*
X10729Y461411D01*
X10718Y461403D01*
X10603Y461254D01*
X10486Y461107D01*
X10480Y461095D01*
X10472Y461084D01*
X10388Y460916D01*
X10302Y460749D01*
X10298Y460736D01*
X10292Y460724D01*
X10243Y460540D01*
X10192Y460361D01*
X10191Y460348D01*
X10188Y460335D01*
X10161Y460004D01*
X10161Y454396D01*
X10162Y454382D01*
X10161Y454369D01*
X10182Y454183D01*
X10201Y453995D01*
X10205Y453982D01*
X10206Y453969D01*
X10264Y453790D01*
X10319Y453610D01*
X10325Y453598D01*
X10329Y453586D01*
X10421Y453421D01*
X10511Y453256D01*
X10519Y453246D01*
X10526Y453234D01*
X10648Y453091D01*
X10768Y452947D01*
X10779Y452938D01*
X10787Y452928D01*
X10936Y452812D01*
X11082Y452694D01*
X11094Y452688D01*
X11104Y452680D01*
X11273Y452595D01*
X11439Y452509D01*
X11452Y452505D01*
X11464Y452499D01*
X11646Y452450D01*
X11826Y452398D01*
X11840Y452396D01*
X11853Y452393D01*
X12041Y452380D01*
X12228Y452365D01*
X12241Y452366D01*
X12254Y452365D01*
X12442Y452390D01*
X12627Y452412D01*
X12640Y452416D01*
X12653Y452417D01*
X12969Y452519D01*
X15977Y453765D01*
X19583Y453765D01*
X22915Y452385D01*
X25465Y449835D01*
X26845Y446503D01*
X26845Y442897D01*
X25465Y439565D01*
X22915Y437015D01*
X21828Y436565D01*
X19583Y435635D01*
X15977Y435635D01*
X12969Y436881D01*
X12956Y436885D01*
X12945Y436891D01*
X12764Y436943D01*
X12584Y436998D01*
X12571Y436999D01*
X12558Y437002D01*
X12370Y437018D01*
X12183Y437036D01*
X12170Y437034D01*
X12156Y437035D01*
X11969Y437013D01*
X11783Y436994D01*
X11770Y436990D01*
X11757Y436988D01*
X11577Y436930D01*
X11398Y436874D01*
X11387Y436868D01*
X11374Y436864D01*
X11209Y436771D01*
X11045Y436681D01*
X11035Y436672D01*
X11023Y436666D01*
X10881Y436543D01*
X10737Y436422D01*
X10729Y436411D01*
X10718Y436403D01*
X10603Y436254D01*
X10486Y436107D01*
X10480Y436095D01*
X10472Y436084D01*
X10388Y435916D01*
X10302Y435749D01*
X10298Y435736D01*
X10292Y435724D01*
X10243Y435541D01*
X10192Y435361D01*
X10191Y435348D01*
X10188Y435335D01*
X10161Y435004D01*
X10161Y429396D01*
X10162Y429382D01*
X10161Y429369D01*
X10182Y429183D01*
X10201Y428995D01*
X10205Y428982D01*
X10206Y428969D01*
X10264Y428790D01*
X10319Y428610D01*
X10325Y428598D01*
X10329Y428586D01*
X10421Y428421D01*
X10511Y428256D01*
X10519Y428246D01*
X10526Y428234D01*
X10648Y428091D01*
X10768Y427947D01*
X10779Y427938D01*
X10787Y427928D01*
X10936Y427812D01*
X11082Y427694D01*
X11094Y427688D01*
X11104Y427680D01*
X11273Y427595D01*
X11439Y427509D01*
X11452Y427505D01*
X11464Y427499D01*
X11646Y427450D01*
X11826Y427398D01*
X11840Y427396D01*
X11853Y427393D01*
X12041Y427380D01*
X12228Y427365D01*
X12241Y427366D01*
X12254Y427365D01*
X12442Y427390D01*
X12627Y427412D01*
X12640Y427416D01*
X12653Y427417D01*
X12969Y427519D01*
X15956Y428756D01*
X15957Y428756D01*
X15977Y428765D01*
X19583Y428765D01*
X22915Y427385D01*
X25465Y424835D01*
X26845Y421503D01*
X26845Y417897D01*
X25465Y414565D01*
X22915Y412015D01*
X19583Y410635D01*
X15977Y410635D01*
X12969Y411881D01*
X12956Y411885D01*
X12945Y411891D01*
X12764Y411943D01*
X12584Y411998D01*
X12571Y411999D01*
X12558Y412002D01*
X12370Y412018D01*
X12183Y412036D01*
X12170Y412034D01*
X12156Y412035D01*
X11969Y412013D01*
X11783Y411994D01*
X11770Y411990D01*
X11757Y411988D01*
X11577Y411930D01*
X11398Y411874D01*
X11387Y411868D01*
X11374Y411864D01*
X11209Y411771D01*
X11045Y411681D01*
X11035Y411672D01*
X11023Y411666D01*
X10881Y411543D01*
X10737Y411422D01*
X10729Y411411D01*
X10718Y411403D01*
X10603Y411254D01*
X10486Y411107D01*
X10480Y411095D01*
X10472Y411084D01*
X10388Y410916D01*
X10302Y410749D01*
X10298Y410736D01*
X10292Y410724D01*
X10243Y410541D01*
X10192Y410361D01*
X10191Y410348D01*
X10188Y410335D01*
X10161Y410004D01*
X10161Y405446D01*
X10170Y405354D01*
X10169Y405260D01*
X10190Y405154D01*
X10201Y405046D01*
X10228Y404957D01*
X10246Y404865D01*
X10287Y404765D01*
X10319Y404661D01*
X10363Y404579D01*
X10399Y404493D01*
X10459Y404402D01*
X10511Y404307D01*
X10570Y404235D01*
X10622Y404158D01*
X10699Y404081D01*
X10768Y403998D01*
X10841Y403939D01*
X10907Y403873D01*
X10997Y403813D01*
X11082Y403745D01*
X11165Y403702D01*
X11242Y403651D01*
X11343Y403610D01*
X11439Y403560D01*
X11529Y403534D01*
X11615Y403499D01*
X11722Y403478D01*
X11826Y403448D01*
X11919Y403441D01*
X12011Y403423D01*
X12119Y403424D01*
X12228Y403415D01*
X12320Y403426D01*
X12413Y403427D01*
X12520Y403450D01*
X12627Y403462D01*
X12716Y403491D01*
X12807Y403511D01*
X12931Y403561D01*
X13010Y403587D01*
X13053Y403612D01*
X13114Y403636D01*
X13910Y404042D01*
X15281Y404487D01*
X15281Y395168D01*
X15282Y395150D01*
X15281Y395133D01*
X15302Y394950D01*
X15321Y394768D01*
X15326Y394750D01*
X15328Y394733D01*
X15341Y394692D01*
X15314Y394598D01*
X15312Y394580D01*
X15308Y394563D01*
X15281Y394232D01*
X15281Y384913D01*
X13910Y385358D01*
X13114Y385764D01*
X13027Y385797D01*
X12945Y385840D01*
X12840Y385870D01*
X12739Y385910D01*
X12647Y385926D01*
X12558Y385952D01*
X12449Y385961D01*
X12342Y385979D01*
X12249Y385977D01*
X12156Y385985D01*
X12049Y385972D01*
X11940Y385969D01*
X11849Y385949D01*
X11757Y385938D01*
X11653Y385904D01*
X11547Y385880D01*
X11463Y385842D01*
X11374Y385813D01*
X11279Y385759D01*
X11180Y385715D01*
X11104Y385661D01*
X11023Y385615D01*
X10941Y385544D01*
X10853Y385481D01*
X10789Y385413D01*
X10718Y385352D01*
X10652Y385266D01*
X10578Y385187D01*
X10529Y385107D01*
X10472Y385034D01*
X10423Y384936D01*
X10366Y384844D01*
X10334Y384757D01*
X10292Y384673D01*
X10264Y384568D01*
X10227Y384466D01*
X10212Y384374D01*
X10188Y384284D01*
X10177Y384151D01*
X10164Y384069D01*
X10166Y384019D01*
X10161Y383954D01*
X10161Y12192D01*
X10163Y12174D01*
X10161Y12156D01*
X10182Y11974D01*
X10201Y11791D01*
X10206Y11774D01*
X10208Y11757D01*
X10265Y11582D01*
X10319Y11406D01*
X10327Y11391D01*
X10333Y11374D01*
X10423Y11214D01*
X10511Y11052D01*
X10522Y11039D01*
X10531Y11023D01*
X10651Y10884D01*
X10768Y10743D01*
X10782Y10732D01*
X10794Y10718D01*
X10939Y10606D01*
X11082Y10491D01*
X11098Y10483D01*
X11112Y10472D01*
X11277Y10390D01*
X11439Y10305D01*
X11456Y10300D01*
X11472Y10292D01*
X11651Y10245D01*
X11826Y10194D01*
X11844Y10192D01*
X11861Y10188D01*
X12192Y10161D01*
X58884Y10161D01*
X58898Y10162D01*
G37*
%LPC*%
G36*
X185863Y177291D02*
X185863Y177291D01*
X181101Y182053D01*
X181101Y189251D01*
X181114Y189294D01*
X181116Y189312D01*
X181121Y189330D01*
X181134Y189513D01*
X181151Y189695D01*
X181149Y189713D01*
X181150Y189731D01*
X181127Y189913D01*
X181107Y190095D01*
X181102Y190113D01*
X181100Y190131D01*
X181042Y190304D01*
X180986Y190479D01*
X180977Y190495D01*
X180971Y190512D01*
X180880Y190671D01*
X180791Y190832D01*
X180780Y190845D01*
X180771Y190861D01*
X180556Y191114D01*
X171860Y199810D01*
X171839Y199827D01*
X171822Y199848D01*
X171684Y199955D01*
X171548Y200065D01*
X171525Y200078D01*
X171503Y200094D01*
X171347Y200172D01*
X171193Y200254D01*
X171167Y200262D01*
X171143Y200274D01*
X170974Y200319D01*
X170807Y200369D01*
X170780Y200371D01*
X170754Y200378D01*
X170423Y200405D01*
X134689Y200405D01*
X104804Y230290D01*
X104783Y230307D01*
X104766Y230328D01*
X104628Y230435D01*
X104492Y230545D01*
X104469Y230558D01*
X104447Y230574D01*
X104291Y230652D01*
X104137Y230734D01*
X104111Y230742D01*
X104087Y230754D01*
X103918Y230799D01*
X103751Y230849D01*
X103724Y230851D01*
X103698Y230858D01*
X103367Y230885D01*
X102685Y230885D01*
X100232Y233338D01*
X100211Y233355D01*
X100194Y233376D01*
X100056Y233483D01*
X99920Y233593D01*
X99897Y233606D01*
X99875Y233622D01*
X99719Y233700D01*
X99565Y233782D01*
X99539Y233790D01*
X99515Y233802D01*
X99346Y233847D01*
X99179Y233897D01*
X99152Y233899D01*
X99126Y233906D01*
X98795Y233933D01*
X96607Y233933D01*
X96603Y233933D01*
X96598Y233933D01*
X96404Y233913D01*
X96206Y233893D01*
X96202Y233892D01*
X96198Y233892D01*
X96010Y233833D01*
X95822Y233775D01*
X95818Y233773D01*
X95813Y233772D01*
X95639Y233676D01*
X95468Y233583D01*
X95464Y233581D01*
X95460Y233578D01*
X95307Y233450D01*
X95158Y233326D01*
X95155Y233322D01*
X95152Y233319D01*
X95027Y233163D01*
X94906Y233012D01*
X94904Y233008D01*
X94901Y233005D01*
X94811Y232829D01*
X94720Y232655D01*
X94719Y232650D01*
X94717Y232646D01*
X94663Y232454D01*
X94609Y232268D01*
X94609Y232263D01*
X94607Y232259D01*
X94593Y232066D01*
X94576Y231866D01*
X94577Y231862D01*
X94576Y231858D01*
X94600Y231664D01*
X94623Y231467D01*
X94624Y231462D01*
X94625Y231458D01*
X94686Y231273D01*
X94748Y231084D01*
X94750Y231080D01*
X94752Y231076D01*
X94848Y230907D01*
X94946Y230733D01*
X94949Y230730D01*
X94951Y230726D01*
X95081Y230577D01*
X95209Y230429D01*
X95212Y230426D01*
X95215Y230422D01*
X95375Y230300D01*
X95527Y230182D01*
X95531Y230180D01*
X95535Y230177D01*
X95830Y230025D01*
X99115Y228665D01*
X101665Y226115D01*
X103045Y222783D01*
X103045Y219177D01*
X101665Y215845D01*
X99115Y213295D01*
X95783Y211915D01*
X92177Y211915D01*
X88845Y213295D01*
X86295Y215845D01*
X84915Y219177D01*
X84915Y222783D01*
X86295Y226115D01*
X88845Y228665D01*
X92130Y230025D01*
X92134Y230027D01*
X92138Y230029D01*
X92311Y230122D01*
X92485Y230216D01*
X92489Y230218D01*
X92492Y230221D01*
X92641Y230345D01*
X92795Y230472D01*
X92798Y230475D01*
X92802Y230478D01*
X92925Y230631D01*
X93049Y230785D01*
X93051Y230789D01*
X93054Y230792D01*
X93144Y230965D01*
X93236Y231141D01*
X93238Y231145D01*
X93240Y231149D01*
X93294Y231338D01*
X93349Y231528D01*
X93350Y231532D01*
X93351Y231536D01*
X93367Y231734D01*
X93384Y231929D01*
X93383Y231933D01*
X93384Y231938D01*
X93361Y232132D01*
X93339Y232329D01*
X93337Y232333D01*
X93337Y232337D01*
X93276Y232523D01*
X93216Y232712D01*
X93214Y232716D01*
X93212Y232720D01*
X93115Y232893D01*
X93019Y233064D01*
X93016Y233067D01*
X93014Y233071D01*
X92886Y233220D01*
X92757Y233369D01*
X92754Y233372D01*
X92751Y233376D01*
X92596Y233496D01*
X92440Y233618D01*
X92436Y233620D01*
X92433Y233622D01*
X92255Y233711D01*
X92081Y233798D01*
X92077Y233800D01*
X92072Y233802D01*
X91881Y233853D01*
X91692Y233905D01*
X91688Y233905D01*
X91684Y233906D01*
X91353Y233933D01*
X88657Y233933D01*
X88630Y233931D01*
X88603Y233933D01*
X88429Y233911D01*
X88256Y233893D01*
X88230Y233886D01*
X88204Y233882D01*
X88038Y233827D01*
X87871Y233775D01*
X87847Y233762D01*
X87822Y233754D01*
X87670Y233667D01*
X87517Y233583D01*
X87497Y233566D01*
X87473Y233553D01*
X87220Y233338D01*
X86291Y232409D01*
X81349Y232409D01*
X75628Y238130D01*
X75610Y238145D01*
X75596Y238162D01*
X75455Y238272D01*
X75316Y238385D01*
X75296Y238396D01*
X75279Y238410D01*
X75119Y238490D01*
X74960Y238574D01*
X74939Y238580D01*
X74919Y238590D01*
X74747Y238638D01*
X74575Y238689D01*
X74552Y238691D01*
X74531Y238697D01*
X74352Y238709D01*
X74174Y238725D01*
X74151Y238723D01*
X74129Y238724D01*
X73951Y238701D01*
X73773Y238682D01*
X73752Y238675D01*
X73730Y238672D01*
X73414Y238571D01*
X70383Y237315D01*
X66777Y237315D01*
X63445Y238695D01*
X60895Y241245D01*
X59515Y244577D01*
X59515Y248183D01*
X60895Y251515D01*
X63445Y254065D01*
X66777Y255445D01*
X70383Y255445D01*
X73715Y254065D01*
X76265Y251515D01*
X77645Y248183D01*
X77645Y244577D01*
X77580Y244420D01*
X77573Y244398D01*
X77563Y244378D01*
X77515Y244205D01*
X77463Y244034D01*
X77461Y244012D01*
X77455Y243991D01*
X77442Y243811D01*
X77425Y243634D01*
X77427Y243611D01*
X77426Y243589D01*
X77448Y243410D01*
X77467Y243233D01*
X77473Y243212D01*
X77476Y243190D01*
X77533Y243019D01*
X77586Y242849D01*
X77597Y242829D01*
X77604Y242808D01*
X77694Y242652D01*
X77780Y242495D01*
X77794Y242478D01*
X77805Y242459D01*
X78020Y242206D01*
X82384Y237842D01*
X82398Y237831D01*
X82409Y237817D01*
X82553Y237704D01*
X82695Y237587D01*
X82711Y237579D01*
X82725Y237568D01*
X82888Y237485D01*
X83051Y237399D01*
X83068Y237393D01*
X83084Y237385D01*
X83260Y237336D01*
X83437Y237284D01*
X83455Y237282D01*
X83472Y237277D01*
X83655Y237264D01*
X83838Y237247D01*
X83856Y237249D01*
X83873Y237248D01*
X84056Y237271D01*
X84238Y237291D01*
X84255Y237296D01*
X84273Y237298D01*
X84447Y237357D01*
X84622Y237412D01*
X84637Y237421D01*
X84654Y237427D01*
X84814Y237518D01*
X84974Y237607D01*
X84988Y237619D01*
X85003Y237628D01*
X85256Y237842D01*
X86041Y238627D01*
X86053Y238641D01*
X86067Y238653D01*
X86180Y238797D01*
X86296Y238938D01*
X86305Y238955D01*
X86316Y238969D01*
X86399Y239132D01*
X86485Y239294D01*
X86490Y239312D01*
X86498Y239328D01*
X86547Y239505D01*
X86599Y239680D01*
X86601Y239698D01*
X86606Y239716D01*
X86619Y239898D01*
X86636Y240081D01*
X86634Y240099D01*
X86635Y240118D01*
X86612Y240299D01*
X86592Y240481D01*
X86587Y240499D01*
X86585Y240517D01*
X86526Y240690D01*
X86471Y240865D01*
X86462Y240881D01*
X86456Y240899D01*
X86395Y241005D01*
X84915Y244577D01*
X84915Y248183D01*
X86295Y251515D01*
X88845Y254065D01*
X92177Y255445D01*
X95783Y255445D01*
X99115Y254065D01*
X101665Y251515D01*
X103045Y248183D01*
X103045Y244577D01*
X101665Y241245D01*
X101654Y241232D01*
X101640Y241220D01*
X101526Y241076D01*
X101410Y240934D01*
X101402Y240918D01*
X101391Y240904D01*
X101307Y240740D01*
X101221Y240578D01*
X101216Y240561D01*
X101208Y240545D01*
X101159Y240368D01*
X101107Y240193D01*
X101105Y240175D01*
X101100Y240157D01*
X101087Y239974D01*
X101070Y239792D01*
X101072Y239774D01*
X101071Y239756D01*
X101094Y239573D01*
X101114Y239391D01*
X101119Y239374D01*
X101121Y239356D01*
X101180Y239182D01*
X101235Y239007D01*
X101244Y238992D01*
X101249Y238975D01*
X101341Y238815D01*
X101430Y238655D01*
X101441Y238642D01*
X101450Y238626D01*
X101665Y238373D01*
X103984Y236054D01*
X104005Y236037D01*
X104022Y236016D01*
X104160Y235909D01*
X104296Y235799D01*
X104319Y235786D01*
X104341Y235770D01*
X104497Y235692D01*
X104651Y235610D01*
X104677Y235602D01*
X104701Y235590D01*
X104870Y235545D01*
X105037Y235495D01*
X105064Y235493D01*
X105090Y235486D01*
X105421Y235459D01*
X106103Y235459D01*
X135988Y205574D01*
X136009Y205557D01*
X136026Y205536D01*
X136164Y205429D01*
X136300Y205319D01*
X136323Y205306D01*
X136345Y205290D01*
X136501Y205212D01*
X136655Y205130D01*
X136681Y205122D01*
X136705Y205110D01*
X136874Y205065D01*
X137041Y205015D01*
X137068Y205013D01*
X137094Y205006D01*
X137425Y204979D01*
X173159Y204979D01*
X183994Y194144D01*
X184015Y194127D01*
X184032Y194106D01*
X184170Y193999D01*
X184306Y193889D01*
X184329Y193876D01*
X184351Y193860D01*
X184507Y193782D01*
X184661Y193700D01*
X184687Y193692D01*
X184711Y193680D01*
X184880Y193635D01*
X185047Y193585D01*
X185074Y193583D01*
X185100Y193576D01*
X185431Y193549D01*
X192521Y193549D01*
X192548Y193551D01*
X192575Y193549D01*
X192749Y193571D01*
X192922Y193589D01*
X192948Y193596D01*
X192974Y193600D01*
X193140Y193655D01*
X193307Y193707D01*
X193331Y193720D01*
X193356Y193728D01*
X193508Y193815D01*
X193661Y193899D01*
X193681Y193916D01*
X193705Y193929D01*
X193958Y194144D01*
X201334Y201520D01*
X203269Y203455D01*
X395975Y203455D01*
X396002Y203457D01*
X396029Y203455D01*
X396203Y203477D01*
X396376Y203495D01*
X396402Y203502D01*
X396428Y203506D01*
X396594Y203561D01*
X396761Y203613D01*
X396785Y203626D01*
X396810Y203634D01*
X396962Y203721D01*
X397115Y203805D01*
X397135Y203822D01*
X397159Y203835D01*
X397412Y204050D01*
X468368Y275006D01*
X468382Y275023D01*
X468399Y275037D01*
X468509Y275179D01*
X468623Y275317D01*
X468633Y275337D01*
X468647Y275354D01*
X468728Y275515D01*
X468811Y275673D01*
X468818Y275694D01*
X468828Y275714D01*
X468875Y275888D01*
X468926Y276059D01*
X468928Y276081D01*
X468934Y276102D01*
X468946Y276281D01*
X468963Y276460D01*
X468960Y276482D01*
X468962Y276504D01*
X468938Y276682D01*
X468919Y276860D01*
X468912Y276881D01*
X468909Y276903D01*
X468808Y277219D01*
X468367Y278283D01*
X468367Y281517D01*
X469605Y284505D01*
X471891Y286791D01*
X474879Y288029D01*
X491321Y288029D01*
X494309Y286791D01*
X496595Y284505D01*
X497833Y281517D01*
X497833Y278283D01*
X496595Y275295D01*
X494309Y273009D01*
X491955Y272034D01*
X491321Y271771D01*
X474879Y271771D01*
X473815Y272212D01*
X473794Y272218D01*
X473774Y272229D01*
X473602Y272277D01*
X473430Y272328D01*
X473408Y272331D01*
X473386Y272337D01*
X473207Y272350D01*
X473029Y272367D01*
X473007Y272364D01*
X472985Y272366D01*
X472806Y272343D01*
X472629Y272325D01*
X472607Y272318D01*
X472585Y272315D01*
X472415Y272258D01*
X472244Y272205D01*
X472225Y272194D01*
X472203Y272187D01*
X472048Y272098D01*
X471891Y272012D01*
X471874Y271997D01*
X471855Y271986D01*
X471602Y271772D01*
X400646Y200816D01*
X398711Y198881D01*
X206005Y198881D01*
X205978Y198879D01*
X205951Y198881D01*
X205777Y198859D01*
X205604Y198841D01*
X205578Y198834D01*
X205552Y198830D01*
X205386Y198775D01*
X205219Y198723D01*
X205195Y198710D01*
X205170Y198702D01*
X205018Y198615D01*
X204865Y198531D01*
X204845Y198514D01*
X204821Y198501D01*
X204568Y198286D01*
X197650Y191368D01*
X197639Y191354D01*
X197625Y191343D01*
X197511Y191199D01*
X197395Y191057D01*
X197387Y191041D01*
X197376Y191027D01*
X197292Y190862D01*
X197206Y190701D01*
X197201Y190684D01*
X197193Y190668D01*
X197144Y190490D01*
X197092Y190315D01*
X197090Y190297D01*
X197085Y190280D01*
X197072Y190096D01*
X197055Y189914D01*
X197057Y189896D01*
X197056Y189879D01*
X197079Y189697D01*
X197099Y189514D01*
X197104Y189497D01*
X197106Y189479D01*
X197165Y189306D01*
X197220Y189130D01*
X197229Y189114D01*
X197235Y189097D01*
X197326Y188938D01*
X197359Y188879D01*
X197359Y182053D01*
X192597Y177291D01*
X185863Y177291D01*
G37*
%LPD*%
%LPC*%
G36*
X248880Y325401D02*
X248880Y325401D01*
X246930Y326209D01*
X245437Y327702D01*
X244629Y329652D01*
X244629Y331764D01*
X245437Y333714D01*
X246930Y335207D01*
X248880Y336015D01*
X251167Y336015D01*
X251194Y336017D01*
X251221Y336015D01*
X251395Y336037D01*
X251568Y336055D01*
X251594Y336062D01*
X251620Y336066D01*
X251786Y336121D01*
X251953Y336173D01*
X251977Y336186D01*
X252002Y336194D01*
X252154Y336281D01*
X252307Y336365D01*
X252327Y336382D01*
X252351Y336395D01*
X252604Y336610D01*
X318008Y402014D01*
X318016Y402024D01*
X318027Y402033D01*
X318144Y402180D01*
X318263Y402325D01*
X318269Y402337D01*
X318278Y402348D01*
X318364Y402516D01*
X318452Y402681D01*
X318455Y402694D01*
X318462Y402706D01*
X318513Y402887D01*
X318566Y403067D01*
X318568Y403080D01*
X318571Y403093D01*
X318586Y403280D01*
X318603Y403468D01*
X318601Y403481D01*
X318602Y403495D01*
X318580Y403680D01*
X318559Y403868D01*
X318555Y403881D01*
X318554Y403894D01*
X318495Y404072D01*
X318438Y404252D01*
X318431Y404264D01*
X318427Y404276D01*
X318333Y404441D01*
X318243Y404604D01*
X318234Y404614D01*
X318228Y404626D01*
X318104Y404769D01*
X317983Y404911D01*
X317972Y404920D01*
X317963Y404930D01*
X317814Y405044D01*
X317667Y405161D01*
X317655Y405167D01*
X317644Y405175D01*
X317349Y405327D01*
X317034Y405457D01*
X315541Y406950D01*
X314733Y408900D01*
X314733Y411012D01*
X315541Y412962D01*
X317034Y414455D01*
X317233Y414537D01*
X317234Y414538D01*
X318984Y415263D01*
X321271Y415263D01*
X321298Y415265D01*
X321325Y415263D01*
X321499Y415285D01*
X321672Y415303D01*
X321698Y415310D01*
X321724Y415314D01*
X321890Y415369D01*
X322057Y415421D01*
X322081Y415434D01*
X322106Y415442D01*
X322258Y415529D01*
X322411Y415613D01*
X322431Y415630D01*
X322455Y415643D01*
X322708Y415858D01*
X358306Y451456D01*
X358323Y451477D01*
X358344Y451494D01*
X358451Y451632D01*
X358561Y451768D01*
X358574Y451791D01*
X358590Y451813D01*
X358668Y451969D01*
X358750Y452123D01*
X358758Y452149D01*
X358770Y452173D01*
X358815Y452342D01*
X358865Y452509D01*
X358867Y452536D01*
X358874Y452562D01*
X358901Y452893D01*
X358901Y541967D01*
X360836Y543902D01*
X393781Y576847D01*
X393792Y576861D01*
X393806Y576872D01*
X393919Y577016D01*
X394036Y577158D01*
X394044Y577174D01*
X394055Y577188D01*
X394139Y577352D01*
X394225Y577514D01*
X394230Y577531D01*
X394238Y577547D01*
X394287Y577724D01*
X394339Y577900D01*
X394341Y577918D01*
X394346Y577935D01*
X394359Y578117D01*
X394376Y578301D01*
X394374Y578319D01*
X394375Y578336D01*
X394352Y578517D01*
X394332Y578701D01*
X394327Y578718D01*
X394325Y578736D01*
X394266Y578909D01*
X394211Y579085D01*
X394202Y579101D01*
X394196Y579118D01*
X394105Y579277D01*
X394016Y579437D01*
X394004Y579451D01*
X393996Y579466D01*
X393781Y579719D01*
X393405Y580095D01*
X392167Y583083D01*
X392167Y586317D01*
X393405Y589305D01*
X395691Y591591D01*
X398679Y592829D01*
X415121Y592829D01*
X418109Y591591D01*
X420395Y589305D01*
X421633Y586317D01*
X421633Y583083D01*
X420395Y580095D01*
X418109Y577809D01*
X415121Y576571D01*
X400815Y576571D01*
X400788Y576569D01*
X400761Y576571D01*
X400587Y576549D01*
X400414Y576531D01*
X400388Y576524D01*
X400362Y576520D01*
X400196Y576465D01*
X400029Y576413D01*
X400005Y576400D01*
X399980Y576392D01*
X399828Y576305D01*
X399675Y576221D01*
X399655Y576204D01*
X399631Y576191D01*
X399378Y575976D01*
X364070Y540668D01*
X364053Y540647D01*
X364032Y540630D01*
X363925Y540492D01*
X363815Y540356D01*
X363802Y540333D01*
X363786Y540311D01*
X363708Y540155D01*
X363626Y540001D01*
X363618Y539975D01*
X363606Y539951D01*
X363561Y539782D01*
X363511Y539615D01*
X363509Y539588D01*
X363502Y539562D01*
X363475Y539231D01*
X363475Y452385D01*
X363476Y452376D01*
X363475Y452367D01*
X363496Y452173D01*
X363515Y451984D01*
X363517Y451975D01*
X363518Y451966D01*
X363577Y451782D01*
X363633Y451599D01*
X363637Y451591D01*
X363640Y451583D01*
X363733Y451414D01*
X363825Y451245D01*
X363830Y451238D01*
X363835Y451230D01*
X363959Y451083D01*
X364082Y450936D01*
X364089Y450930D01*
X364095Y450923D01*
X364247Y450804D01*
X364396Y450683D01*
X364404Y450679D01*
X364411Y450674D01*
X364584Y450586D01*
X364753Y450498D01*
X364762Y450495D01*
X364770Y450491D01*
X364956Y450439D01*
X365140Y450386D01*
X365149Y450386D01*
X365158Y450383D01*
X365351Y450369D01*
X365542Y450354D01*
X365550Y450355D01*
X365559Y450354D01*
X365752Y450378D01*
X365941Y450400D01*
X365950Y450403D01*
X365959Y450404D01*
X366141Y450466D01*
X366324Y450525D01*
X366332Y450530D01*
X366340Y450533D01*
X366507Y450629D01*
X366675Y450723D01*
X366682Y450729D01*
X366689Y450734D01*
X366942Y450948D01*
X392763Y476769D01*
X392777Y476786D01*
X392794Y476800D01*
X392904Y476942D01*
X393018Y477080D01*
X393028Y477100D01*
X393042Y477117D01*
X393123Y477278D01*
X393206Y477436D01*
X393213Y477457D01*
X393223Y477477D01*
X393270Y477650D01*
X393321Y477822D01*
X393323Y477844D01*
X393329Y477866D01*
X393341Y478044D01*
X393358Y478223D01*
X393355Y478245D01*
X393357Y478267D01*
X393334Y478445D01*
X393314Y478623D01*
X393308Y478644D01*
X393305Y478666D01*
X393203Y478982D01*
X392167Y481483D01*
X392167Y484717D01*
X393405Y487705D01*
X395691Y489991D01*
X398679Y491229D01*
X415121Y491229D01*
X418109Y489991D01*
X420395Y487705D01*
X421633Y484717D01*
X421633Y481483D01*
X420395Y478495D01*
X418109Y476209D01*
X415574Y475159D01*
X415121Y474971D01*
X398275Y474971D01*
X398249Y474969D01*
X398221Y474971D01*
X398077Y474953D01*
X397933Y474942D01*
X397903Y474934D01*
X397874Y474931D01*
X397850Y474924D01*
X397822Y474920D01*
X397684Y474874D01*
X397545Y474836D01*
X397517Y474822D01*
X397490Y474813D01*
X397467Y474801D01*
X397440Y474792D01*
X397315Y474720D01*
X397185Y474655D01*
X397160Y474635D01*
X397135Y474621D01*
X397116Y474606D01*
X397091Y474591D01*
X396930Y474454D01*
X396869Y474406D01*
X396856Y474392D01*
X396838Y474376D01*
X255838Y333376D01*
X255821Y333355D01*
X255800Y333338D01*
X255693Y333200D01*
X255583Y333064D01*
X255570Y333041D01*
X255554Y333019D01*
X255476Y332863D01*
X255394Y332709D01*
X255386Y332683D01*
X255374Y332659D01*
X255329Y332490D01*
X255279Y332323D01*
X255277Y332296D01*
X255270Y332270D01*
X255243Y331939D01*
X255243Y329652D01*
X254435Y327702D01*
X252942Y326209D01*
X250992Y325401D01*
X248880Y325401D01*
G37*
%LPD*%
%LPC*%
G36*
X185863Y239521D02*
X185863Y239521D01*
X181101Y244283D01*
X181101Y251017D01*
X185863Y255779D01*
X192267Y255779D01*
X192294Y255781D01*
X192321Y255779D01*
X192495Y255801D01*
X192668Y255819D01*
X192694Y255826D01*
X192720Y255830D01*
X192886Y255885D01*
X193053Y255937D01*
X193077Y255950D01*
X193102Y255958D01*
X193254Y256045D01*
X193407Y256129D01*
X193427Y256146D01*
X193451Y256159D01*
X193704Y256374D01*
X201745Y264415D01*
X427979Y264415D01*
X428006Y264417D01*
X428033Y264415D01*
X428207Y264437D01*
X428380Y264455D01*
X428406Y264462D01*
X428432Y264466D01*
X428598Y264521D01*
X428765Y264573D01*
X428789Y264586D01*
X428814Y264594D01*
X428966Y264681D01*
X429119Y264765D01*
X429139Y264782D01*
X429163Y264795D01*
X429416Y265010D01*
X467772Y303366D01*
X467789Y303387D01*
X467810Y303404D01*
X467917Y303542D01*
X468027Y303678D01*
X468040Y303701D01*
X468056Y303723D01*
X468134Y303879D01*
X468216Y304033D01*
X468224Y304059D01*
X468236Y304083D01*
X468281Y304252D01*
X468331Y304419D01*
X468333Y304446D01*
X468340Y304472D01*
X468367Y304803D01*
X468367Y306917D01*
X469605Y309905D01*
X471891Y312191D01*
X474879Y313429D01*
X491321Y313429D01*
X494309Y312191D01*
X496595Y309905D01*
X497833Y306917D01*
X497833Y303683D01*
X496595Y300695D01*
X494309Y298409D01*
X491321Y297171D01*
X474879Y297171D01*
X471832Y298433D01*
X471712Y298532D01*
X471696Y298540D01*
X471682Y298551D01*
X471519Y298634D01*
X471356Y298720D01*
X471339Y298726D01*
X471323Y298734D01*
X471147Y298783D01*
X470970Y298835D01*
X470953Y298837D01*
X470935Y298842D01*
X470752Y298855D01*
X470570Y298872D01*
X470552Y298870D01*
X470534Y298871D01*
X470352Y298848D01*
X470169Y298828D01*
X470152Y298823D01*
X470134Y298821D01*
X469960Y298762D01*
X469785Y298707D01*
X469770Y298698D01*
X469753Y298692D01*
X469593Y298601D01*
X469433Y298512D01*
X469419Y298501D01*
X469404Y298492D01*
X469151Y298277D01*
X432650Y261776D01*
X430715Y259841D01*
X204481Y259841D01*
X204454Y259839D01*
X204427Y259841D01*
X204253Y259819D01*
X204080Y259801D01*
X204054Y259794D01*
X204028Y259790D01*
X203862Y259735D01*
X203695Y259683D01*
X203671Y259670D01*
X203646Y259662D01*
X203494Y259575D01*
X203341Y259491D01*
X203321Y259474D01*
X203297Y259461D01*
X203044Y259246D01*
X197523Y253725D01*
X197512Y253711D01*
X197498Y253700D01*
X197384Y253556D01*
X197268Y253414D01*
X197260Y253398D01*
X197249Y253384D01*
X197165Y253219D01*
X197079Y253058D01*
X197074Y253041D01*
X197066Y253025D01*
X197017Y252847D01*
X196965Y252672D01*
X196963Y252654D01*
X196958Y252637D01*
X196945Y252454D01*
X196928Y252271D01*
X196930Y252253D01*
X196929Y252236D01*
X196952Y252054D01*
X196972Y251871D01*
X196977Y251854D01*
X196979Y251836D01*
X197038Y251663D01*
X197093Y251487D01*
X197102Y251471D01*
X197108Y251454D01*
X197199Y251295D01*
X197288Y251135D01*
X197300Y251121D01*
X197309Y251106D01*
X197359Y251046D01*
X197359Y244283D01*
X192597Y239521D01*
X185863Y239521D01*
G37*
%LPD*%
%LPC*%
G36*
X254976Y404649D02*
X254976Y404649D01*
X253026Y405457D01*
X251533Y406950D01*
X250725Y408900D01*
X250725Y411012D01*
X251533Y412962D01*
X253150Y414579D01*
X253167Y414600D01*
X253188Y414617D01*
X253295Y414755D01*
X253405Y414891D01*
X253418Y414914D01*
X253434Y414935D01*
X253512Y415092D01*
X253594Y415246D01*
X253602Y415272D01*
X253614Y415296D01*
X253659Y415465D01*
X253709Y415632D01*
X253711Y415659D01*
X253718Y415685D01*
X253745Y416016D01*
X253745Y450527D01*
X331740Y528522D01*
X331755Y528540D01*
X331772Y528554D01*
X331882Y528695D01*
X331996Y528834D01*
X332006Y528854D01*
X332020Y528871D01*
X332101Y529032D01*
X332184Y529190D01*
X332190Y529211D01*
X332201Y529231D01*
X332248Y529404D01*
X332299Y529576D01*
X332301Y529598D01*
X332307Y529619D01*
X332319Y529797D01*
X332335Y529976D01*
X332333Y529999D01*
X332334Y530021D01*
X332311Y530198D01*
X332292Y530377D01*
X332285Y530398D01*
X332282Y530420D01*
X332181Y530736D01*
X331977Y531227D01*
X331977Y535573D01*
X333640Y539587D01*
X336713Y542660D01*
X339199Y543690D01*
X339277Y543732D01*
X339360Y543765D01*
X339454Y543827D01*
X339554Y543880D01*
X339622Y543936D01*
X339697Y543985D01*
X339777Y544064D01*
X339864Y544136D01*
X339920Y544205D01*
X339983Y544268D01*
X340047Y544361D01*
X340118Y544449D01*
X340159Y544527D01*
X340209Y544601D01*
X340252Y544705D01*
X340305Y544805D01*
X340330Y544891D01*
X340364Y544973D01*
X340386Y545083D01*
X340418Y545192D01*
X340426Y545280D01*
X340443Y545367D01*
X340443Y545481D01*
X340453Y545593D01*
X340443Y545681D01*
X340443Y545770D01*
X340420Y545881D01*
X340407Y545993D01*
X340380Y546078D01*
X340363Y546165D01*
X340319Y546269D01*
X340284Y546376D01*
X340241Y546454D01*
X340207Y546536D01*
X340143Y546629D01*
X340088Y546728D01*
X340030Y546795D01*
X339980Y546869D01*
X339900Y546948D01*
X339826Y547034D01*
X339756Y547088D01*
X339693Y547151D01*
X339598Y547212D01*
X339509Y547282D01*
X339430Y547322D01*
X339355Y547370D01*
X339225Y547425D01*
X339149Y547463D01*
X339105Y547475D01*
X339049Y547498D01*
X338317Y547736D01*
X336643Y548589D01*
X335122Y549694D01*
X333794Y551022D01*
X332689Y552543D01*
X331836Y554217D01*
X331255Y556004D01*
X331215Y556261D01*
X342392Y556261D01*
X342410Y556262D01*
X342427Y556261D01*
X342610Y556282D01*
X342792Y556301D01*
X342809Y556306D01*
X342827Y556308D01*
X342905Y556333D01*
X343042Y556294D01*
X343060Y556292D01*
X343077Y556288D01*
X343408Y556261D01*
X354585Y556261D01*
X354545Y556004D01*
X353964Y554217D01*
X353111Y552543D01*
X352006Y551022D01*
X350678Y549694D01*
X349157Y548589D01*
X347483Y547736D01*
X346751Y547498D01*
X346669Y547462D01*
X346585Y547436D01*
X346486Y547382D01*
X346382Y547336D01*
X346309Y547285D01*
X346232Y547243D01*
X346145Y547170D01*
X346053Y547105D01*
X345991Y547041D01*
X345923Y546984D01*
X345853Y546895D01*
X345775Y546813D01*
X345728Y546738D01*
X345672Y546669D01*
X345621Y546568D01*
X345561Y546473D01*
X345529Y546390D01*
X345489Y546311D01*
X345458Y546202D01*
X345418Y546096D01*
X345403Y546009D01*
X345379Y545923D01*
X345370Y545811D01*
X345352Y545699D01*
X345355Y545610D01*
X345348Y545522D01*
X345361Y545410D01*
X345365Y545297D01*
X345386Y545210D01*
X345396Y545122D01*
X345432Y545015D01*
X345458Y544905D01*
X345495Y544824D01*
X345523Y544740D01*
X345579Y544642D01*
X345626Y544539D01*
X345678Y544467D01*
X345722Y544390D01*
X345796Y544305D01*
X345863Y544214D01*
X345929Y544154D01*
X345987Y544087D01*
X346076Y544018D01*
X346160Y543941D01*
X346236Y543895D01*
X346306Y543841D01*
X346432Y543777D01*
X346504Y543733D01*
X346547Y543717D01*
X346601Y543690D01*
X349087Y542660D01*
X352160Y539587D01*
X353823Y535573D01*
X353823Y531227D01*
X352160Y527213D01*
X349087Y524140D01*
X348529Y523909D01*
X345313Y522577D01*
X345305Y522572D01*
X345296Y522570D01*
X345128Y522478D01*
X344958Y522386D01*
X344951Y522381D01*
X344943Y522376D01*
X344797Y522253D01*
X344647Y522130D01*
X344642Y522123D01*
X344635Y522117D01*
X344515Y521967D01*
X344394Y521817D01*
X344389Y521809D01*
X344384Y521803D01*
X344296Y521631D01*
X344207Y521461D01*
X344204Y521452D01*
X344200Y521444D01*
X344148Y521260D01*
X344093Y521074D01*
X344093Y521066D01*
X344090Y521057D01*
X344075Y520866D01*
X344059Y520673D01*
X344060Y520664D01*
X344059Y520656D01*
X344082Y520465D01*
X344104Y520273D01*
X344107Y520265D01*
X344108Y520256D01*
X344168Y520073D01*
X344227Y519890D01*
X344231Y519882D01*
X344234Y519874D01*
X344330Y519706D01*
X344423Y519538D01*
X344429Y519532D01*
X344434Y519524D01*
X344560Y519379D01*
X344685Y519233D01*
X344692Y519227D01*
X344698Y519220D01*
X344850Y519103D01*
X345002Y518984D01*
X345010Y518980D01*
X345017Y518975D01*
X345313Y518823D01*
X349087Y517260D01*
X352160Y514187D01*
X353823Y510173D01*
X353823Y505827D01*
X352160Y501813D01*
X349087Y498740D01*
X346100Y497503D01*
X345073Y497077D01*
X340727Y497077D01*
X336713Y498740D01*
X333640Y501813D01*
X331977Y505827D01*
X331977Y510173D01*
X333640Y514187D01*
X336713Y517260D01*
X340487Y518823D01*
X340495Y518828D01*
X340504Y518830D01*
X340673Y518923D01*
X340842Y519014D01*
X340849Y519019D01*
X340857Y519024D01*
X341005Y519148D01*
X341153Y519270D01*
X341158Y519277D01*
X341165Y519283D01*
X341285Y519433D01*
X341406Y519583D01*
X341411Y519591D01*
X341416Y519598D01*
X341503Y519767D01*
X341594Y519939D01*
X341596Y519948D01*
X341600Y519956D01*
X341652Y520138D01*
X341707Y520326D01*
X341707Y520335D01*
X341710Y520343D01*
X341725Y520533D01*
X341741Y520727D01*
X341740Y520736D01*
X341741Y520744D01*
X341718Y520935D01*
X341696Y521127D01*
X341693Y521135D01*
X341692Y521144D01*
X341633Y521324D01*
X341573Y521510D01*
X341568Y521518D01*
X341566Y521526D01*
X341470Y521694D01*
X341377Y521862D01*
X341371Y521868D01*
X341366Y521876D01*
X341239Y522022D01*
X341115Y522167D01*
X341108Y522173D01*
X341102Y522180D01*
X340950Y522297D01*
X340798Y522416D01*
X340790Y522420D01*
X340783Y522425D01*
X340487Y522577D01*
X336713Y524140D01*
X336706Y524147D01*
X336692Y524158D01*
X336680Y524172D01*
X336536Y524286D01*
X336394Y524402D01*
X336379Y524411D01*
X336364Y524422D01*
X336201Y524505D01*
X336039Y524591D01*
X336021Y524596D01*
X336006Y524604D01*
X335828Y524653D01*
X335653Y524706D01*
X335635Y524707D01*
X335618Y524712D01*
X335434Y524725D01*
X335252Y524742D01*
X335234Y524740D01*
X335216Y524741D01*
X335034Y524718D01*
X334851Y524699D01*
X334834Y524693D01*
X334817Y524691D01*
X334642Y524633D01*
X334468Y524577D01*
X334452Y524569D01*
X334435Y524563D01*
X334276Y524471D01*
X334115Y524382D01*
X334102Y524371D01*
X334086Y524362D01*
X333833Y524147D01*
X258914Y449228D01*
X258897Y449207D01*
X258876Y449190D01*
X258769Y449052D01*
X258659Y448916D01*
X258646Y448893D01*
X258630Y448871D01*
X258552Y448715D01*
X258470Y448561D01*
X258462Y448535D01*
X258450Y448511D01*
X258405Y448342D01*
X258355Y448175D01*
X258353Y448148D01*
X258346Y448122D01*
X258319Y447791D01*
X258319Y416016D01*
X258321Y415989D01*
X258319Y415962D01*
X258341Y415788D01*
X258359Y415615D01*
X258366Y415589D01*
X258370Y415563D01*
X258425Y415397D01*
X258477Y415230D01*
X258490Y415206D01*
X258498Y415181D01*
X258585Y415029D01*
X258669Y414876D01*
X258686Y414855D01*
X258699Y414832D01*
X258914Y414579D01*
X260531Y412962D01*
X261339Y411012D01*
X261339Y408900D01*
X260531Y406950D01*
X259038Y405457D01*
X257088Y404649D01*
X254976Y404649D01*
G37*
%LPD*%
%LPC*%
G36*
X543927Y725677D02*
X543927Y725677D01*
X539913Y727340D01*
X536840Y730413D01*
X535177Y734427D01*
X535177Y738773D01*
X536840Y742787D01*
X539913Y745860D01*
X543687Y747423D01*
X543695Y747428D01*
X543704Y747430D01*
X543872Y747522D01*
X544042Y747614D01*
X544049Y747619D01*
X544057Y747624D01*
X544203Y747747D01*
X544353Y747870D01*
X544358Y747877D01*
X544365Y747883D01*
X544485Y748033D01*
X544606Y748183D01*
X544611Y748191D01*
X544616Y748197D01*
X544704Y748369D01*
X544793Y748539D01*
X544796Y748548D01*
X544800Y748556D01*
X544852Y748740D01*
X544907Y748926D01*
X544907Y748934D01*
X544910Y748943D01*
X544925Y749134D01*
X544941Y749327D01*
X544940Y749336D01*
X544941Y749344D01*
X544918Y749535D01*
X544896Y749727D01*
X544893Y749735D01*
X544892Y749744D01*
X544832Y749927D01*
X544773Y750110D01*
X544769Y750118D01*
X544766Y750126D01*
X544670Y750294D01*
X544577Y750462D01*
X544571Y750468D01*
X544566Y750476D01*
X544440Y750621D01*
X544315Y750767D01*
X544308Y750773D01*
X544302Y750780D01*
X544150Y750896D01*
X543998Y751016D01*
X543990Y751020D01*
X543983Y751025D01*
X543687Y751177D01*
X539913Y752740D01*
X536840Y755813D01*
X535177Y759827D01*
X535177Y764173D01*
X536840Y768187D01*
X539913Y771260D01*
X543687Y772823D01*
X543695Y772828D01*
X543704Y772830D01*
X543872Y772922D01*
X544042Y773014D01*
X544049Y773019D01*
X544057Y773024D01*
X544203Y773147D01*
X544353Y773270D01*
X544358Y773277D01*
X544365Y773283D01*
X544485Y773433D01*
X544606Y773583D01*
X544611Y773591D01*
X544616Y773597D01*
X544704Y773769D01*
X544793Y773939D01*
X544796Y773948D01*
X544800Y773956D01*
X544852Y774140D01*
X544907Y774326D01*
X544907Y774334D01*
X544910Y774343D01*
X544925Y774534D01*
X544941Y774727D01*
X544940Y774736D01*
X544941Y774744D01*
X544918Y774935D01*
X544896Y775127D01*
X544893Y775135D01*
X544892Y775144D01*
X544832Y775327D01*
X544773Y775510D01*
X544769Y775518D01*
X544766Y775526D01*
X544670Y775694D01*
X544577Y775862D01*
X544571Y775868D01*
X544566Y775876D01*
X544440Y776021D01*
X544315Y776167D01*
X544308Y776173D01*
X544302Y776180D01*
X544150Y776297D01*
X543998Y776416D01*
X543990Y776420D01*
X543983Y776425D01*
X543687Y776577D01*
X539913Y778140D01*
X536840Y781213D01*
X535177Y785227D01*
X535177Y789573D01*
X536840Y793587D01*
X539913Y796660D01*
X543687Y798223D01*
X543695Y798228D01*
X543704Y798230D01*
X543872Y798322D01*
X544042Y798414D01*
X544049Y798419D01*
X544057Y798424D01*
X544203Y798547D01*
X544353Y798670D01*
X544358Y798677D01*
X544365Y798683D01*
X544485Y798833D01*
X544606Y798983D01*
X544611Y798991D01*
X544616Y798997D01*
X544704Y799169D01*
X544793Y799339D01*
X544796Y799348D01*
X544800Y799356D01*
X544853Y799541D01*
X544907Y799726D01*
X544907Y799734D01*
X544910Y799743D01*
X544924Y799933D01*
X544941Y800127D01*
X544940Y800136D01*
X544941Y800144D01*
X544917Y800337D01*
X544896Y800527D01*
X544893Y800535D01*
X544892Y800544D01*
X544831Y800729D01*
X544773Y800910D01*
X544769Y800918D01*
X544766Y800926D01*
X544670Y801094D01*
X544576Y801262D01*
X544571Y801268D01*
X544566Y801276D01*
X544440Y801421D01*
X544315Y801567D01*
X544308Y801573D01*
X544302Y801580D01*
X544149Y801697D01*
X543998Y801816D01*
X543990Y801820D01*
X543983Y801825D01*
X543687Y801977D01*
X539913Y803540D01*
X536840Y806613D01*
X535177Y810627D01*
X535177Y814973D01*
X536840Y818987D01*
X539913Y822060D01*
X543927Y823723D01*
X548273Y823723D01*
X552287Y822060D01*
X555360Y818987D01*
X557023Y814973D01*
X557023Y810627D01*
X555360Y806613D01*
X552287Y803540D01*
X548513Y801977D01*
X548505Y801972D01*
X548496Y801970D01*
X548327Y801877D01*
X548158Y801786D01*
X548151Y801781D01*
X548143Y801776D01*
X547995Y801652D01*
X547847Y801530D01*
X547842Y801523D01*
X547835Y801517D01*
X547715Y801366D01*
X547594Y801217D01*
X547589Y801210D01*
X547584Y801202D01*
X547497Y801032D01*
X547407Y800861D01*
X547404Y800852D01*
X547400Y800844D01*
X547348Y800662D01*
X547293Y800474D01*
X547293Y800465D01*
X547290Y800457D01*
X547275Y800266D01*
X547259Y800073D01*
X547260Y800064D01*
X547259Y800056D01*
X547282Y799865D01*
X547304Y799673D01*
X547307Y799665D01*
X547308Y799656D01*
X547368Y799475D01*
X547427Y799290D01*
X547432Y799282D01*
X547434Y799274D01*
X547529Y799108D01*
X547624Y798938D01*
X547629Y798932D01*
X547634Y798924D01*
X547761Y798778D01*
X547885Y798633D01*
X547892Y798627D01*
X547898Y798620D01*
X548051Y798503D01*
X548202Y798384D01*
X548210Y798380D01*
X548217Y798375D01*
X548513Y798223D01*
X552287Y796660D01*
X555360Y793587D01*
X557023Y789573D01*
X557023Y785227D01*
X555360Y781213D01*
X552287Y778140D01*
X548513Y776577D01*
X548505Y776572D01*
X548496Y776570D01*
X548327Y776477D01*
X548158Y776386D01*
X548151Y776381D01*
X548143Y776376D01*
X547995Y776252D01*
X547847Y776130D01*
X547842Y776123D01*
X547835Y776117D01*
X547715Y775967D01*
X547594Y775817D01*
X547589Y775809D01*
X547584Y775802D01*
X547497Y775633D01*
X547406Y775461D01*
X547404Y775452D01*
X547400Y775444D01*
X547348Y775262D01*
X547293Y775074D01*
X547293Y775065D01*
X547290Y775057D01*
X547275Y774866D01*
X547259Y774673D01*
X547260Y774664D01*
X547259Y774656D01*
X547282Y774465D01*
X547304Y774273D01*
X547307Y774265D01*
X547308Y774256D01*
X547368Y774074D01*
X547427Y773890D01*
X547432Y773882D01*
X547434Y773874D01*
X547530Y773706D01*
X547623Y773538D01*
X547629Y773532D01*
X547634Y773524D01*
X547761Y773378D01*
X547885Y773233D01*
X547892Y773227D01*
X547898Y773220D01*
X548050Y773103D01*
X548202Y772984D01*
X548210Y772980D01*
X548217Y772975D01*
X548513Y772823D01*
X552287Y771260D01*
X555360Y768187D01*
X557023Y764173D01*
X557023Y759827D01*
X555360Y755813D01*
X552287Y752740D01*
X549074Y751409D01*
X549073Y751409D01*
X548513Y751177D01*
X548505Y751172D01*
X548496Y751170D01*
X548327Y751077D01*
X548158Y750986D01*
X548151Y750981D01*
X548143Y750976D01*
X547995Y750852D01*
X547847Y750730D01*
X547842Y750723D01*
X547835Y750717D01*
X547715Y750567D01*
X547594Y750417D01*
X547589Y750409D01*
X547584Y750402D01*
X547497Y750233D01*
X547406Y750061D01*
X547404Y750052D01*
X547400Y750044D01*
X547348Y749862D01*
X547293Y749674D01*
X547293Y749665D01*
X547290Y749657D01*
X547275Y749466D01*
X547259Y749273D01*
X547260Y749264D01*
X547259Y749256D01*
X547282Y749065D01*
X547304Y748873D01*
X547307Y748865D01*
X547308Y748856D01*
X547368Y748673D01*
X547427Y748490D01*
X547432Y748482D01*
X547434Y748474D01*
X547530Y748306D01*
X547623Y748138D01*
X547629Y748132D01*
X547634Y748124D01*
X547761Y747978D01*
X547885Y747833D01*
X547892Y747827D01*
X547898Y747820D01*
X548050Y747703D01*
X548202Y747584D01*
X548210Y747580D01*
X548217Y747575D01*
X548513Y747423D01*
X552287Y745860D01*
X555360Y742787D01*
X557023Y738773D01*
X557023Y734427D01*
X555360Y730413D01*
X552287Y727340D01*
X548273Y725677D01*
X543927Y725677D01*
G37*
%LPD*%
%LPC*%
G36*
X428712Y290349D02*
X428712Y290349D01*
X426762Y291157D01*
X425269Y292650D01*
X424461Y294600D01*
X424461Y296712D01*
X425269Y298662D01*
X426886Y300279D01*
X426903Y300300D01*
X426924Y300317D01*
X427031Y300455D01*
X427141Y300591D01*
X427154Y300614D01*
X427170Y300635D01*
X427248Y300792D01*
X427330Y300946D01*
X427338Y300972D01*
X427350Y300996D01*
X427395Y301165D01*
X427445Y301332D01*
X427447Y301359D01*
X427454Y301385D01*
X427481Y301715D01*
X427481Y381947D01*
X469981Y424447D01*
X469992Y424461D01*
X470006Y424472D01*
X470120Y424616D01*
X470236Y424758D01*
X470244Y424774D01*
X470255Y424788D01*
X470339Y424953D01*
X470425Y425114D01*
X470430Y425131D01*
X470438Y425147D01*
X470487Y425325D01*
X470539Y425500D01*
X470541Y425518D01*
X470546Y425535D01*
X470559Y425718D01*
X470576Y425901D01*
X470574Y425919D01*
X470575Y425936D01*
X470552Y426118D01*
X470532Y426301D01*
X470527Y426318D01*
X470525Y426336D01*
X470466Y426509D01*
X470411Y426685D01*
X470402Y426701D01*
X470396Y426718D01*
X470305Y426877D01*
X470216Y427037D01*
X470204Y427051D01*
X470196Y427066D01*
X469981Y427319D01*
X469605Y427695D01*
X468367Y430683D01*
X468367Y433917D01*
X469605Y436905D01*
X471891Y439191D01*
X474879Y440429D01*
X491321Y440429D01*
X494309Y439191D01*
X496595Y436905D01*
X497833Y433917D01*
X497833Y430683D01*
X496595Y427695D01*
X494309Y425409D01*
X491321Y424171D01*
X477015Y424171D01*
X476988Y424169D01*
X476961Y424171D01*
X476787Y424149D01*
X476614Y424131D01*
X476588Y424124D01*
X476562Y424120D01*
X476396Y424065D01*
X476229Y424013D01*
X476205Y424000D01*
X476180Y423992D01*
X476028Y423905D01*
X475875Y423821D01*
X475855Y423804D01*
X475831Y423791D01*
X475578Y423576D01*
X432650Y380648D01*
X432633Y380627D01*
X432612Y380610D01*
X432505Y380472D01*
X432395Y380336D01*
X432382Y380313D01*
X432366Y380291D01*
X432288Y380135D01*
X432206Y379981D01*
X432198Y379955D01*
X432186Y379931D01*
X432141Y379762D01*
X432091Y379595D01*
X432089Y379568D01*
X432082Y379542D01*
X432055Y379211D01*
X432055Y301715D01*
X432057Y301689D01*
X432055Y301662D01*
X432077Y301488D01*
X432095Y301315D01*
X432102Y301289D01*
X432106Y301263D01*
X432162Y301097D01*
X432213Y300930D01*
X432226Y300906D01*
X432234Y300881D01*
X432321Y300730D01*
X432405Y300576D01*
X432422Y300555D01*
X432435Y300532D01*
X432650Y300279D01*
X434267Y298662D01*
X435075Y296712D01*
X435075Y294600D01*
X434267Y292650D01*
X432774Y291157D01*
X430824Y290349D01*
X428712Y290349D01*
G37*
%LPD*%
%LPC*%
G36*
X342758Y561306D02*
X342758Y561306D01*
X342740Y561308D01*
X342723Y561312D01*
X342392Y561339D01*
X331215Y561339D01*
X331255Y561596D01*
X331836Y563383D01*
X332689Y565057D01*
X333794Y566578D01*
X335122Y567906D01*
X336643Y569011D01*
X338317Y569864D01*
X339049Y570102D01*
X339131Y570138D01*
X339215Y570164D01*
X339314Y570218D01*
X339418Y570264D01*
X339491Y570315D01*
X339568Y570357D01*
X339655Y570430D01*
X339747Y570495D01*
X339809Y570559D01*
X339877Y570616D01*
X339947Y570705D01*
X340025Y570787D01*
X340072Y570862D01*
X340128Y570931D01*
X340179Y571032D01*
X340239Y571127D01*
X340271Y571210D01*
X340311Y571289D01*
X340342Y571398D01*
X340382Y571504D01*
X340397Y571592D01*
X340421Y571677D01*
X340430Y571789D01*
X340448Y571901D01*
X340445Y571990D01*
X340452Y572078D01*
X340439Y572190D01*
X340435Y572303D01*
X340414Y572390D01*
X340404Y572478D01*
X340368Y572585D01*
X340342Y572695D01*
X340305Y572776D01*
X340277Y572860D01*
X340221Y572958D01*
X340174Y573061D01*
X340122Y573133D01*
X340078Y573210D01*
X340003Y573295D01*
X339937Y573386D01*
X339872Y573446D01*
X339813Y573513D01*
X339724Y573582D01*
X339640Y573659D01*
X339564Y573705D01*
X339494Y573759D01*
X339368Y573823D01*
X339296Y573867D01*
X339253Y573883D01*
X339199Y573910D01*
X336713Y574940D01*
X333640Y578013D01*
X331977Y582027D01*
X331977Y586373D01*
X333640Y590387D01*
X336713Y593460D01*
X340487Y595023D01*
X340495Y595028D01*
X340504Y595030D01*
X340673Y595123D01*
X340842Y595214D01*
X340849Y595219D01*
X340857Y595224D01*
X341005Y595348D01*
X341153Y595470D01*
X341158Y595477D01*
X341165Y595483D01*
X341285Y595633D01*
X341406Y595783D01*
X341411Y595791D01*
X341416Y595798D01*
X341503Y595967D01*
X341594Y596139D01*
X341596Y596148D01*
X341600Y596156D01*
X341652Y596338D01*
X341707Y596526D01*
X341707Y596535D01*
X341710Y596543D01*
X341725Y596733D01*
X341741Y596927D01*
X341740Y596936D01*
X341741Y596944D01*
X341718Y597135D01*
X341696Y597327D01*
X341693Y597335D01*
X341692Y597344D01*
X341632Y597526D01*
X341573Y597710D01*
X341568Y597718D01*
X341566Y597726D01*
X341471Y597892D01*
X341377Y598062D01*
X341371Y598068D01*
X341366Y598076D01*
X341239Y598222D01*
X341115Y598367D01*
X341108Y598373D01*
X341102Y598380D01*
X340950Y598497D01*
X340798Y598616D01*
X340790Y598620D01*
X340783Y598625D01*
X340487Y598777D01*
X336713Y600340D01*
X333640Y603413D01*
X331977Y607427D01*
X331977Y611773D01*
X333640Y615787D01*
X336713Y618860D01*
X340727Y620523D01*
X345073Y620523D01*
X349087Y618860D01*
X352160Y615787D01*
X353823Y611773D01*
X353823Y607427D01*
X352160Y603413D01*
X349087Y600340D01*
X345313Y598777D01*
X345305Y598772D01*
X345296Y598770D01*
X345128Y598678D01*
X344958Y598586D01*
X344951Y598581D01*
X344943Y598576D01*
X344797Y598453D01*
X344647Y598330D01*
X344642Y598323D01*
X344635Y598317D01*
X344515Y598167D01*
X344394Y598017D01*
X344389Y598009D01*
X344384Y598003D01*
X344296Y597831D01*
X344207Y597661D01*
X344204Y597652D01*
X344200Y597644D01*
X344148Y597460D01*
X344093Y597274D01*
X344093Y597266D01*
X344090Y597257D01*
X344075Y597066D01*
X344059Y596873D01*
X344060Y596864D01*
X344059Y596856D01*
X344082Y596665D01*
X344104Y596473D01*
X344107Y596465D01*
X344108Y596456D01*
X344168Y596272D01*
X344227Y596090D01*
X344231Y596082D01*
X344234Y596074D01*
X344330Y595906D01*
X344423Y595738D01*
X344429Y595732D01*
X344434Y595724D01*
X344560Y595579D01*
X344685Y595433D01*
X344692Y595427D01*
X344698Y595420D01*
X344850Y595303D01*
X345002Y595184D01*
X345010Y595180D01*
X345017Y595175D01*
X345313Y595023D01*
X349087Y593460D01*
X352160Y590387D01*
X353823Y586373D01*
X353823Y582027D01*
X352160Y578013D01*
X349087Y574940D01*
X348484Y574690D01*
X346601Y573910D01*
X346523Y573868D01*
X346440Y573835D01*
X346346Y573774D01*
X346246Y573720D01*
X346178Y573664D01*
X346104Y573615D01*
X346023Y573536D01*
X345936Y573464D01*
X345880Y573395D01*
X345817Y573333D01*
X345753Y573239D01*
X345682Y573151D01*
X345641Y573073D01*
X345591Y572999D01*
X345548Y572895D01*
X345495Y572795D01*
X345470Y572710D01*
X345436Y572628D01*
X345414Y572517D01*
X345382Y572408D01*
X345374Y572320D01*
X345357Y572233D01*
X345357Y572120D01*
X345347Y572007D01*
X345357Y571919D01*
X345357Y571830D01*
X345380Y571719D01*
X345393Y571607D01*
X345420Y571522D01*
X345437Y571436D01*
X345481Y571331D01*
X345516Y571224D01*
X345559Y571146D01*
X345593Y571064D01*
X345657Y570971D01*
X345712Y570872D01*
X345770Y570805D01*
X345820Y570731D01*
X345900Y570652D01*
X345974Y570566D01*
X346044Y570512D01*
X346107Y570450D01*
X346202Y570388D01*
X346291Y570318D01*
X346370Y570278D01*
X346445Y570230D01*
X346575Y570175D01*
X346651Y570137D01*
X346695Y570125D01*
X346751Y570102D01*
X347483Y569864D01*
X349157Y569011D01*
X350678Y567906D01*
X352006Y566578D01*
X353111Y565057D01*
X353964Y563383D01*
X354545Y561596D01*
X354585Y561339D01*
X343408Y561339D01*
X343390Y561337D01*
X343373Y561339D01*
X343190Y561318D01*
X343008Y561299D01*
X342991Y561294D01*
X342973Y561292D01*
X342895Y561267D01*
X342758Y561306D01*
G37*
%LPD*%
%LPC*%
G36*
X728379Y347471D02*
X728379Y347471D01*
X725391Y348709D01*
X723105Y350995D01*
X721867Y353983D01*
X721867Y357217D01*
X723105Y360205D01*
X725391Y362491D01*
X728379Y363729D01*
X744821Y363729D01*
X747809Y362491D01*
X750095Y360205D01*
X750115Y360157D01*
X750126Y360137D01*
X750132Y360116D01*
X750221Y359959D01*
X750305Y359802D01*
X750319Y359785D01*
X750330Y359765D01*
X750447Y359630D01*
X750562Y359491D01*
X750579Y359477D01*
X750594Y359460D01*
X750735Y359351D01*
X750874Y359238D01*
X750894Y359227D01*
X750912Y359214D01*
X751072Y359134D01*
X751231Y359051D01*
X751252Y359044D01*
X751272Y359034D01*
X751446Y358988D01*
X751617Y358938D01*
X751639Y358936D01*
X751661Y358930D01*
X751992Y358903D01*
X778366Y358903D01*
X778392Y358905D01*
X778419Y358903D01*
X778593Y358925D01*
X778766Y358943D01*
X778792Y358950D01*
X778818Y358954D01*
X778984Y359010D01*
X779151Y359061D01*
X779175Y359074D01*
X779200Y359082D01*
X779352Y359169D01*
X779505Y359253D01*
X779526Y359270D01*
X779549Y359283D01*
X779802Y359498D01*
X784033Y363729D01*
X790767Y363729D01*
X795529Y358967D01*
X795529Y352233D01*
X790767Y347471D01*
X784033Y347471D01*
X779271Y352233D01*
X779271Y352298D01*
X779269Y352316D01*
X779271Y352334D01*
X779250Y352516D01*
X779231Y352699D01*
X779226Y352716D01*
X779224Y352733D01*
X779167Y352908D01*
X779113Y353084D01*
X779105Y353099D01*
X779099Y353116D01*
X779009Y353276D01*
X778921Y353438D01*
X778910Y353451D01*
X778901Y353467D01*
X778781Y353606D01*
X778664Y353747D01*
X778650Y353758D01*
X778638Y353772D01*
X778493Y353884D01*
X778350Y353999D01*
X778334Y354007D01*
X778320Y354018D01*
X778155Y354100D01*
X777993Y354185D01*
X777976Y354190D01*
X777960Y354198D01*
X777781Y354245D01*
X777606Y354296D01*
X777588Y354298D01*
X777571Y354302D01*
X777240Y354329D01*
X752833Y354329D01*
X752811Y354327D01*
X752789Y354329D01*
X752611Y354307D01*
X752433Y354289D01*
X752411Y354283D01*
X752389Y354280D01*
X752220Y354224D01*
X752048Y354171D01*
X752028Y354161D01*
X752007Y354154D01*
X751851Y354065D01*
X751694Y353979D01*
X751677Y353965D01*
X751657Y353954D01*
X751521Y353836D01*
X751385Y353722D01*
X751371Y353704D01*
X751354Y353690D01*
X751244Y353548D01*
X751132Y353408D01*
X751122Y353388D01*
X751108Y353370D01*
X750957Y353075D01*
X750095Y350995D01*
X747809Y348709D01*
X744821Y347471D01*
X728379Y347471D01*
G37*
%LPD*%
%LPC*%
G36*
X66777Y186515D02*
X66777Y186515D01*
X63445Y187895D01*
X60895Y190445D01*
X59515Y193777D01*
X59515Y197383D01*
X60920Y200773D01*
X60926Y200795D01*
X60936Y200814D01*
X60984Y200987D01*
X61036Y201159D01*
X61038Y201181D01*
X61044Y201202D01*
X61057Y201381D01*
X61074Y201559D01*
X61072Y201582D01*
X61073Y201604D01*
X61051Y201783D01*
X61032Y201960D01*
X61026Y201981D01*
X61023Y202003D01*
X60966Y202174D01*
X60913Y202344D01*
X60902Y202364D01*
X60895Y202385D01*
X60805Y202541D01*
X60719Y202697D01*
X60705Y202714D01*
X60694Y202734D01*
X60479Y202987D01*
X46481Y216985D01*
X46481Y262164D01*
X46479Y262191D01*
X46481Y262218D01*
X46459Y262392D01*
X46441Y262565D01*
X46434Y262591D01*
X46430Y262617D01*
X46375Y262783D01*
X46323Y262950D01*
X46310Y262974D01*
X46302Y262999D01*
X46215Y263151D01*
X46131Y263304D01*
X46114Y263325D01*
X46101Y263348D01*
X45886Y263601D01*
X44269Y265218D01*
X43461Y267168D01*
X43461Y269280D01*
X44269Y271230D01*
X45762Y272723D01*
X47712Y273531D01*
X49824Y273531D01*
X51774Y272723D01*
X53267Y271230D01*
X54075Y269280D01*
X54075Y267168D01*
X53267Y265218D01*
X51650Y263601D01*
X51633Y263580D01*
X51612Y263563D01*
X51505Y263425D01*
X51395Y263289D01*
X51382Y263266D01*
X51366Y263245D01*
X51288Y263088D01*
X51206Y262934D01*
X51198Y262908D01*
X51186Y262884D01*
X51141Y262715D01*
X51091Y262548D01*
X51089Y262521D01*
X51082Y262495D01*
X51055Y262164D01*
X51055Y219721D01*
X51057Y219694D01*
X51055Y219667D01*
X51077Y219493D01*
X51095Y219320D01*
X51102Y219294D01*
X51106Y219268D01*
X51161Y219102D01*
X51213Y218935D01*
X51226Y218911D01*
X51234Y218886D01*
X51321Y218734D01*
X51405Y218581D01*
X51422Y218561D01*
X51435Y218537D01*
X51650Y218284D01*
X64765Y205169D01*
X64783Y205155D01*
X64797Y205138D01*
X64938Y205027D01*
X65077Y204914D01*
X65096Y204903D01*
X65114Y204889D01*
X65274Y204809D01*
X65432Y204725D01*
X65454Y204719D01*
X65474Y204709D01*
X65646Y204661D01*
X65818Y204610D01*
X65841Y204608D01*
X65862Y204602D01*
X66040Y204590D01*
X66219Y204574D01*
X66242Y204576D01*
X66264Y204575D01*
X66440Y204598D01*
X66620Y204617D01*
X66641Y204624D01*
X66663Y204627D01*
X66719Y204645D01*
X70383Y204645D01*
X73715Y203265D01*
X76265Y200715D01*
X77645Y197383D01*
X77645Y193777D01*
X76265Y190445D01*
X73715Y187895D01*
X70881Y186721D01*
X70383Y186515D01*
X66777Y186515D01*
G37*
%LPD*%
%LPC*%
G36*
X27798Y618456D02*
X27798Y618456D01*
X27780Y618458D01*
X27763Y618462D01*
X27432Y618489D01*
X16255Y618489D01*
X16295Y618746D01*
X16876Y620533D01*
X17729Y622207D01*
X18834Y623728D01*
X20162Y625056D01*
X21683Y626161D01*
X23357Y627014D01*
X24089Y627252D01*
X24171Y627288D01*
X24255Y627314D01*
X24354Y627368D01*
X24458Y627414D01*
X24531Y627465D01*
X24608Y627507D01*
X24695Y627580D01*
X24787Y627645D01*
X24849Y627709D01*
X24917Y627766D01*
X24987Y627855D01*
X25065Y627937D01*
X25112Y628012D01*
X25168Y628081D01*
X25219Y628182D01*
X25279Y628277D01*
X25311Y628360D01*
X25351Y628439D01*
X25382Y628548D01*
X25422Y628654D01*
X25437Y628741D01*
X25461Y628827D01*
X25470Y628939D01*
X25488Y629051D01*
X25485Y629140D01*
X25492Y629228D01*
X25479Y629340D01*
X25475Y629453D01*
X25454Y629540D01*
X25444Y629628D01*
X25408Y629735D01*
X25382Y629845D01*
X25345Y629926D01*
X25317Y630010D01*
X25261Y630108D01*
X25214Y630211D01*
X25162Y630283D01*
X25118Y630360D01*
X25044Y630445D01*
X24977Y630536D01*
X24911Y630596D01*
X24853Y630663D01*
X24764Y630732D01*
X24680Y630809D01*
X24604Y630855D01*
X24534Y630909D01*
X24408Y630973D01*
X24336Y631017D01*
X24293Y631033D01*
X24239Y631060D01*
X21753Y632090D01*
X18680Y635163D01*
X17017Y639177D01*
X17017Y643523D01*
X18680Y647537D01*
X21753Y650610D01*
X25767Y652273D01*
X30113Y652273D01*
X34127Y650610D01*
X37200Y647537D01*
X38863Y643523D01*
X38863Y639177D01*
X37200Y635163D01*
X34127Y632090D01*
X32860Y631565D01*
X31641Y631060D01*
X31563Y631018D01*
X31480Y630985D01*
X31386Y630923D01*
X31286Y630870D01*
X31218Y630814D01*
X31143Y630765D01*
X31063Y630686D01*
X30976Y630614D01*
X30920Y630545D01*
X30857Y630482D01*
X30793Y630389D01*
X30722Y630301D01*
X30681Y630223D01*
X30631Y630149D01*
X30588Y630045D01*
X30535Y629945D01*
X30510Y629859D01*
X30476Y629777D01*
X30454Y629667D01*
X30422Y629558D01*
X30414Y629470D01*
X30397Y629383D01*
X30397Y629269D01*
X30387Y629157D01*
X30397Y629069D01*
X30397Y628980D01*
X30420Y628869D01*
X30433Y628757D01*
X30460Y628672D01*
X30477Y628585D01*
X30521Y628481D01*
X30556Y628374D01*
X30599Y628296D01*
X30633Y628214D01*
X30697Y628121D01*
X30752Y628022D01*
X30810Y627955D01*
X30860Y627881D01*
X30940Y627802D01*
X31014Y627716D01*
X31084Y627662D01*
X31147Y627599D01*
X31242Y627538D01*
X31331Y627468D01*
X31410Y627428D01*
X31485Y627380D01*
X31615Y627325D01*
X31691Y627287D01*
X31735Y627275D01*
X31791Y627252D01*
X32523Y627014D01*
X34197Y626161D01*
X35718Y625056D01*
X37046Y623728D01*
X38151Y622207D01*
X39004Y620533D01*
X39585Y618746D01*
X39625Y618489D01*
X28448Y618489D01*
X28430Y618487D01*
X28413Y618489D01*
X28230Y618468D01*
X28048Y618449D01*
X28031Y618444D01*
X28013Y618442D01*
X27935Y618417D01*
X27798Y618456D01*
G37*
%LPD*%
%LPC*%
G36*
X101967Y782827D02*
X101967Y782827D01*
X97953Y784490D01*
X94880Y787563D01*
X93217Y791577D01*
X93217Y795923D01*
X94880Y799937D01*
X97953Y803010D01*
X100439Y804040D01*
X100517Y804082D01*
X100600Y804115D01*
X100694Y804177D01*
X100794Y804230D01*
X100862Y804286D01*
X100937Y804335D01*
X101017Y804414D01*
X101104Y804486D01*
X101160Y804555D01*
X101223Y804618D01*
X101287Y804711D01*
X101358Y804799D01*
X101399Y804877D01*
X101449Y804951D01*
X101492Y805055D01*
X101545Y805155D01*
X101570Y805241D01*
X101604Y805323D01*
X101626Y805433D01*
X101658Y805542D01*
X101666Y805630D01*
X101683Y805717D01*
X101683Y805831D01*
X101693Y805943D01*
X101683Y806031D01*
X101683Y806120D01*
X101660Y806231D01*
X101647Y806343D01*
X101620Y806428D01*
X101603Y806515D01*
X101559Y806619D01*
X101524Y806726D01*
X101481Y806804D01*
X101447Y806886D01*
X101383Y806979D01*
X101328Y807078D01*
X101270Y807145D01*
X101220Y807219D01*
X101140Y807298D01*
X101066Y807384D01*
X100996Y807438D01*
X100933Y807501D01*
X100838Y807562D01*
X100749Y807632D01*
X100670Y807672D01*
X100595Y807720D01*
X100465Y807775D01*
X100389Y807813D01*
X100345Y807825D01*
X100289Y807848D01*
X99557Y808086D01*
X97883Y808939D01*
X96362Y810044D01*
X95034Y811372D01*
X93929Y812893D01*
X93076Y814567D01*
X92495Y816354D01*
X92455Y816611D01*
X103632Y816611D01*
X103650Y816612D01*
X103667Y816611D01*
X103850Y816632D01*
X104032Y816651D01*
X104049Y816656D01*
X104067Y816658D01*
X104145Y816683D01*
X104282Y816644D01*
X104300Y816642D01*
X104317Y816638D01*
X104648Y816611D01*
X115825Y816611D01*
X115785Y816354D01*
X115204Y814567D01*
X114351Y812893D01*
X113246Y811372D01*
X111918Y810044D01*
X110397Y808939D01*
X108723Y808086D01*
X107991Y807848D01*
X107909Y807812D01*
X107825Y807786D01*
X107726Y807732D01*
X107622Y807686D01*
X107549Y807635D01*
X107472Y807593D01*
X107385Y807520D01*
X107293Y807455D01*
X107231Y807391D01*
X107163Y807334D01*
X107093Y807245D01*
X107015Y807163D01*
X106968Y807088D01*
X106912Y807019D01*
X106861Y806918D01*
X106801Y806823D01*
X106769Y806740D01*
X106729Y806661D01*
X106698Y806552D01*
X106658Y806446D01*
X106643Y806359D01*
X106619Y806273D01*
X106610Y806161D01*
X106592Y806049D01*
X106595Y805960D01*
X106588Y805872D01*
X106601Y805760D01*
X106605Y805647D01*
X106626Y805560D01*
X106636Y805472D01*
X106672Y805365D01*
X106698Y805255D01*
X106735Y805174D01*
X106763Y805090D01*
X106819Y804992D01*
X106866Y804889D01*
X106918Y804817D01*
X106962Y804740D01*
X107036Y804655D01*
X107103Y804564D01*
X107169Y804504D01*
X107227Y804437D01*
X107316Y804368D01*
X107400Y804291D01*
X107476Y804245D01*
X107546Y804191D01*
X107672Y804127D01*
X107744Y804083D01*
X107787Y804067D01*
X107841Y804040D01*
X110327Y803010D01*
X113400Y799937D01*
X115063Y795923D01*
X115063Y791577D01*
X113400Y787563D01*
X110327Y784490D01*
X106313Y782827D01*
X101967Y782827D01*
G37*
%LPD*%
%LPC*%
G36*
X733233Y200151D02*
X733233Y200151D01*
X728471Y204913D01*
X728471Y211647D01*
X732558Y215734D01*
X732569Y215748D01*
X732583Y215759D01*
X732696Y215903D01*
X732813Y216045D01*
X732821Y216061D01*
X732832Y216075D01*
X732916Y216239D01*
X733002Y216401D01*
X733007Y216418D01*
X733015Y216434D01*
X733064Y216611D01*
X733116Y216787D01*
X733118Y216805D01*
X733123Y216822D01*
X733136Y217005D01*
X733153Y217188D01*
X733151Y217206D01*
X733152Y217223D01*
X733129Y217405D01*
X733109Y217588D01*
X733104Y217605D01*
X733102Y217623D01*
X733043Y217797D01*
X732988Y217972D01*
X732979Y217988D01*
X732974Y218004D01*
X732882Y218164D01*
X732793Y218324D01*
X732782Y218338D01*
X732773Y218353D01*
X732558Y218606D01*
X728471Y222693D01*
X728471Y229427D01*
X733233Y234189D01*
X739967Y234189D01*
X744729Y229427D01*
X744729Y222693D01*
X740642Y218606D01*
X740631Y218593D01*
X740617Y218581D01*
X740503Y218437D01*
X740387Y218295D01*
X740379Y218279D01*
X740368Y218265D01*
X740284Y218101D01*
X740198Y217939D01*
X740193Y217922D01*
X740185Y217906D01*
X740136Y217729D01*
X740084Y217553D01*
X740082Y217535D01*
X740077Y217518D01*
X740064Y217335D01*
X740047Y217152D01*
X740049Y217134D01*
X740048Y217117D01*
X740071Y216935D01*
X740091Y216752D01*
X740096Y216735D01*
X740098Y216717D01*
X740156Y216544D01*
X740212Y216368D01*
X740221Y216352D01*
X740226Y216336D01*
X740318Y216176D01*
X740407Y216016D01*
X740418Y216002D01*
X740427Y215987D01*
X740642Y215734D01*
X744729Y211647D01*
X744729Y204913D01*
X739967Y200151D01*
X733233Y200151D01*
G37*
%LPD*%
%LPC*%
G36*
X728379Y398271D02*
X728379Y398271D01*
X725391Y399509D01*
X723105Y401795D01*
X721867Y404783D01*
X721867Y408017D01*
X723105Y411005D01*
X725391Y413291D01*
X728379Y414529D01*
X744821Y414529D01*
X747809Y413291D01*
X750095Y411005D01*
X751333Y408017D01*
X751333Y404783D01*
X750095Y401795D01*
X747809Y399509D01*
X744821Y398271D01*
X728379Y398271D01*
G37*
%LPD*%
%LPC*%
G36*
X652179Y322071D02*
X652179Y322071D01*
X649191Y323309D01*
X646905Y325595D01*
X645667Y328583D01*
X645667Y331817D01*
X646905Y334805D01*
X649191Y337091D01*
X652179Y338329D01*
X668621Y338329D01*
X671609Y337091D01*
X673895Y334805D01*
X675133Y331817D01*
X675133Y328583D01*
X673895Y325595D01*
X671609Y323309D01*
X668621Y322071D01*
X652179Y322071D01*
G37*
%LPD*%
%LPC*%
G36*
X398679Y322571D02*
X398679Y322571D01*
X395691Y323809D01*
X393405Y326095D01*
X392167Y329083D01*
X392167Y332317D01*
X393405Y335305D01*
X395691Y337591D01*
X398679Y338829D01*
X415121Y338829D01*
X418109Y337591D01*
X420395Y335305D01*
X421633Y332317D01*
X421633Y329083D01*
X420395Y326095D01*
X418109Y323809D01*
X415121Y322571D01*
X398679Y322571D01*
G37*
%LPD*%
%LPC*%
G36*
X652179Y398271D02*
X652179Y398271D01*
X649191Y399509D01*
X646905Y401795D01*
X645667Y404783D01*
X645667Y408017D01*
X646905Y411005D01*
X649191Y413291D01*
X652179Y414529D01*
X668621Y414529D01*
X671609Y413291D01*
X673895Y411005D01*
X675133Y408017D01*
X675133Y404783D01*
X673895Y401795D01*
X671609Y399509D01*
X668621Y398271D01*
X652179Y398271D01*
G37*
%LPD*%
%LPC*%
G36*
X398679Y398771D02*
X398679Y398771D01*
X395691Y400009D01*
X393405Y402295D01*
X392167Y405283D01*
X392167Y408517D01*
X393405Y411505D01*
X395691Y413791D01*
X398679Y415029D01*
X415121Y415029D01*
X418109Y413791D01*
X420395Y411505D01*
X421633Y408517D01*
X421633Y405283D01*
X420395Y402295D01*
X418109Y400009D01*
X415121Y398771D01*
X398679Y398771D01*
G37*
%LPD*%
%LPC*%
G36*
X474879Y347971D02*
X474879Y347971D01*
X471891Y349209D01*
X469605Y351495D01*
X468367Y354483D01*
X468367Y357717D01*
X469605Y360705D01*
X471891Y362991D01*
X474879Y364229D01*
X491321Y364229D01*
X494309Y362991D01*
X496595Y360705D01*
X497833Y357717D01*
X497833Y354483D01*
X496595Y351495D01*
X494309Y349209D01*
X491321Y347971D01*
X474879Y347971D01*
G37*
%LPD*%
%LPC*%
G36*
X474879Y322571D02*
X474879Y322571D01*
X471891Y323809D01*
X469605Y326095D01*
X468367Y329083D01*
X468367Y332317D01*
X469605Y335305D01*
X471891Y337591D01*
X474879Y338829D01*
X491321Y338829D01*
X494309Y337591D01*
X496595Y335305D01*
X497833Y332317D01*
X497833Y329083D01*
X496595Y326095D01*
X494309Y323809D01*
X491321Y322571D01*
X474879Y322571D01*
G37*
%LPD*%
%LPC*%
G36*
X652179Y347471D02*
X652179Y347471D01*
X649191Y348709D01*
X646905Y350995D01*
X645667Y353983D01*
X645667Y357217D01*
X646905Y360205D01*
X649191Y362491D01*
X652179Y363729D01*
X668621Y363729D01*
X671609Y362491D01*
X673895Y360205D01*
X675133Y357217D01*
X675133Y353983D01*
X673895Y350995D01*
X671609Y348709D01*
X668621Y347471D01*
X652179Y347471D01*
G37*
%LPD*%
%LPC*%
G36*
X652179Y499871D02*
X652179Y499871D01*
X649191Y501109D01*
X646905Y503395D01*
X645667Y506383D01*
X645667Y509617D01*
X646905Y512605D01*
X649191Y514891D01*
X652179Y516129D01*
X668621Y516129D01*
X671609Y514891D01*
X673895Y512605D01*
X675133Y509617D01*
X675133Y506383D01*
X673895Y503395D01*
X671609Y501109D01*
X668621Y499871D01*
X652179Y499871D01*
G37*
%LPD*%
%LPC*%
G36*
X728379Y499871D02*
X728379Y499871D01*
X725391Y501109D01*
X723105Y503395D01*
X721867Y506383D01*
X721867Y509617D01*
X723105Y512605D01*
X725391Y514891D01*
X728379Y516129D01*
X744821Y516129D01*
X747809Y514891D01*
X750095Y512605D01*
X751333Y509617D01*
X751333Y506383D01*
X750095Y503395D01*
X747809Y501109D01*
X744821Y499871D01*
X728379Y499871D01*
G37*
%LPD*%
%LPC*%
G36*
X398679Y500371D02*
X398679Y500371D01*
X395691Y501609D01*
X393405Y503895D01*
X392167Y506883D01*
X392167Y510117D01*
X393405Y513105D01*
X395691Y515391D01*
X398679Y516629D01*
X415121Y516629D01*
X418109Y515391D01*
X420395Y513105D01*
X421633Y510117D01*
X421633Y506883D01*
X420395Y503895D01*
X418109Y501609D01*
X415121Y500371D01*
X398679Y500371D01*
G37*
%LPD*%
%LPC*%
G36*
X474879Y500371D02*
X474879Y500371D01*
X471891Y501609D01*
X469605Y503895D01*
X468367Y506883D01*
X468367Y510117D01*
X469605Y513105D01*
X471891Y515391D01*
X474879Y516629D01*
X491321Y516629D01*
X494309Y515391D01*
X496595Y513105D01*
X497833Y510117D01*
X497833Y506883D01*
X496595Y503895D01*
X494309Y501609D01*
X491321Y500371D01*
X474879Y500371D01*
G37*
%LPD*%
%LPC*%
G36*
X398679Y347971D02*
X398679Y347971D01*
X395691Y349209D01*
X393405Y351495D01*
X392167Y354483D01*
X392167Y357717D01*
X393405Y360705D01*
X395691Y362991D01*
X398679Y364229D01*
X415121Y364229D01*
X418109Y362991D01*
X420395Y360705D01*
X421633Y357717D01*
X421633Y354483D01*
X420395Y351495D01*
X418109Y349209D01*
X415121Y347971D01*
X398679Y347971D01*
G37*
%LPD*%
%LPC*%
G36*
X398679Y525771D02*
X398679Y525771D01*
X395691Y527009D01*
X393405Y529295D01*
X392167Y532283D01*
X392167Y535517D01*
X393405Y538505D01*
X395691Y540791D01*
X398679Y542029D01*
X415121Y542029D01*
X418109Y540791D01*
X420395Y538505D01*
X421633Y535517D01*
X421633Y532283D01*
X420395Y529295D01*
X418109Y527009D01*
X415121Y525771D01*
X398679Y525771D01*
G37*
%LPD*%
%LPC*%
G36*
X474879Y525771D02*
X474879Y525771D01*
X471891Y527009D01*
X469605Y529295D01*
X468367Y532283D01*
X468367Y535517D01*
X469605Y538505D01*
X471891Y540791D01*
X474879Y542029D01*
X491321Y542029D01*
X494309Y540791D01*
X496595Y538505D01*
X497833Y535517D01*
X497833Y532283D01*
X496595Y529295D01*
X494309Y527009D01*
X491321Y525771D01*
X474879Y525771D01*
G37*
%LPD*%
%LPC*%
G36*
X728379Y601471D02*
X728379Y601471D01*
X725391Y602709D01*
X723105Y604995D01*
X721867Y607983D01*
X721867Y611217D01*
X723105Y614205D01*
X725391Y616491D01*
X728379Y617729D01*
X744821Y617729D01*
X747809Y616491D01*
X750095Y614205D01*
X751333Y611217D01*
X751333Y607983D01*
X750095Y604995D01*
X747809Y602709D01*
X744821Y601471D01*
X728379Y601471D01*
G37*
%LPD*%
%LPC*%
G36*
X652179Y550671D02*
X652179Y550671D01*
X649191Y551909D01*
X646905Y554195D01*
X645667Y557183D01*
X645667Y560417D01*
X646905Y563405D01*
X649191Y565691D01*
X652179Y566929D01*
X668621Y566929D01*
X671609Y565691D01*
X673895Y563405D01*
X675133Y560417D01*
X675133Y557183D01*
X673895Y554195D01*
X671609Y551909D01*
X668621Y550671D01*
X652179Y550671D01*
G37*
%LPD*%
%LPC*%
G36*
X652179Y296671D02*
X652179Y296671D01*
X649191Y297909D01*
X646905Y300195D01*
X645667Y303183D01*
X645667Y306417D01*
X646905Y309405D01*
X649191Y311691D01*
X652179Y312929D01*
X668621Y312929D01*
X671609Y311691D01*
X673895Y309405D01*
X675133Y306417D01*
X675133Y303183D01*
X673895Y300195D01*
X671609Y297909D01*
X668621Y296671D01*
X652179Y296671D01*
G37*
%LPD*%
%LPC*%
G36*
X728379Y550671D02*
X728379Y550671D01*
X725391Y551909D01*
X723105Y554195D01*
X721867Y557183D01*
X721867Y560417D01*
X723105Y563405D01*
X725391Y565691D01*
X728379Y566929D01*
X744821Y566929D01*
X747809Y565691D01*
X750095Y563405D01*
X751333Y560417D01*
X751333Y557183D01*
X750095Y554195D01*
X747809Y551909D01*
X744821Y550671D01*
X728379Y550671D01*
G37*
%LPD*%
%LPC*%
G36*
X652179Y601471D02*
X652179Y601471D01*
X649191Y602709D01*
X646905Y604995D01*
X645667Y607983D01*
X645667Y611217D01*
X646905Y614205D01*
X649191Y616491D01*
X652179Y617729D01*
X668621Y617729D01*
X671609Y616491D01*
X673895Y614205D01*
X675133Y611217D01*
X675133Y607983D01*
X673895Y604995D01*
X671609Y602709D01*
X668621Y601471D01*
X652179Y601471D01*
G37*
%LPD*%
%LPC*%
G36*
X398679Y297171D02*
X398679Y297171D01*
X395691Y298409D01*
X393405Y300695D01*
X392167Y303683D01*
X392167Y306917D01*
X393405Y309905D01*
X395691Y312191D01*
X398679Y313429D01*
X415121Y313429D01*
X418109Y312191D01*
X420395Y309905D01*
X421633Y306917D01*
X421633Y303683D01*
X420395Y300695D01*
X418109Y298409D01*
X415121Y297171D01*
X398679Y297171D01*
G37*
%LPD*%
%LPC*%
G36*
X474879Y398771D02*
X474879Y398771D01*
X471891Y400009D01*
X469605Y402295D01*
X468367Y405283D01*
X468367Y408517D01*
X469605Y411505D01*
X471891Y413791D01*
X474879Y415029D01*
X491321Y415029D01*
X494309Y413791D01*
X496595Y411505D01*
X497833Y408517D01*
X497833Y405283D01*
X496595Y402295D01*
X494309Y400009D01*
X491321Y398771D01*
X474879Y398771D01*
G37*
%LPD*%
%LPC*%
G36*
X652179Y474471D02*
X652179Y474471D01*
X649191Y475709D01*
X646905Y477995D01*
X645667Y480983D01*
X645667Y484217D01*
X646905Y487205D01*
X649191Y489491D01*
X649680Y489694D01*
X652179Y490729D01*
X668621Y490729D01*
X671609Y489491D01*
X673895Y487205D01*
X675133Y484217D01*
X675133Y480983D01*
X673895Y477995D01*
X671609Y475709D01*
X668621Y474471D01*
X652179Y474471D01*
G37*
%LPD*%
%LPC*%
G36*
X728379Y474471D02*
X728379Y474471D01*
X725391Y475709D01*
X723105Y477995D01*
X721867Y480983D01*
X721867Y484217D01*
X723105Y487205D01*
X725391Y489491D01*
X725880Y489694D01*
X728379Y490729D01*
X744821Y490729D01*
X747809Y489491D01*
X750095Y487205D01*
X751333Y484217D01*
X751333Y480983D01*
X750095Y477995D01*
X747809Y475709D01*
X744821Y474471D01*
X728379Y474471D01*
G37*
%LPD*%
%LPC*%
G36*
X652179Y271271D02*
X652179Y271271D01*
X649191Y272509D01*
X646905Y274795D01*
X645667Y277783D01*
X645667Y281017D01*
X646905Y284005D01*
X649191Y286291D01*
X649861Y286569D01*
X649862Y286569D01*
X652179Y287529D01*
X668621Y287529D01*
X671609Y286291D01*
X673895Y284005D01*
X675133Y281017D01*
X675133Y277783D01*
X673895Y274795D01*
X671609Y272509D01*
X668621Y271271D01*
X652179Y271271D01*
G37*
%LPD*%
%LPC*%
G36*
X728379Y372871D02*
X728379Y372871D01*
X725391Y374109D01*
X723105Y376395D01*
X721867Y379383D01*
X721867Y382617D01*
X723105Y385605D01*
X725391Y387891D01*
X725971Y388131D01*
X728379Y389129D01*
X744821Y389129D01*
X747809Y387891D01*
X750095Y385605D01*
X751333Y382617D01*
X751333Y379383D01*
X750095Y376395D01*
X747809Y374109D01*
X744821Y372871D01*
X728379Y372871D01*
G37*
%LPD*%
%LPC*%
G36*
X728379Y525271D02*
X728379Y525271D01*
X725391Y526509D01*
X723105Y528795D01*
X721867Y531783D01*
X721867Y535017D01*
X723105Y538005D01*
X725391Y540291D01*
X728379Y541529D01*
X744821Y541529D01*
X747809Y540291D01*
X750095Y538005D01*
X751333Y535017D01*
X751333Y531783D01*
X750095Y528795D01*
X747809Y526509D01*
X746436Y525940D01*
X744821Y525271D01*
X728379Y525271D01*
G37*
%LPD*%
%LPC*%
G36*
X652179Y525271D02*
X652179Y525271D01*
X649191Y526509D01*
X646905Y528795D01*
X645667Y531783D01*
X645667Y535017D01*
X646905Y538005D01*
X649191Y540291D01*
X652179Y541529D01*
X668621Y541529D01*
X671609Y540291D01*
X673895Y538005D01*
X675133Y535017D01*
X675133Y531783D01*
X673895Y528795D01*
X671609Y526509D01*
X670236Y525940D01*
X668621Y525271D01*
X652179Y525271D01*
G37*
%LPD*%
%LPC*%
G36*
X398679Y271771D02*
X398679Y271771D01*
X395691Y273009D01*
X393405Y275295D01*
X392167Y278283D01*
X392167Y281517D01*
X393405Y284505D01*
X395691Y286791D01*
X398679Y288029D01*
X415121Y288029D01*
X418109Y286791D01*
X420395Y284505D01*
X421633Y281517D01*
X421633Y278283D01*
X420395Y275295D01*
X418109Y273009D01*
X415755Y272034D01*
X415121Y271771D01*
X398679Y271771D01*
G37*
%LPD*%
%LPC*%
G36*
X728379Y449071D02*
X728379Y449071D01*
X725391Y450309D01*
X723105Y452595D01*
X721867Y455583D01*
X721867Y458817D01*
X723105Y461805D01*
X725391Y464091D01*
X728355Y465319D01*
X728379Y465329D01*
X744821Y465329D01*
X747809Y464091D01*
X750095Y461805D01*
X751333Y458817D01*
X751333Y455583D01*
X750095Y452595D01*
X747809Y450309D01*
X744821Y449071D01*
X728379Y449071D01*
G37*
%LPD*%
%LPC*%
G36*
X652179Y449071D02*
X652179Y449071D01*
X649191Y450309D01*
X646905Y452595D01*
X645667Y455583D01*
X645667Y458817D01*
X646905Y461805D01*
X649191Y464091D01*
X652155Y465319D01*
X652179Y465329D01*
X668621Y465329D01*
X671609Y464091D01*
X673895Y461805D01*
X675133Y458817D01*
X675133Y455583D01*
X673895Y452595D01*
X671609Y450309D01*
X668621Y449071D01*
X652179Y449071D01*
G37*
%LPD*%
%LPC*%
G36*
X474879Y449571D02*
X474879Y449571D01*
X471891Y450809D01*
X469605Y453095D01*
X468367Y456083D01*
X468367Y459317D01*
X469605Y462305D01*
X471891Y464591D01*
X473648Y465319D01*
X474879Y465829D01*
X491321Y465829D01*
X494309Y464591D01*
X496595Y462305D01*
X497833Y459317D01*
X497833Y456083D01*
X496595Y453095D01*
X494309Y450809D01*
X491321Y449571D01*
X474879Y449571D01*
G37*
%LPD*%
%LPC*%
G36*
X398679Y449571D02*
X398679Y449571D01*
X395691Y450809D01*
X393405Y453095D01*
X392167Y456083D01*
X392167Y459317D01*
X393405Y462305D01*
X395691Y464591D01*
X397448Y465319D01*
X398679Y465829D01*
X415121Y465829D01*
X418109Y464591D01*
X420395Y462305D01*
X421633Y459317D01*
X421633Y456083D01*
X420395Y453095D01*
X418109Y450809D01*
X415121Y449571D01*
X398679Y449571D01*
G37*
%LPD*%
%LPC*%
G36*
X398679Y551171D02*
X398679Y551171D01*
X395691Y552409D01*
X393405Y554695D01*
X392167Y557683D01*
X392167Y560917D01*
X393405Y563905D01*
X395691Y566191D01*
X397357Y566881D01*
X398679Y567429D01*
X415121Y567429D01*
X418109Y566191D01*
X420395Y563905D01*
X421633Y560917D01*
X421633Y557683D01*
X420395Y554695D01*
X418109Y552409D01*
X415121Y551171D01*
X398679Y551171D01*
G37*
%LPD*%
%LPC*%
G36*
X474879Y551171D02*
X474879Y551171D01*
X471891Y552409D01*
X469605Y554695D01*
X468367Y557683D01*
X468367Y560917D01*
X469605Y563905D01*
X471891Y566191D01*
X473557Y566881D01*
X474879Y567429D01*
X491321Y567429D01*
X494309Y566191D01*
X496595Y563905D01*
X497833Y560917D01*
X497833Y557683D01*
X496595Y554695D01*
X494309Y552409D01*
X491321Y551171D01*
X474879Y551171D01*
G37*
%LPD*%
%LPC*%
G36*
X728379Y423671D02*
X728379Y423671D01*
X725391Y424909D01*
X723105Y427195D01*
X721867Y430183D01*
X721867Y433417D01*
X723105Y436405D01*
X725391Y438691D01*
X728379Y439929D01*
X744821Y439929D01*
X747809Y438691D01*
X750095Y436405D01*
X751333Y433417D01*
X751333Y430183D01*
X750095Y427195D01*
X747809Y424909D01*
X746527Y424378D01*
X746526Y424378D01*
X744821Y423671D01*
X728379Y423671D01*
G37*
%LPD*%
%LPC*%
G36*
X652179Y423671D02*
X652179Y423671D01*
X649191Y424909D01*
X646905Y427195D01*
X645667Y430183D01*
X645667Y433417D01*
X646905Y436405D01*
X649191Y438691D01*
X652179Y439929D01*
X668621Y439929D01*
X671609Y438691D01*
X673895Y436405D01*
X675133Y433417D01*
X675133Y430183D01*
X673895Y427195D01*
X671609Y424909D01*
X670327Y424378D01*
X670326Y424378D01*
X668621Y423671D01*
X652179Y423671D01*
G37*
%LPD*%
%LPC*%
G36*
X728379Y576071D02*
X728379Y576071D01*
X725391Y577309D01*
X723105Y579595D01*
X721867Y582583D01*
X721867Y585817D01*
X723105Y588805D01*
X725391Y591091D01*
X725790Y591256D01*
X728379Y592329D01*
X744821Y592329D01*
X747809Y591091D01*
X750095Y588805D01*
X751333Y585817D01*
X751333Y582583D01*
X750095Y579595D01*
X747809Y577309D01*
X744821Y576071D01*
X728379Y576071D01*
G37*
%LPD*%
%LPC*%
G36*
X652179Y576071D02*
X652179Y576071D01*
X649191Y577309D01*
X646905Y579595D01*
X645667Y582583D01*
X645667Y585817D01*
X646905Y588805D01*
X649191Y591091D01*
X649590Y591256D01*
X652179Y592329D01*
X668621Y592329D01*
X671609Y591091D01*
X673895Y588805D01*
X675133Y585817D01*
X675133Y582583D01*
X673895Y579595D01*
X671609Y577309D01*
X668621Y576071D01*
X652179Y576071D01*
G37*
%LPD*%
%LPC*%
G36*
X474879Y601971D02*
X474879Y601971D01*
X471891Y603209D01*
X469605Y605495D01*
X468367Y608483D01*
X468367Y611717D01*
X469605Y614705D01*
X471891Y616991D01*
X474879Y618229D01*
X491321Y618229D01*
X494309Y616991D01*
X496595Y614705D01*
X497833Y611717D01*
X497833Y608483D01*
X496595Y605495D01*
X494309Y603209D01*
X494113Y603128D01*
X491321Y601971D01*
X474879Y601971D01*
G37*
%LPD*%
%LPC*%
G36*
X398679Y601971D02*
X398679Y601971D01*
X395691Y603209D01*
X393405Y605495D01*
X392167Y608483D01*
X392167Y611717D01*
X393405Y614705D01*
X395691Y616991D01*
X398679Y618229D01*
X415121Y618229D01*
X418109Y616991D01*
X420395Y614705D01*
X421633Y611717D01*
X421633Y608483D01*
X420395Y605495D01*
X418109Y603209D01*
X417913Y603128D01*
X415121Y601971D01*
X398679Y601971D01*
G37*
%LPD*%
%LPC*%
G36*
X474879Y474971D02*
X474879Y474971D01*
X471891Y476209D01*
X469605Y478495D01*
X468367Y481483D01*
X468367Y484717D01*
X469605Y487705D01*
X471891Y489991D01*
X474879Y491229D01*
X491321Y491229D01*
X494309Y489991D01*
X496595Y487705D01*
X497833Y484717D01*
X497833Y481483D01*
X496595Y478495D01*
X494309Y476209D01*
X491774Y475159D01*
X491321Y474971D01*
X474879Y474971D01*
G37*
%LPD*%
%LPC*%
G36*
X398679Y373371D02*
X398679Y373371D01*
X395691Y374609D01*
X393405Y376895D01*
X392167Y379883D01*
X392167Y383117D01*
X393405Y386105D01*
X395691Y388391D01*
X398679Y389629D01*
X415121Y389629D01*
X418109Y388391D01*
X420395Y386105D01*
X421633Y383117D01*
X421633Y379883D01*
X420395Y376895D01*
X418109Y374609D01*
X415665Y373596D01*
X415121Y373371D01*
X398679Y373371D01*
G37*
%LPD*%
%LPC*%
G36*
X66777Y161115D02*
X66777Y161115D01*
X63445Y162495D01*
X60895Y165045D01*
X59515Y168377D01*
X59515Y172058D01*
X59548Y172166D01*
X59550Y172189D01*
X59556Y172210D01*
X59569Y172390D01*
X59586Y172567D01*
X59584Y172589D01*
X59586Y172612D01*
X59563Y172790D01*
X59545Y172968D01*
X59538Y172989D01*
X59535Y173011D01*
X59478Y173181D01*
X59425Y173352D01*
X59414Y173372D01*
X59407Y173393D01*
X59317Y173548D01*
X59232Y173705D01*
X59217Y173722D01*
X59206Y173742D01*
X58991Y173995D01*
X51436Y181550D01*
X51415Y181567D01*
X51398Y181588D01*
X51260Y181695D01*
X51124Y181805D01*
X51101Y181818D01*
X51079Y181834D01*
X50923Y181912D01*
X50769Y181994D01*
X50743Y182002D01*
X50719Y182014D01*
X50550Y182059D01*
X50383Y182109D01*
X50356Y182111D01*
X50330Y182118D01*
X49999Y182145D01*
X47712Y182145D01*
X45762Y182953D01*
X44269Y184446D01*
X43461Y186396D01*
X43461Y188508D01*
X44269Y190458D01*
X45762Y191951D01*
X47712Y192759D01*
X49824Y192759D01*
X51774Y191951D01*
X53267Y190458D01*
X54075Y188508D01*
X54075Y186221D01*
X54077Y186194D01*
X54075Y186167D01*
X54097Y185993D01*
X54115Y185820D01*
X54122Y185794D01*
X54126Y185768D01*
X54181Y185602D01*
X54233Y185435D01*
X54246Y185411D01*
X54254Y185386D01*
X54341Y185235D01*
X54425Y185081D01*
X54442Y185061D01*
X54455Y185037D01*
X54670Y184784D01*
X61173Y178281D01*
X61190Y178267D01*
X61205Y178250D01*
X61346Y178139D01*
X61485Y178026D01*
X61504Y178015D01*
X61522Y178002D01*
X61682Y177921D01*
X61840Y177837D01*
X61862Y177831D01*
X61882Y177821D01*
X62054Y177773D01*
X62226Y177722D01*
X62248Y177720D01*
X62270Y177714D01*
X62449Y177702D01*
X62627Y177686D01*
X62649Y177688D01*
X62672Y177687D01*
X62849Y177710D01*
X63027Y177729D01*
X63049Y177736D01*
X63071Y177739D01*
X63387Y177840D01*
X66777Y179245D01*
X70383Y179245D01*
X73715Y177865D01*
X76265Y175315D01*
X77645Y171983D01*
X77645Y168377D01*
X76265Y165045D01*
X73715Y162495D01*
X73356Y162346D01*
X73355Y162346D01*
X70383Y161115D01*
X66777Y161115D01*
G37*
%LPD*%
%LPC*%
G36*
X75667Y422735D02*
X75667Y422735D01*
X72335Y424115D01*
X69785Y426665D01*
X68405Y429997D01*
X68405Y433603D01*
X69785Y436935D01*
X72335Y439485D01*
X75667Y440865D01*
X79273Y440865D01*
X82605Y439485D01*
X82731Y439358D01*
X82745Y439347D01*
X82757Y439333D01*
X82901Y439219D01*
X83043Y439103D01*
X83059Y439095D01*
X83073Y439084D01*
X83237Y439000D01*
X83399Y438914D01*
X83416Y438909D01*
X83432Y438901D01*
X83609Y438852D01*
X83784Y438800D01*
X83802Y438798D01*
X83820Y438793D01*
X84003Y438780D01*
X84185Y438763D01*
X84203Y438765D01*
X84221Y438764D01*
X84403Y438787D01*
X84586Y438807D01*
X84603Y438812D01*
X84621Y438814D01*
X84795Y438873D01*
X84970Y438928D01*
X84985Y438937D01*
X85002Y438942D01*
X85162Y439034D01*
X85322Y439123D01*
X85336Y439134D01*
X85351Y439143D01*
X85604Y439358D01*
X91634Y445388D01*
X91651Y445409D01*
X91672Y445426D01*
X91779Y445564D01*
X91889Y445700D01*
X91902Y445723D01*
X91918Y445745D01*
X91996Y445901D01*
X92078Y446055D01*
X92086Y446081D01*
X92098Y446105D01*
X92143Y446274D01*
X92193Y446441D01*
X92195Y446468D01*
X92202Y446494D01*
X92229Y446825D01*
X92229Y449112D01*
X93037Y451062D01*
X94530Y452555D01*
X95921Y453131D01*
X95922Y453131D01*
X96480Y453363D01*
X98592Y453363D01*
X100542Y452555D01*
X102035Y451062D01*
X102843Y449112D01*
X102843Y447000D01*
X102035Y445050D01*
X100542Y443557D01*
X98592Y442749D01*
X96305Y442749D01*
X96278Y442747D01*
X96251Y442749D01*
X96077Y442727D01*
X95904Y442709D01*
X95878Y442702D01*
X95852Y442698D01*
X95686Y442643D01*
X95519Y442591D01*
X95495Y442578D01*
X95470Y442570D01*
X95318Y442483D01*
X95165Y442399D01*
X95145Y442382D01*
X95121Y442369D01*
X94868Y442154D01*
X87130Y434416D01*
X87113Y434395D01*
X87092Y434378D01*
X86985Y434240D01*
X86875Y434104D01*
X86862Y434081D01*
X86846Y434059D01*
X86768Y433903D01*
X86686Y433749D01*
X86678Y433723D01*
X86666Y433699D01*
X86621Y433530D01*
X86571Y433363D01*
X86569Y433336D01*
X86562Y433310D01*
X86535Y432979D01*
X86535Y429997D01*
X85155Y426665D01*
X82605Y424115D01*
X79273Y422735D01*
X75667Y422735D01*
G37*
%LPD*%
%LPC*%
G36*
X602347Y400557D02*
X602347Y400557D01*
X598333Y402220D01*
X595260Y405293D01*
X593597Y409307D01*
X593597Y413653D01*
X595260Y417667D01*
X598333Y420740D01*
X602347Y422403D01*
X606693Y422403D01*
X610707Y420740D01*
X613780Y417667D01*
X615443Y413653D01*
X615443Y409307D01*
X613780Y405293D01*
X610707Y402220D01*
X610258Y402034D01*
X606693Y400557D01*
X602347Y400557D01*
G37*
%LPD*%
%LPC*%
G36*
X602347Y438657D02*
X602347Y438657D01*
X598333Y440320D01*
X595260Y443393D01*
X593597Y447407D01*
X593597Y451753D01*
X595260Y455767D01*
X598333Y458840D01*
X602347Y460503D01*
X606693Y460503D01*
X610707Y458840D01*
X613780Y455767D01*
X615443Y451753D01*
X615443Y447407D01*
X613780Y443393D01*
X610707Y440320D01*
X606693Y438657D01*
X602347Y438657D01*
G37*
%LPD*%
%LPC*%
G36*
X602347Y552957D02*
X602347Y552957D01*
X598333Y554620D01*
X595260Y557693D01*
X593597Y561707D01*
X593597Y566053D01*
X595260Y570067D01*
X598333Y573140D01*
X602347Y574803D01*
X606693Y574803D01*
X610707Y573140D01*
X613780Y570067D01*
X615443Y566053D01*
X615443Y561707D01*
X613780Y557693D01*
X610707Y554620D01*
X606693Y552957D01*
X602347Y552957D01*
G37*
%LPD*%
%LPC*%
G36*
X797927Y611377D02*
X797927Y611377D01*
X793913Y613040D01*
X790840Y616113D01*
X789177Y620127D01*
X789177Y624473D01*
X790840Y628487D01*
X793913Y631560D01*
X797927Y633223D01*
X802273Y633223D01*
X806287Y631560D01*
X809360Y628487D01*
X811023Y624473D01*
X811023Y620127D01*
X809360Y616113D01*
X806287Y613040D01*
X802273Y611377D01*
X797927Y611377D01*
G37*
%LPD*%
%LPC*%
G36*
X797927Y573277D02*
X797927Y573277D01*
X793913Y574940D01*
X790840Y578013D01*
X789177Y582027D01*
X789177Y586373D01*
X790840Y590387D01*
X793913Y593460D01*
X797927Y595123D01*
X802273Y595123D01*
X806287Y593460D01*
X809360Y590387D01*
X811023Y586373D01*
X811023Y582027D01*
X809360Y578013D01*
X806287Y574940D01*
X805684Y574690D01*
X802273Y573277D01*
X797927Y573277D01*
G37*
%LPD*%
%LPC*%
G36*
X148957Y83057D02*
X148957Y83057D01*
X144943Y84720D01*
X141870Y87793D01*
X140207Y91807D01*
X140207Y96153D01*
X141870Y100167D01*
X144943Y103240D01*
X146189Y103756D01*
X146190Y103756D01*
X148957Y104903D01*
X153303Y104903D01*
X157317Y103240D01*
X160390Y100167D01*
X162053Y96153D01*
X162053Y91807D01*
X160390Y87793D01*
X157317Y84720D01*
X153303Y83057D01*
X148957Y83057D01*
G37*
%LPD*%
%LPC*%
G36*
X148957Y210057D02*
X148957Y210057D01*
X144943Y211720D01*
X141870Y214793D01*
X140207Y218807D01*
X140207Y223153D01*
X141870Y227167D01*
X144943Y230240D01*
X148957Y231903D01*
X153303Y231903D01*
X157317Y230240D01*
X160390Y227167D01*
X162053Y223153D01*
X162053Y218807D01*
X160390Y214793D01*
X157317Y211720D01*
X155812Y211096D01*
X155811Y211096D01*
X153303Y210057D01*
X148957Y210057D01*
G37*
%LPD*%
%LPC*%
G36*
X602347Y592327D02*
X602347Y592327D01*
X598333Y593990D01*
X595260Y597063D01*
X593597Y601077D01*
X593597Y605423D01*
X595260Y609437D01*
X598333Y612510D01*
X600965Y613600D01*
X602347Y614173D01*
X606693Y614173D01*
X610707Y612510D01*
X613780Y609437D01*
X615443Y605423D01*
X615443Y601077D01*
X613780Y597063D01*
X610707Y593990D01*
X606693Y592327D01*
X602347Y592327D01*
G37*
%LPD*%
%LPC*%
G36*
X602347Y514857D02*
X602347Y514857D01*
X598333Y516520D01*
X595260Y519593D01*
X593597Y523607D01*
X593597Y527953D01*
X595260Y531967D01*
X598333Y535040D01*
X602347Y536703D01*
X606693Y536703D01*
X610707Y535040D01*
X613780Y531967D01*
X615443Y527953D01*
X615443Y523607D01*
X613780Y519593D01*
X610707Y516520D01*
X608930Y515784D01*
X606693Y514857D01*
X602347Y514857D01*
G37*
%LPD*%
%LPC*%
G36*
X797927Y535177D02*
X797927Y535177D01*
X793913Y536840D01*
X790840Y539913D01*
X789177Y543927D01*
X789177Y548273D01*
X790840Y552287D01*
X793913Y555360D01*
X797208Y556725D01*
X797209Y556725D01*
X797927Y557023D01*
X802273Y557023D01*
X806287Y555360D01*
X809360Y552287D01*
X811023Y548273D01*
X811023Y543927D01*
X809360Y539913D01*
X806287Y536840D01*
X802273Y535177D01*
X797927Y535177D01*
G37*
%LPD*%
%LPC*%
G36*
X602347Y362457D02*
X602347Y362457D01*
X598333Y364120D01*
X595260Y367193D01*
X593597Y371207D01*
X593597Y375553D01*
X595260Y379567D01*
X598333Y382640D01*
X601782Y384069D01*
X601783Y384069D01*
X602347Y384303D01*
X606693Y384303D01*
X610707Y382640D01*
X613780Y379567D01*
X615443Y375553D01*
X615443Y371207D01*
X613780Y367193D01*
X610707Y364120D01*
X606693Y362457D01*
X602347Y362457D01*
G37*
%LPD*%
%LPC*%
G36*
X602347Y476757D02*
X602347Y476757D01*
X598333Y478420D01*
X595260Y481493D01*
X593597Y485507D01*
X593597Y489853D01*
X595260Y493867D01*
X598333Y496940D01*
X600455Y497819D01*
X602347Y498603D01*
X606693Y498603D01*
X610707Y496940D01*
X613780Y493867D01*
X615443Y489853D01*
X615443Y485507D01*
X613780Y481493D01*
X610707Y478420D01*
X606693Y476757D01*
X602347Y476757D01*
G37*
%LPD*%
%LPC*%
G36*
X32117Y57657D02*
X32117Y57657D01*
X28103Y59320D01*
X25030Y62393D01*
X23367Y66407D01*
X23367Y70753D01*
X25030Y74767D01*
X28103Y77840D01*
X31824Y79381D01*
X32117Y79503D01*
X36463Y79503D01*
X40477Y77840D01*
X43550Y74767D01*
X45213Y70753D01*
X45213Y66407D01*
X43550Y62393D01*
X40477Y59320D01*
X36463Y57657D01*
X32117Y57657D01*
G37*
%LPD*%
%LPC*%
G36*
X46422Y847220D02*
X46422Y847220D01*
X42416Y848880D01*
X39350Y851946D01*
X37690Y855952D01*
X37690Y860288D01*
X39350Y864294D01*
X42416Y867360D01*
X46422Y869020D01*
X50758Y869020D01*
X54764Y867360D01*
X57830Y864294D01*
X59490Y860288D01*
X59490Y855952D01*
X57830Y851946D01*
X54764Y848880D01*
X50758Y847220D01*
X46422Y847220D01*
G37*
%LPD*%
%LPC*%
G36*
X46422Y797220D02*
X46422Y797220D01*
X42416Y798880D01*
X39350Y801946D01*
X37690Y805952D01*
X37690Y810288D01*
X39350Y814294D01*
X42416Y817360D01*
X45786Y818756D01*
X46422Y819020D01*
X50758Y819020D01*
X54764Y817360D01*
X57830Y814294D01*
X59490Y810288D01*
X59490Y805952D01*
X57830Y801946D01*
X54764Y798880D01*
X52949Y798128D01*
X50758Y797220D01*
X46422Y797220D01*
G37*
%LPD*%
%LPC*%
G36*
X66777Y262715D02*
X66777Y262715D01*
X63445Y264095D01*
X60895Y266645D01*
X59515Y269977D01*
X59515Y273583D01*
X60895Y276915D01*
X63445Y279465D01*
X66777Y280845D01*
X70383Y280845D01*
X73715Y279465D01*
X76265Y276915D01*
X77645Y273583D01*
X77645Y269977D01*
X76265Y266645D01*
X73715Y264095D01*
X73265Y263909D01*
X70383Y262715D01*
X66777Y262715D01*
G37*
%LPD*%
%LPC*%
G36*
X582397Y829135D02*
X582397Y829135D01*
X579065Y830515D01*
X576515Y833065D01*
X575135Y836397D01*
X575135Y840003D01*
X576515Y843335D01*
X579065Y845885D01*
X582397Y847265D01*
X586003Y847265D01*
X589335Y845885D01*
X591885Y843335D01*
X593265Y840003D01*
X593265Y836397D01*
X591885Y833065D01*
X589335Y830515D01*
X586003Y829135D01*
X582397Y829135D01*
G37*
%LPD*%
%LPC*%
G36*
X66777Y211915D02*
X66777Y211915D01*
X63445Y213295D01*
X60895Y215845D01*
X59515Y219177D01*
X59515Y222783D01*
X60895Y226115D01*
X63445Y228665D01*
X66777Y230045D01*
X70383Y230045D01*
X73715Y228665D01*
X76265Y226115D01*
X77645Y222783D01*
X77645Y219177D01*
X76265Y215845D01*
X73715Y213295D01*
X70383Y211915D01*
X66777Y211915D01*
G37*
%LPD*%
%LPC*%
G36*
X658597Y829135D02*
X658597Y829135D01*
X655265Y830515D01*
X652715Y833065D01*
X651335Y836397D01*
X651335Y840003D01*
X652715Y843335D01*
X655265Y845885D01*
X658597Y847265D01*
X662203Y847265D01*
X665535Y845885D01*
X668085Y843335D01*
X669465Y840003D01*
X669465Y836397D01*
X668085Y833065D01*
X665535Y830515D01*
X662203Y829135D01*
X658597Y829135D01*
G37*
%LPD*%
%LPC*%
G36*
X658597Y727535D02*
X658597Y727535D01*
X655265Y728915D01*
X652715Y731465D01*
X651335Y734797D01*
X651335Y738403D01*
X652715Y741735D01*
X655265Y744285D01*
X658597Y745665D01*
X662203Y745665D01*
X665535Y744285D01*
X668085Y741735D01*
X669465Y738403D01*
X669465Y734797D01*
X668085Y731465D01*
X665535Y728915D01*
X662203Y727535D01*
X658597Y727535D01*
G37*
%LPD*%
%LPC*%
G36*
X66777Y84915D02*
X66777Y84915D01*
X63445Y86295D01*
X60895Y88845D01*
X59515Y92177D01*
X59515Y95783D01*
X60895Y99115D01*
X63445Y101665D01*
X66777Y103045D01*
X70383Y103045D01*
X73715Y101665D01*
X76265Y99115D01*
X77645Y95783D01*
X77645Y92177D01*
X76265Y88845D01*
X73715Y86295D01*
X70383Y84915D01*
X66777Y84915D01*
G37*
%LPD*%
%LPC*%
G36*
X658597Y752935D02*
X658597Y752935D01*
X655265Y754315D01*
X652715Y756865D01*
X651335Y760197D01*
X651335Y763803D01*
X652715Y767135D01*
X655265Y769685D01*
X658597Y771065D01*
X662203Y771065D01*
X665535Y769685D01*
X668085Y767135D01*
X669465Y763803D01*
X669465Y760197D01*
X668085Y756865D01*
X665535Y754315D01*
X662203Y752935D01*
X658597Y752935D01*
G37*
%LPD*%
%LPC*%
G36*
X66777Y110315D02*
X66777Y110315D01*
X63445Y111695D01*
X60895Y114245D01*
X59515Y117577D01*
X59515Y121183D01*
X60895Y124515D01*
X63445Y127065D01*
X66777Y128445D01*
X70383Y128445D01*
X73715Y127065D01*
X76265Y124515D01*
X77645Y121183D01*
X77645Y117577D01*
X76265Y114245D01*
X73715Y111695D01*
X70383Y110315D01*
X66777Y110315D01*
G37*
%LPD*%
%LPC*%
G36*
X92177Y110315D02*
X92177Y110315D01*
X88845Y111695D01*
X86295Y114245D01*
X84915Y117577D01*
X84915Y121183D01*
X86295Y124515D01*
X88845Y127065D01*
X92177Y128445D01*
X95783Y128445D01*
X99115Y127065D01*
X101665Y124515D01*
X103045Y121183D01*
X103045Y117577D01*
X101665Y114245D01*
X99115Y111695D01*
X95783Y110315D01*
X92177Y110315D01*
G37*
%LPD*%
%LPC*%
G36*
X92177Y84915D02*
X92177Y84915D01*
X88845Y86295D01*
X86295Y88845D01*
X84915Y92177D01*
X84915Y95783D01*
X86295Y99115D01*
X88845Y101665D01*
X92177Y103045D01*
X95783Y103045D01*
X99115Y101665D01*
X101665Y99115D01*
X103045Y95783D01*
X103045Y92177D01*
X101665Y88845D01*
X99115Y86295D01*
X95783Y84915D01*
X92177Y84915D01*
G37*
%LPD*%
%LPC*%
G36*
X75667Y448135D02*
X75667Y448135D01*
X72335Y449515D01*
X69785Y452065D01*
X68405Y455397D01*
X68405Y459003D01*
X69785Y462335D01*
X72335Y464885D01*
X75667Y466265D01*
X79273Y466265D01*
X82605Y464885D01*
X85155Y462335D01*
X86535Y459003D01*
X86535Y455397D01*
X85155Y452065D01*
X82605Y449515D01*
X79273Y448135D01*
X75667Y448135D01*
G37*
%LPD*%
%LPC*%
G36*
X341097Y639035D02*
X341097Y639035D01*
X337765Y640415D01*
X335215Y642965D01*
X333835Y646297D01*
X333835Y649903D01*
X335215Y653235D01*
X337765Y655785D01*
X341097Y657165D01*
X344703Y657165D01*
X348035Y655785D01*
X350585Y653235D01*
X351965Y649903D01*
X351965Y646297D01*
X350585Y642965D01*
X348035Y640415D01*
X344703Y639035D01*
X341097Y639035D01*
G37*
%LPD*%
%LPC*%
G36*
X75667Y371935D02*
X75667Y371935D01*
X72335Y373315D01*
X69785Y375865D01*
X68405Y379197D01*
X68405Y382803D01*
X69785Y386135D01*
X72335Y388685D01*
X75667Y390065D01*
X79273Y390065D01*
X82605Y388685D01*
X85155Y386135D01*
X86535Y382803D01*
X86535Y379197D01*
X85155Y375865D01*
X82605Y373315D01*
X79273Y371935D01*
X75667Y371935D01*
G37*
%LPD*%
%LPC*%
G36*
X582397Y752935D02*
X582397Y752935D01*
X579065Y754315D01*
X576515Y756865D01*
X575135Y760197D01*
X575135Y763803D01*
X576515Y767135D01*
X579065Y769685D01*
X582397Y771065D01*
X586003Y771065D01*
X589335Y769685D01*
X591885Y767135D01*
X593265Y763803D01*
X593265Y760197D01*
X591885Y756865D01*
X589335Y754315D01*
X586003Y752935D01*
X582397Y752935D01*
G37*
%LPD*%
%LPC*%
G36*
X75667Y473535D02*
X75667Y473535D01*
X72335Y474915D01*
X69785Y477465D01*
X68405Y480797D01*
X68405Y484403D01*
X69785Y487735D01*
X72335Y490285D01*
X75667Y491665D01*
X79273Y491665D01*
X82605Y490285D01*
X85155Y487735D01*
X86535Y484403D01*
X86535Y480797D01*
X85155Y477465D01*
X82605Y474915D01*
X79273Y473535D01*
X75667Y473535D01*
G37*
%LPD*%
%LPC*%
G36*
X582397Y727535D02*
X582397Y727535D01*
X579065Y728915D01*
X576515Y731465D01*
X575135Y734797D01*
X575135Y738403D01*
X576515Y741735D01*
X579065Y744285D01*
X582397Y745665D01*
X586003Y745665D01*
X589335Y744285D01*
X591885Y741735D01*
X593265Y738403D01*
X593265Y734797D01*
X591885Y731465D01*
X589335Y728915D01*
X586003Y727535D01*
X582397Y727535D01*
G37*
%LPD*%
%LPC*%
G36*
X66777Y34115D02*
X66777Y34115D01*
X63445Y35495D01*
X60895Y38045D01*
X59515Y41377D01*
X59515Y44983D01*
X60895Y48315D01*
X63445Y50865D01*
X63636Y50944D01*
X66777Y52245D01*
X70383Y52245D01*
X73715Y50865D01*
X76265Y48315D01*
X77645Y44983D01*
X77645Y41377D01*
X76265Y38045D01*
X73715Y35495D01*
X70383Y34115D01*
X66777Y34115D01*
G37*
%LPD*%
%LPC*%
G36*
X92177Y34115D02*
X92177Y34115D01*
X88845Y35495D01*
X86295Y38045D01*
X84915Y41377D01*
X84915Y44983D01*
X86295Y48315D01*
X88845Y50865D01*
X89036Y50944D01*
X92177Y52245D01*
X95783Y52245D01*
X99115Y50865D01*
X101665Y48315D01*
X103045Y44983D01*
X103045Y41377D01*
X101665Y38045D01*
X99115Y35495D01*
X95783Y34115D01*
X92177Y34115D01*
G37*
%LPD*%
%LPC*%
G36*
X92177Y161115D02*
X92177Y161115D01*
X88845Y162495D01*
X86295Y165045D01*
X84915Y168377D01*
X84915Y171983D01*
X86295Y175315D01*
X88845Y177865D01*
X92177Y179245D01*
X95783Y179245D01*
X99115Y177865D01*
X101665Y175315D01*
X103045Y171983D01*
X103045Y168377D01*
X101665Y165045D01*
X99115Y162495D01*
X98756Y162346D01*
X98755Y162346D01*
X95783Y161115D01*
X92177Y161115D01*
G37*
%LPD*%
%LPC*%
G36*
X658597Y702135D02*
X658597Y702135D01*
X655265Y703515D01*
X652715Y706065D01*
X651335Y709397D01*
X651335Y713003D01*
X652715Y716335D01*
X655265Y718885D01*
X656087Y719225D01*
X658597Y720265D01*
X662203Y720265D01*
X665535Y718885D01*
X668085Y716335D01*
X669465Y713003D01*
X669465Y709397D01*
X668085Y706065D01*
X665535Y703515D01*
X662203Y702135D01*
X658597Y702135D01*
G37*
%LPD*%
%LPC*%
G36*
X582397Y702135D02*
X582397Y702135D01*
X579065Y703515D01*
X576515Y706065D01*
X575135Y709397D01*
X575135Y713003D01*
X576515Y716335D01*
X579065Y718885D01*
X579887Y719225D01*
X582397Y720265D01*
X586003Y720265D01*
X589335Y718885D01*
X591885Y716335D01*
X593265Y713003D01*
X593265Y709397D01*
X591885Y706065D01*
X589335Y703515D01*
X586003Y702135D01*
X582397Y702135D01*
G37*
%LPD*%
%LPC*%
G36*
X75667Y397335D02*
X75667Y397335D01*
X72335Y398715D01*
X69785Y401265D01*
X68405Y404597D01*
X68405Y408203D01*
X69785Y411535D01*
X72335Y414085D01*
X75667Y415465D01*
X79273Y415465D01*
X82605Y414085D01*
X85155Y411535D01*
X86535Y408203D01*
X86535Y404597D01*
X85155Y401265D01*
X82605Y398715D01*
X80809Y397971D01*
X79273Y397335D01*
X75667Y397335D01*
G37*
%LPD*%
%LPC*%
G36*
X697097Y676735D02*
X697097Y676735D01*
X693765Y678115D01*
X691215Y680665D01*
X689835Y683997D01*
X689835Y687603D01*
X691215Y690935D01*
X693765Y693485D01*
X697061Y694850D01*
X697097Y694865D01*
X700703Y694865D01*
X704035Y693485D01*
X706585Y690935D01*
X707965Y687603D01*
X707965Y683997D01*
X706585Y680665D01*
X704035Y678115D01*
X700703Y676735D01*
X697097Y676735D01*
G37*
%LPD*%
%LPC*%
G36*
X92177Y186515D02*
X92177Y186515D01*
X88845Y187895D01*
X86295Y190445D01*
X84915Y193777D01*
X84915Y197383D01*
X86295Y200715D01*
X88845Y203265D01*
X92177Y204645D01*
X95783Y204645D01*
X99115Y203265D01*
X101665Y200715D01*
X103045Y197383D01*
X103045Y193777D01*
X101665Y190445D01*
X99115Y187895D01*
X96281Y186721D01*
X95783Y186515D01*
X92177Y186515D01*
G37*
%LPD*%
%LPC*%
G36*
X582397Y778335D02*
X582397Y778335D01*
X579065Y779715D01*
X576515Y782265D01*
X575135Y785597D01*
X575135Y789203D01*
X576515Y792535D01*
X579065Y795085D01*
X582271Y796412D01*
X582271Y796413D01*
X582397Y796465D01*
X586003Y796465D01*
X589335Y795085D01*
X591885Y792535D01*
X593265Y789203D01*
X593265Y785597D01*
X591885Y782265D01*
X589335Y779715D01*
X586003Y778335D01*
X582397Y778335D01*
G37*
%LPD*%
%LPC*%
G36*
X658597Y778335D02*
X658597Y778335D01*
X655265Y779715D01*
X652715Y782265D01*
X651335Y785597D01*
X651335Y789203D01*
X652715Y792535D01*
X655265Y795085D01*
X658471Y796412D01*
X658471Y796413D01*
X658597Y796465D01*
X662203Y796465D01*
X665535Y795085D01*
X668085Y792535D01*
X669465Y789203D01*
X669465Y785597D01*
X668085Y782265D01*
X665535Y779715D01*
X662203Y778335D01*
X658597Y778335D01*
G37*
%LPD*%
%LPC*%
G36*
X658597Y803735D02*
X658597Y803735D01*
X655265Y805115D01*
X652715Y807665D01*
X651335Y810997D01*
X651335Y814603D01*
X652715Y817935D01*
X655265Y820485D01*
X655996Y820787D01*
X655996Y820788D01*
X658597Y821865D01*
X662203Y821865D01*
X665535Y820485D01*
X668085Y817935D01*
X669465Y814603D01*
X669465Y810997D01*
X668085Y807665D01*
X665535Y805115D01*
X662203Y803735D01*
X658597Y803735D01*
G37*
%LPD*%
%LPC*%
G36*
X582397Y803735D02*
X582397Y803735D01*
X579065Y805115D01*
X576515Y807665D01*
X575135Y810997D01*
X575135Y814603D01*
X576515Y817935D01*
X579065Y820485D01*
X579796Y820787D01*
X579796Y820788D01*
X582397Y821865D01*
X586003Y821865D01*
X589335Y820485D01*
X591885Y817935D01*
X593265Y814603D01*
X593265Y810997D01*
X591885Y807665D01*
X589335Y805115D01*
X586003Y803735D01*
X582397Y803735D01*
G37*
%LPD*%
%LPC*%
G36*
X75667Y498935D02*
X75667Y498935D01*
X72335Y500315D01*
X69785Y502865D01*
X68405Y506197D01*
X68405Y509803D01*
X69785Y513135D01*
X72335Y515685D01*
X73338Y516100D01*
X75667Y517065D01*
X79273Y517065D01*
X82605Y515685D01*
X85155Y513135D01*
X86535Y509803D01*
X86535Y506197D01*
X85155Y502865D01*
X82605Y500315D01*
X80719Y499534D01*
X80718Y499534D01*
X79273Y498935D01*
X75667Y498935D01*
G37*
%LPD*%
%LPC*%
G36*
X92177Y59515D02*
X92177Y59515D01*
X88845Y60895D01*
X86295Y63445D01*
X84915Y66777D01*
X84915Y70383D01*
X86295Y73715D01*
X88845Y76265D01*
X92177Y77645D01*
X95783Y77645D01*
X99115Y76265D01*
X101665Y73715D01*
X103045Y70383D01*
X103045Y66777D01*
X101665Y63445D01*
X99115Y60895D01*
X98846Y60784D01*
X95783Y59515D01*
X92177Y59515D01*
G37*
%LPD*%
%LPC*%
G36*
X66777Y59515D02*
X66777Y59515D01*
X63445Y60895D01*
X60895Y63445D01*
X59515Y66777D01*
X59515Y70383D01*
X60895Y73715D01*
X63445Y76265D01*
X66777Y77645D01*
X70383Y77645D01*
X73715Y76265D01*
X76265Y73715D01*
X77645Y70383D01*
X77645Y66777D01*
X76265Y63445D01*
X73715Y60895D01*
X73446Y60784D01*
X70383Y59515D01*
X66777Y59515D01*
G37*
%LPD*%
%LPC*%
G36*
X92177Y135715D02*
X92177Y135715D01*
X88845Y137095D01*
X86295Y139645D01*
X84915Y142977D01*
X84915Y146583D01*
X86295Y149915D01*
X88845Y152465D01*
X88945Y152506D01*
X88946Y152506D01*
X92177Y153845D01*
X95783Y153845D01*
X99115Y152465D01*
X101665Y149915D01*
X103045Y146583D01*
X103045Y142977D01*
X101665Y139645D01*
X99115Y137095D01*
X95783Y135715D01*
X92177Y135715D01*
G37*
%LPD*%
%LPC*%
G36*
X66777Y135715D02*
X66777Y135715D01*
X63445Y137095D01*
X60895Y139645D01*
X59515Y142977D01*
X59515Y146583D01*
X60895Y149915D01*
X63445Y152465D01*
X63545Y152506D01*
X63546Y152506D01*
X66777Y153845D01*
X70383Y153845D01*
X73715Y152465D01*
X76265Y149915D01*
X77645Y146583D01*
X77645Y142977D01*
X76265Y139645D01*
X73715Y137095D01*
X70383Y135715D01*
X66777Y135715D01*
G37*
%LPD*%
%LPC*%
G36*
X24966Y733985D02*
X24966Y733985D01*
X21818Y735289D01*
X19409Y737698D01*
X18105Y740846D01*
X18105Y744254D01*
X19409Y747402D01*
X21818Y749811D01*
X24966Y751115D01*
X28374Y751115D01*
X31522Y749811D01*
X33931Y747402D01*
X35235Y744254D01*
X35235Y740846D01*
X33931Y737698D01*
X31522Y735289D01*
X31207Y735159D01*
X28374Y733985D01*
X24966Y733985D01*
G37*
%LPD*%
%LPC*%
G36*
X24966Y708985D02*
X24966Y708985D01*
X21818Y710289D01*
X19409Y712698D01*
X18105Y715846D01*
X18105Y719254D01*
X19409Y722402D01*
X21818Y724811D01*
X23045Y725319D01*
X24966Y726115D01*
X28374Y726115D01*
X31522Y724811D01*
X33931Y722402D01*
X35235Y719254D01*
X35235Y715846D01*
X33931Y712698D01*
X31522Y710289D01*
X28374Y708985D01*
X24966Y708985D01*
G37*
%LPD*%
%LPC*%
G36*
X24966Y683985D02*
X24966Y683985D01*
X21818Y685289D01*
X19409Y687698D01*
X18105Y690846D01*
X18105Y694254D01*
X19409Y697402D01*
X21818Y699811D01*
X24966Y701115D01*
X28374Y701115D01*
X31522Y699811D01*
X33931Y697402D01*
X35235Y694254D01*
X35235Y690846D01*
X33931Y687698D01*
X31522Y685289D01*
X29321Y684378D01*
X28374Y683985D01*
X24966Y683985D01*
G37*
%LPD*%
%LPC*%
G36*
X555433Y195071D02*
X555433Y195071D01*
X550671Y199833D01*
X550671Y206567D01*
X555433Y211329D01*
X562167Y211329D01*
X566929Y206567D01*
X566929Y199833D01*
X562167Y195071D01*
X555433Y195071D01*
G37*
%LPD*%
%LPC*%
G36*
X530033Y195071D02*
X530033Y195071D01*
X525271Y199833D01*
X525271Y206567D01*
X530033Y211329D01*
X536767Y211329D01*
X541529Y206567D01*
X541529Y199833D01*
X536767Y195071D01*
X530033Y195071D01*
G37*
%LPD*%
%LPC*%
G36*
X287463Y177291D02*
X287463Y177291D01*
X282701Y182053D01*
X282701Y188787D01*
X287463Y193549D01*
X294197Y193549D01*
X298959Y188787D01*
X298959Y182053D01*
X294197Y177291D01*
X287463Y177291D01*
G37*
%LPD*%
%LPC*%
G36*
X141413Y744981D02*
X141413Y744981D01*
X136651Y749743D01*
X136651Y756477D01*
X141413Y761239D01*
X148147Y761239D01*
X152909Y756477D01*
X152909Y749743D01*
X148147Y744981D01*
X141413Y744981D01*
G37*
%LPD*%
%LPC*%
G36*
X116013Y744981D02*
X116013Y744981D01*
X111251Y749743D01*
X111251Y756477D01*
X116013Y761239D01*
X122747Y761239D01*
X127509Y756477D01*
X127509Y749743D01*
X122747Y744981D01*
X116013Y744981D01*
G37*
%LPD*%
%LPC*%
G36*
X202373Y694181D02*
X202373Y694181D01*
X197611Y698943D01*
X197611Y705677D01*
X202373Y710439D01*
X209107Y710439D01*
X213869Y705677D01*
X213869Y698943D01*
X209107Y694181D01*
X202373Y694181D01*
G37*
%LPD*%
%LPC*%
G36*
X100773Y694181D02*
X100773Y694181D01*
X96011Y698943D01*
X96011Y705677D01*
X100773Y710439D01*
X107507Y710439D01*
X112269Y705677D01*
X112269Y698943D01*
X107507Y694181D01*
X100773Y694181D01*
G37*
%LPD*%
%LPC*%
G36*
X141413Y673861D02*
X141413Y673861D01*
X136651Y678623D01*
X136651Y685357D01*
X141413Y690119D01*
X148147Y690119D01*
X152909Y685357D01*
X152909Y678623D01*
X148147Y673861D01*
X141413Y673861D01*
G37*
%LPD*%
%LPC*%
G36*
X527493Y601471D02*
X527493Y601471D01*
X522731Y606233D01*
X522731Y612967D01*
X527493Y617729D01*
X534227Y617729D01*
X538989Y612967D01*
X538989Y606233D01*
X534227Y601471D01*
X527493Y601471D01*
G37*
%LPD*%
%LPC*%
G36*
X555433Y296671D02*
X555433Y296671D01*
X550671Y301433D01*
X550671Y308167D01*
X555433Y312929D01*
X562167Y312929D01*
X566929Y308167D01*
X566929Y301433D01*
X562167Y296671D01*
X555433Y296671D01*
G37*
%LPD*%
%LPC*%
G36*
X602423Y327151D02*
X602423Y327151D01*
X597661Y331913D01*
X597661Y338647D01*
X602423Y343409D01*
X609157Y343409D01*
X613919Y338647D01*
X613919Y331913D01*
X609157Y327151D01*
X602423Y327151D01*
G37*
%LPD*%
%LPC*%
G36*
X530033Y296671D02*
X530033Y296671D01*
X525271Y301433D01*
X525271Y308167D01*
X530033Y312929D01*
X536767Y312929D01*
X541529Y308167D01*
X541529Y301433D01*
X536767Y296671D01*
X530033Y296671D01*
G37*
%LPD*%
%LPC*%
G36*
X364933Y296671D02*
X364933Y296671D01*
X360171Y301433D01*
X360171Y308167D01*
X364933Y312929D01*
X371667Y312929D01*
X376429Y308167D01*
X376429Y301433D01*
X371667Y296671D01*
X364933Y296671D01*
G37*
%LPD*%
%LPC*%
G36*
X784033Y245871D02*
X784033Y245871D01*
X779271Y250633D01*
X779271Y257367D01*
X784033Y262129D01*
X790767Y262129D01*
X795529Y257367D01*
X795529Y250633D01*
X790767Y245871D01*
X784033Y245871D01*
G37*
%LPD*%
%LPC*%
G36*
X733233Y243331D02*
X733233Y243331D01*
X728471Y248093D01*
X728471Y254827D01*
X733233Y259589D01*
X739967Y259589D01*
X744729Y254827D01*
X744729Y248093D01*
X739967Y243331D01*
X733233Y243331D01*
G37*
%LPD*%
%LPC*%
G36*
X287463Y239521D02*
X287463Y239521D01*
X282701Y244283D01*
X282701Y251017D01*
X287463Y255779D01*
X294197Y255779D01*
X298959Y251017D01*
X298959Y244283D01*
X294197Y239521D01*
X287463Y239521D01*
G37*
%LPD*%
%LPC*%
G36*
X531783Y398271D02*
X531783Y398271D01*
X528795Y399509D01*
X526509Y401795D01*
X525271Y404783D01*
X525271Y408017D01*
X526509Y411005D01*
X528795Y413291D01*
X531783Y414529D01*
X535017Y414529D01*
X538005Y413291D01*
X540291Y411005D01*
X541529Y408017D01*
X541529Y404783D01*
X540291Y401795D01*
X538005Y399509D01*
X535017Y398271D01*
X531783Y398271D01*
G37*
%LPD*%
%LPC*%
G36*
X485131Y383531D02*
X485131Y383531D01*
X485131Y390645D01*
X490424Y390645D01*
X491845Y390420D01*
X493214Y389975D01*
X494497Y389321D01*
X495661Y388475D01*
X496679Y387457D01*
X497525Y386293D01*
X498179Y385010D01*
X498624Y383641D01*
X498641Y383531D01*
X485131Y383531D01*
G37*
%LPD*%
%LPC*%
G36*
X485131Y586731D02*
X485131Y586731D01*
X485131Y593845D01*
X490424Y593845D01*
X491845Y593620D01*
X493214Y593175D01*
X494497Y592521D01*
X495661Y591675D01*
X496679Y590657D01*
X497525Y589493D01*
X498179Y588210D01*
X498624Y586841D01*
X498641Y586731D01*
X485131Y586731D01*
G37*
%LPD*%
%LPC*%
G36*
X738631Y281431D02*
X738631Y281431D01*
X738631Y288545D01*
X743924Y288545D01*
X745345Y288320D01*
X746714Y287875D01*
X747997Y287221D01*
X749161Y286375D01*
X750179Y285357D01*
X751025Y284193D01*
X751679Y282910D01*
X752124Y281541D01*
X752141Y281431D01*
X738631Y281431D01*
G37*
%LPD*%
%LPC*%
G36*
X408931Y434331D02*
X408931Y434331D01*
X408931Y441445D01*
X414224Y441445D01*
X415645Y441220D01*
X417014Y440775D01*
X418297Y440121D01*
X419461Y439275D01*
X420479Y438257D01*
X421325Y437093D01*
X421979Y435810D01*
X422424Y434441D01*
X422441Y434331D01*
X408931Y434331D01*
G37*
%LPD*%
%LPC*%
G36*
X738631Y332231D02*
X738631Y332231D01*
X738631Y339345D01*
X743924Y339345D01*
X745345Y339120D01*
X746714Y338675D01*
X747997Y338021D01*
X749161Y337175D01*
X750179Y336157D01*
X751025Y334993D01*
X751679Y333710D01*
X752124Y332341D01*
X752141Y332231D01*
X738631Y332231D01*
G37*
%LPD*%
%LPC*%
G36*
X738631Y306831D02*
X738631Y306831D01*
X738631Y313945D01*
X743924Y313945D01*
X745345Y313720D01*
X746714Y313275D01*
X747997Y312621D01*
X749161Y311775D01*
X750179Y310757D01*
X751025Y309593D01*
X751679Y308310D01*
X752124Y306941D01*
X752141Y306831D01*
X738631Y306831D01*
G37*
%LPD*%
%LPC*%
G36*
X662431Y383031D02*
X662431Y383031D01*
X662431Y390145D01*
X667724Y390145D01*
X669145Y389920D01*
X670514Y389475D01*
X671797Y388821D01*
X672961Y387975D01*
X673979Y386957D01*
X674825Y385793D01*
X675479Y384510D01*
X675924Y383141D01*
X675941Y383031D01*
X662431Y383031D01*
G37*
%LPD*%
%LPC*%
G36*
X467559Y383531D02*
X467559Y383531D01*
X467576Y383641D01*
X468021Y385010D01*
X468675Y386293D01*
X469521Y387457D01*
X470539Y388475D01*
X471703Y389321D01*
X472986Y389975D01*
X474355Y390420D01*
X475776Y390645D01*
X481069Y390645D01*
X481069Y383531D01*
X467559Y383531D01*
G37*
%LPD*%
%LPC*%
G36*
X467559Y586731D02*
X467559Y586731D01*
X467576Y586841D01*
X468021Y588210D01*
X468675Y589493D01*
X469521Y590657D01*
X470539Y591675D01*
X471703Y592521D01*
X472986Y593175D01*
X474355Y593620D01*
X475776Y593845D01*
X481069Y593845D01*
X481069Y586731D01*
X467559Y586731D01*
G37*
%LPD*%
%LPC*%
G36*
X721059Y281431D02*
X721059Y281431D01*
X721076Y281541D01*
X721521Y282910D01*
X722175Y284193D01*
X723021Y285357D01*
X724039Y286375D01*
X725203Y287221D01*
X726486Y287875D01*
X727855Y288320D01*
X729276Y288545D01*
X734569Y288545D01*
X734569Y281431D01*
X721059Y281431D01*
G37*
%LPD*%
%LPC*%
G36*
X391359Y434331D02*
X391359Y434331D01*
X391376Y434441D01*
X391821Y435810D01*
X392475Y437093D01*
X393321Y438257D01*
X394339Y439275D01*
X395503Y440121D01*
X396786Y440775D01*
X398155Y441220D01*
X399576Y441445D01*
X404869Y441445D01*
X404869Y434331D01*
X391359Y434331D01*
G37*
%LPD*%
%LPC*%
G36*
X721059Y332231D02*
X721059Y332231D01*
X721076Y332341D01*
X721521Y333710D01*
X722175Y334993D01*
X723021Y336157D01*
X724039Y337175D01*
X725203Y338021D01*
X726486Y338675D01*
X727855Y339120D01*
X729276Y339345D01*
X734569Y339345D01*
X734569Y332231D01*
X721059Y332231D01*
G37*
%LPD*%
%LPC*%
G36*
X721059Y306831D02*
X721059Y306831D01*
X721076Y306941D01*
X721521Y308310D01*
X722175Y309593D01*
X723021Y310757D01*
X724039Y311775D01*
X725203Y312621D01*
X726486Y313275D01*
X727855Y313720D01*
X729276Y313945D01*
X734569Y313945D01*
X734569Y306831D01*
X721059Y306831D01*
G37*
%LPD*%
%LPC*%
G36*
X644859Y383031D02*
X644859Y383031D01*
X644876Y383141D01*
X645321Y384510D01*
X645975Y385793D01*
X646821Y386957D01*
X647839Y387975D01*
X649003Y388821D01*
X650286Y389475D01*
X651655Y389920D01*
X653076Y390145D01*
X658369Y390145D01*
X658369Y383031D01*
X644859Y383031D01*
G37*
%LPD*%
%LPC*%
G36*
X485131Y372355D02*
X485131Y372355D01*
X485131Y379469D01*
X498641Y379469D01*
X498624Y379359D01*
X498179Y377990D01*
X497525Y376707D01*
X496679Y375543D01*
X495661Y374525D01*
X494497Y373679D01*
X493214Y373025D01*
X491845Y372580D01*
X490424Y372355D01*
X485131Y372355D01*
G37*
%LPD*%
%LPC*%
G36*
X662431Y371855D02*
X662431Y371855D01*
X662431Y378969D01*
X675941Y378969D01*
X675924Y378859D01*
X675479Y377490D01*
X674825Y376207D01*
X673979Y375043D01*
X672961Y374025D01*
X671797Y373179D01*
X670514Y372525D01*
X669145Y372080D01*
X667724Y371855D01*
X662431Y371855D01*
G37*
%LPD*%
%LPC*%
G36*
X408931Y423155D02*
X408931Y423155D01*
X408931Y430269D01*
X422441Y430269D01*
X422424Y430159D01*
X421979Y428790D01*
X421325Y427507D01*
X420479Y426343D01*
X419461Y425325D01*
X418297Y424479D01*
X417014Y423825D01*
X415645Y423380D01*
X414224Y423155D01*
X408931Y423155D01*
G37*
%LPD*%
%LPC*%
G36*
X485131Y575555D02*
X485131Y575555D01*
X485131Y582669D01*
X498641Y582669D01*
X498624Y582559D01*
X498179Y581190D01*
X497525Y579907D01*
X496679Y578743D01*
X495661Y577725D01*
X494497Y576879D01*
X493214Y576225D01*
X491845Y575780D01*
X490424Y575555D01*
X485131Y575555D01*
G37*
%LPD*%
%LPC*%
G36*
X738631Y270255D02*
X738631Y270255D01*
X738631Y277369D01*
X752141Y277369D01*
X752124Y277259D01*
X751679Y275890D01*
X751025Y274607D01*
X750179Y273443D01*
X749161Y272425D01*
X747997Y271579D01*
X746714Y270925D01*
X745345Y270480D01*
X743924Y270255D01*
X738631Y270255D01*
G37*
%LPD*%
%LPC*%
G36*
X738631Y295655D02*
X738631Y295655D01*
X738631Y302769D01*
X752141Y302769D01*
X752124Y302659D01*
X751679Y301290D01*
X751025Y300007D01*
X750179Y298843D01*
X749161Y297825D01*
X747997Y296979D01*
X746714Y296325D01*
X745345Y295880D01*
X743924Y295655D01*
X738631Y295655D01*
G37*
%LPD*%
%LPC*%
G36*
X738631Y321055D02*
X738631Y321055D01*
X738631Y328169D01*
X752141Y328169D01*
X752124Y328059D01*
X751679Y326690D01*
X751025Y325407D01*
X750179Y324243D01*
X749161Y323225D01*
X747997Y322379D01*
X746714Y321725D01*
X745345Y321280D01*
X743924Y321055D01*
X738631Y321055D01*
G37*
%LPD*%
%LPC*%
G36*
X399576Y423155D02*
X399576Y423155D01*
X398155Y423380D01*
X396786Y423825D01*
X395503Y424479D01*
X394339Y425325D01*
X393321Y426343D01*
X392475Y427507D01*
X391821Y428790D01*
X391376Y430159D01*
X391359Y430269D01*
X404869Y430269D01*
X404869Y423155D01*
X399576Y423155D01*
G37*
%LPD*%
%LPC*%
G36*
X653076Y371855D02*
X653076Y371855D01*
X651655Y372080D01*
X650286Y372525D01*
X649003Y373179D01*
X647839Y374025D01*
X646821Y375043D01*
X645975Y376207D01*
X645321Y377490D01*
X644876Y378859D01*
X644859Y378969D01*
X658369Y378969D01*
X658369Y371855D01*
X653076Y371855D01*
G37*
%LPD*%
%LPC*%
G36*
X475776Y372355D02*
X475776Y372355D01*
X474355Y372580D01*
X472986Y373025D01*
X471703Y373679D01*
X470539Y374525D01*
X469521Y375543D01*
X468675Y376707D01*
X468021Y377990D01*
X467576Y379359D01*
X467559Y379469D01*
X481069Y379469D01*
X481069Y372355D01*
X475776Y372355D01*
G37*
%LPD*%
%LPC*%
G36*
X475776Y575555D02*
X475776Y575555D01*
X474355Y575780D01*
X472986Y576225D01*
X471703Y576879D01*
X470539Y577725D01*
X469521Y578743D01*
X468675Y579907D01*
X468021Y581190D01*
X467576Y582559D01*
X467559Y582669D01*
X481069Y582669D01*
X481069Y575555D01*
X475776Y575555D01*
G37*
%LPD*%
%LPC*%
G36*
X729276Y295655D02*
X729276Y295655D01*
X727855Y295880D01*
X726486Y296325D01*
X725203Y296979D01*
X724039Y297825D01*
X723021Y298843D01*
X722175Y300007D01*
X721521Y301290D01*
X721076Y302659D01*
X721059Y302769D01*
X734569Y302769D01*
X734569Y295655D01*
X729276Y295655D01*
G37*
%LPD*%
%LPC*%
G36*
X729276Y270255D02*
X729276Y270255D01*
X727855Y270480D01*
X726486Y270925D01*
X725203Y271579D01*
X724039Y272425D01*
X723021Y273443D01*
X722175Y274607D01*
X721521Y275890D01*
X721076Y277259D01*
X721059Y277369D01*
X734569Y277369D01*
X734569Y270255D01*
X729276Y270255D01*
G37*
%LPD*%
%LPC*%
G36*
X729276Y321055D02*
X729276Y321055D01*
X727855Y321280D01*
X726486Y321725D01*
X725203Y322379D01*
X724039Y323225D01*
X723021Y324243D01*
X722175Y325407D01*
X721521Y326690D01*
X721076Y328059D01*
X721059Y328169D01*
X734569Y328169D01*
X734569Y321055D01*
X729276Y321055D01*
G37*
%LPD*%
%LPC*%
G36*
X30479Y613411D02*
X30479Y613411D01*
X39625Y613411D01*
X39585Y613154D01*
X39004Y611367D01*
X38151Y609693D01*
X37046Y608172D01*
X35718Y606844D01*
X34197Y605739D01*
X32523Y604886D01*
X30736Y604305D01*
X30479Y604265D01*
X30479Y613411D01*
G37*
%LPD*%
%LPC*%
G36*
X25144Y604305D02*
X25144Y604305D01*
X23357Y604886D01*
X21683Y605739D01*
X20162Y606844D01*
X18834Y608172D01*
X17729Y609693D01*
X16876Y611367D01*
X16295Y613154D01*
X16255Y613411D01*
X25401Y613411D01*
X25401Y604265D01*
X25144Y604305D01*
G37*
%LPD*%
%LPC*%
G36*
X345399Y700599D02*
X345399Y700599D01*
X345399Y707887D01*
X346770Y707442D01*
X348184Y706722D01*
X349467Y705789D01*
X350589Y704667D01*
X351522Y703384D01*
X352242Y701970D01*
X352687Y700599D01*
X345399Y700599D01*
G37*
%LPD*%
%LPC*%
G36*
X662899Y866099D02*
X662899Y866099D01*
X662899Y873387D01*
X664270Y872942D01*
X665684Y872222D01*
X666967Y871289D01*
X668089Y870167D01*
X669022Y868884D01*
X669742Y867470D01*
X670187Y866099D01*
X662899Y866099D01*
G37*
%LPD*%
%LPC*%
G36*
X586699Y866099D02*
X586699Y866099D01*
X586699Y873387D01*
X588070Y872942D01*
X589484Y872222D01*
X590767Y871289D01*
X591889Y870167D01*
X592822Y868884D01*
X593542Y867470D01*
X593987Y866099D01*
X586699Y866099D01*
G37*
%LPD*%
%LPC*%
G36*
X79969Y535899D02*
X79969Y535899D01*
X79969Y543187D01*
X81340Y542742D01*
X82754Y542022D01*
X84037Y541089D01*
X85159Y539967D01*
X86092Y538684D01*
X86812Y537270D01*
X87257Y535899D01*
X79969Y535899D01*
G37*
%LPD*%
%LPC*%
G36*
X96479Y274279D02*
X96479Y274279D01*
X96479Y281567D01*
X97850Y281122D01*
X99264Y280402D01*
X100547Y279469D01*
X101669Y278347D01*
X102602Y277064D01*
X103322Y275650D01*
X103767Y274279D01*
X96479Y274279D01*
G37*
%LPD*%
%LPC*%
G36*
X751399Y688299D02*
X751399Y688299D01*
X751399Y695587D01*
X752770Y695142D01*
X754184Y694422D01*
X755467Y693489D01*
X756589Y692367D01*
X757522Y691084D01*
X758242Y689670D01*
X758687Y688299D01*
X751399Y688299D01*
G37*
%LPD*%
%LPC*%
G36*
X20279Y397199D02*
X20279Y397199D01*
X20279Y404487D01*
X21650Y404042D01*
X23064Y403322D01*
X24347Y402389D01*
X25469Y401267D01*
X26402Y399984D01*
X27122Y398570D01*
X27567Y397199D01*
X20279Y397199D01*
G37*
%LPD*%
%LPC*%
G36*
X345399Y695601D02*
X345399Y695601D01*
X352687Y695601D01*
X352242Y694230D01*
X351522Y692816D01*
X350589Y691533D01*
X349467Y690411D01*
X348184Y689478D01*
X346770Y688758D01*
X345399Y688313D01*
X345399Y695601D01*
G37*
%LPD*%
%LPC*%
G36*
X333113Y700599D02*
X333113Y700599D01*
X333558Y701970D01*
X334278Y703384D01*
X335211Y704667D01*
X336333Y705789D01*
X337616Y706722D01*
X339030Y707442D01*
X340401Y707887D01*
X340401Y700599D01*
X333113Y700599D01*
G37*
%LPD*%
%LPC*%
G36*
X79969Y530901D02*
X79969Y530901D01*
X87257Y530901D01*
X86812Y529530D01*
X86092Y528116D01*
X85159Y526833D01*
X84037Y525711D01*
X82754Y524778D01*
X81340Y524058D01*
X79969Y523613D01*
X79969Y530901D01*
G37*
%LPD*%
%LPC*%
G36*
X751399Y683301D02*
X751399Y683301D01*
X758687Y683301D01*
X758242Y681930D01*
X757522Y680516D01*
X756589Y679233D01*
X755467Y678111D01*
X754184Y677178D01*
X752770Y676458D01*
X751399Y676013D01*
X751399Y683301D01*
G37*
%LPD*%
%LPC*%
G36*
X96479Y269281D02*
X96479Y269281D01*
X103767Y269281D01*
X103322Y267910D01*
X102602Y266496D01*
X101669Y265213D01*
X100547Y264091D01*
X99264Y263158D01*
X97850Y262438D01*
X96479Y261993D01*
X96479Y269281D01*
G37*
%LPD*%
%LPC*%
G36*
X574413Y866099D02*
X574413Y866099D01*
X574858Y867470D01*
X575578Y868884D01*
X576511Y870167D01*
X577633Y871289D01*
X578916Y872222D01*
X580330Y872942D01*
X581701Y873387D01*
X581701Y866099D01*
X574413Y866099D01*
G37*
%LPD*%
%LPC*%
G36*
X586699Y861101D02*
X586699Y861101D01*
X593987Y861101D01*
X593542Y859730D01*
X592822Y858316D01*
X591889Y857033D01*
X590767Y855911D01*
X589484Y854978D01*
X588070Y854258D01*
X586699Y853813D01*
X586699Y861101D01*
G37*
%LPD*%
%LPC*%
G36*
X67683Y535899D02*
X67683Y535899D01*
X68128Y537270D01*
X68848Y538684D01*
X69781Y539967D01*
X70903Y541089D01*
X72186Y542022D01*
X73600Y542742D01*
X74971Y543187D01*
X74971Y535899D01*
X67683Y535899D01*
G37*
%LPD*%
%LPC*%
G36*
X650613Y866099D02*
X650613Y866099D01*
X651058Y867470D01*
X651778Y868884D01*
X652711Y870167D01*
X653833Y871289D01*
X655116Y872222D01*
X656530Y872942D01*
X657901Y873387D01*
X657901Y866099D01*
X650613Y866099D01*
G37*
%LPD*%
%LPC*%
G36*
X20279Y392201D02*
X20279Y392201D01*
X27567Y392201D01*
X27122Y390830D01*
X26402Y389416D01*
X25469Y388133D01*
X24347Y387011D01*
X23064Y386078D01*
X21650Y385358D01*
X20279Y384913D01*
X20279Y392201D01*
G37*
%LPD*%
%LPC*%
G36*
X84193Y274279D02*
X84193Y274279D01*
X84638Y275650D01*
X85358Y277064D01*
X86291Y278347D01*
X87413Y279469D01*
X88696Y280402D01*
X90110Y281122D01*
X91481Y281567D01*
X91481Y274279D01*
X84193Y274279D01*
G37*
%LPD*%
%LPC*%
G36*
X662899Y861101D02*
X662899Y861101D01*
X670187Y861101D01*
X669742Y859730D01*
X669022Y858316D01*
X668089Y857033D01*
X666967Y855911D01*
X665684Y854978D01*
X664270Y854258D01*
X662899Y853813D01*
X662899Y861101D01*
G37*
%LPD*%
%LPC*%
G36*
X739113Y688299D02*
X739113Y688299D01*
X739558Y689670D01*
X740278Y691084D01*
X741211Y692367D01*
X742333Y693489D01*
X743616Y694422D01*
X745030Y695142D01*
X746401Y695587D01*
X746401Y688299D01*
X739113Y688299D01*
G37*
%LPD*%
%LPC*%
G36*
X73600Y524058D02*
X73600Y524058D01*
X72186Y524778D01*
X70903Y525711D01*
X69781Y526833D01*
X68848Y528116D01*
X68128Y529530D01*
X67683Y530901D01*
X74971Y530901D01*
X74971Y523613D01*
X73600Y524058D01*
G37*
%LPD*%
%LPC*%
G36*
X745030Y676458D02*
X745030Y676458D01*
X743616Y677178D01*
X742333Y678111D01*
X741211Y679233D01*
X740278Y680516D01*
X739558Y681930D01*
X739113Y683301D01*
X746401Y683301D01*
X746401Y676013D01*
X745030Y676458D01*
G37*
%LPD*%
%LPC*%
G36*
X580330Y854258D02*
X580330Y854258D01*
X578916Y854978D01*
X577633Y855911D01*
X576511Y857033D01*
X575578Y858316D01*
X574858Y859730D01*
X574413Y861101D01*
X581701Y861101D01*
X581701Y853813D01*
X580330Y854258D01*
G37*
%LPD*%
%LPC*%
G36*
X339030Y688758D02*
X339030Y688758D01*
X337616Y689478D01*
X336333Y690411D01*
X335211Y691533D01*
X334278Y692816D01*
X333558Y694230D01*
X333113Y695601D01*
X340401Y695601D01*
X340401Y688313D01*
X339030Y688758D01*
G37*
%LPD*%
%LPC*%
G36*
X90110Y262438D02*
X90110Y262438D01*
X88696Y263158D01*
X87413Y264091D01*
X86291Y265213D01*
X85358Y266496D01*
X84638Y267910D01*
X84193Y269281D01*
X91481Y269281D01*
X91481Y261993D01*
X90110Y262438D01*
G37*
%LPD*%
%LPC*%
G36*
X656530Y854258D02*
X656530Y854258D01*
X655116Y854978D01*
X653833Y855911D01*
X652711Y857033D01*
X651778Y858316D01*
X651058Y859730D01*
X650613Y861101D01*
X657901Y861101D01*
X657901Y853813D01*
X656530Y854258D01*
G37*
%LPD*%
%LPC*%
G36*
X535431Y357631D02*
X535431Y357631D01*
X535431Y364745D01*
X537188Y364745D01*
X542545Y359388D01*
X542545Y357631D01*
X535431Y357631D01*
G37*
%LPD*%
%LPC*%
G36*
X146811Y582421D02*
X146811Y582421D01*
X146811Y589535D01*
X148568Y589535D01*
X153925Y584178D01*
X153925Y582421D01*
X146811Y582421D01*
G37*
%LPD*%
%LPC*%
G36*
X738631Y108711D02*
X738631Y108711D01*
X738631Y115825D01*
X740388Y115825D01*
X745745Y110468D01*
X745745Y108711D01*
X738631Y108711D01*
G37*
%LPD*%
%LPC*%
G36*
X582421Y337311D02*
X582421Y337311D01*
X582421Y344425D01*
X584178Y344425D01*
X589535Y339068D01*
X589535Y337311D01*
X582421Y337311D01*
G37*
%LPD*%
%LPC*%
G36*
X370331Y281431D02*
X370331Y281431D01*
X370331Y288545D01*
X372088Y288545D01*
X377445Y283188D01*
X377445Y281431D01*
X370331Y281431D01*
G37*
%LPD*%
%LPC*%
G36*
X532891Y586231D02*
X532891Y586231D01*
X532891Y593345D01*
X534648Y593345D01*
X540005Y587988D01*
X540005Y586231D01*
X532891Y586231D01*
G37*
%LPD*%
%LPC*%
G36*
X571245Y337311D02*
X571245Y337311D01*
X571245Y339068D01*
X576602Y344425D01*
X578359Y344425D01*
X578359Y337311D01*
X571245Y337311D01*
G37*
%LPD*%
%LPC*%
G36*
X524255Y357631D02*
X524255Y357631D01*
X524255Y359388D01*
X529612Y364745D01*
X531369Y364745D01*
X531369Y357631D01*
X524255Y357631D01*
G37*
%LPD*%
%LPC*%
G36*
X521715Y586231D02*
X521715Y586231D01*
X521715Y587988D01*
X527072Y593345D01*
X528829Y593345D01*
X528829Y586231D01*
X521715Y586231D01*
G37*
%LPD*%
%LPC*%
G36*
X582421Y326135D02*
X582421Y326135D01*
X582421Y333249D01*
X589535Y333249D01*
X589535Y331492D01*
X584178Y326135D01*
X582421Y326135D01*
G37*
%LPD*%
%LPC*%
G36*
X146811Y571245D02*
X146811Y571245D01*
X146811Y578359D01*
X153925Y578359D01*
X153925Y576602D01*
X148568Y571245D01*
X146811Y571245D01*
G37*
%LPD*%
%LPC*%
G36*
X532891Y575055D02*
X532891Y575055D01*
X532891Y582169D01*
X540005Y582169D01*
X540005Y580412D01*
X534648Y575055D01*
X532891Y575055D01*
G37*
%LPD*%
%LPC*%
G36*
X370331Y270255D02*
X370331Y270255D01*
X370331Y277369D01*
X377445Y277369D01*
X377445Y275612D01*
X372088Y270255D01*
X370331Y270255D01*
G37*
%LPD*%
%LPC*%
G36*
X727455Y108711D02*
X727455Y108711D01*
X727455Y110468D01*
X732812Y115825D01*
X734569Y115825D01*
X734569Y108711D01*
X727455Y108711D01*
G37*
%LPD*%
%LPC*%
G36*
X359155Y281431D02*
X359155Y281431D01*
X359155Y283188D01*
X364512Y288545D01*
X366269Y288545D01*
X366269Y281431D01*
X359155Y281431D01*
G37*
%LPD*%
%LPC*%
G36*
X738631Y97535D02*
X738631Y97535D01*
X738631Y104649D01*
X745745Y104649D01*
X745745Y102892D01*
X740388Y97535D01*
X738631Y97535D01*
G37*
%LPD*%
%LPC*%
G36*
X535431Y346455D02*
X535431Y346455D01*
X535431Y353569D01*
X542545Y353569D01*
X542545Y351812D01*
X537188Y346455D01*
X535431Y346455D01*
G37*
%LPD*%
%LPC*%
G36*
X135635Y582421D02*
X135635Y582421D01*
X135635Y584178D01*
X140992Y589535D01*
X142749Y589535D01*
X142749Y582421D01*
X135635Y582421D01*
G37*
%LPD*%
%LPC*%
G36*
X364512Y270255D02*
X364512Y270255D01*
X359155Y275612D01*
X359155Y277369D01*
X366269Y277369D01*
X366269Y270255D01*
X364512Y270255D01*
G37*
%LPD*%
%LPC*%
G36*
X140992Y571245D02*
X140992Y571245D01*
X135635Y576602D01*
X135635Y578359D01*
X142749Y578359D01*
X142749Y571245D01*
X140992Y571245D01*
G37*
%LPD*%
%LPC*%
G36*
X527072Y575055D02*
X527072Y575055D01*
X521715Y580412D01*
X521715Y582169D01*
X528829Y582169D01*
X528829Y575055D01*
X527072Y575055D01*
G37*
%LPD*%
%LPC*%
G36*
X732812Y97535D02*
X732812Y97535D01*
X727455Y102892D01*
X727455Y104649D01*
X734569Y104649D01*
X734569Y97535D01*
X732812Y97535D01*
G37*
%LPD*%
%LPC*%
G36*
X529612Y346455D02*
X529612Y346455D01*
X524255Y351812D01*
X524255Y353569D01*
X531369Y353569D01*
X531369Y346455D01*
X529612Y346455D01*
G37*
%LPD*%
%LPC*%
G36*
X576602Y326135D02*
X576602Y326135D01*
X571245Y331492D01*
X571245Y333249D01*
X578359Y333249D01*
X578359Y326135D01*
X576602Y326135D01*
G37*
%LPD*%
D10*
X27940Y615950D03*
X27940Y641350D03*
D11*
X530860Y609600D03*
X530860Y584200D03*
X368300Y304800D03*
X368300Y279400D03*
D12*
X533400Y406400D03*
D11*
X533400Y355600D03*
D13*
X605790Y335280D03*
X580390Y335280D03*
D10*
X546100Y787400D03*
X546100Y812800D03*
X604520Y449580D03*
X604520Y411480D03*
X604520Y373380D03*
X800100Y622300D03*
X800100Y584200D03*
X800100Y546100D03*
X546100Y736600D03*
X546100Y762000D03*
X151130Y220980D03*
X151130Y93980D03*
X34290Y68580D03*
X604520Y603250D03*
X604520Y563880D03*
X604520Y525780D03*
X604520Y487680D03*
D14*
X119380Y753110D03*
X144780Y753110D03*
D11*
X736600Y251460D03*
X736600Y226060D03*
D15*
X144780Y580390D03*
X144780Y681990D03*
D13*
X205740Y702310D03*
X104140Y702310D03*
D11*
X533400Y304800D03*
X533400Y203200D03*
D15*
X558800Y203200D03*
X558800Y304800D03*
X736600Y106680D03*
X736600Y208280D03*
X787400Y254000D03*
X787400Y355600D03*
D14*
X189230Y247650D03*
X290830Y247650D03*
X189230Y185420D03*
X290830Y185420D03*
D16*
X400296Y610100D02*
X413504Y610100D01*
X413504Y584700D02*
X400296Y584700D01*
X400296Y559300D02*
X413504Y559300D01*
X413504Y533900D02*
X400296Y533900D01*
X400296Y508500D02*
X413504Y508500D01*
X413504Y483100D02*
X400296Y483100D01*
X400296Y457700D02*
X413504Y457700D01*
X413504Y432300D02*
X400296Y432300D01*
X400296Y406900D02*
X413504Y406900D01*
X413504Y381500D02*
X400296Y381500D01*
X400296Y356100D02*
X413504Y356100D01*
X413504Y330700D02*
X400296Y330700D01*
X400296Y305300D02*
X413504Y305300D01*
X413504Y279900D02*
X400296Y279900D01*
X476496Y279900D02*
X489704Y279900D01*
X489704Y305300D02*
X476496Y305300D01*
X476496Y330700D02*
X489704Y330700D01*
X489704Y356100D02*
X476496Y356100D01*
X476496Y381500D02*
X489704Y381500D01*
X489704Y406900D02*
X476496Y406900D01*
X476496Y432300D02*
X489704Y432300D01*
X489704Y457700D02*
X476496Y457700D01*
X476496Y483100D02*
X489704Y483100D01*
X489704Y508500D02*
X476496Y508500D01*
X476496Y533900D02*
X489704Y533900D01*
X489704Y559300D02*
X476496Y559300D01*
X476496Y584700D02*
X489704Y584700D01*
X489704Y610100D02*
X476496Y610100D01*
D17*
X698900Y685800D03*
X748900Y685800D03*
X584200Y863600D03*
X584200Y838200D03*
X584200Y812800D03*
X584200Y787400D03*
X584200Y762000D03*
X584200Y736600D03*
X584200Y711200D03*
X660400Y711200D03*
X660400Y736600D03*
X660400Y762000D03*
X660400Y787400D03*
X660400Y812800D03*
X660400Y838200D03*
X660400Y863600D03*
X68580Y271780D03*
X68580Y246380D03*
X68580Y220980D03*
X68580Y195580D03*
X68580Y170180D03*
X68580Y144780D03*
X68580Y119380D03*
X68580Y93980D03*
X68580Y68580D03*
X68580Y43180D03*
X68580Y17780D03*
X93980Y17780D03*
X93980Y43180D03*
X93980Y68580D03*
X93980Y93980D03*
X93980Y119380D03*
X93980Y144780D03*
X93980Y170180D03*
X93980Y195580D03*
X93980Y220980D03*
X93980Y246380D03*
X93980Y271780D03*
D18*
X48590Y808120D03*
X48590Y858120D03*
D19*
X21590Y868120D03*
X21590Y798120D03*
D20*
X26670Y717550D03*
X26670Y692550D03*
X26670Y742550D03*
D10*
X104140Y793750D03*
X104140Y819150D03*
X104140Y844550D03*
X104140Y869950D03*
X342900Y609600D03*
X342900Y584200D03*
X342900Y558800D03*
X342900Y533400D03*
X342900Y508000D03*
D17*
X342900Y648100D03*
X342900Y698100D03*
X17780Y469700D03*
X17780Y494700D03*
X17780Y519700D03*
X17780Y444700D03*
X17780Y419700D03*
X17780Y394700D03*
X77470Y533400D03*
X77470Y508000D03*
X77470Y482600D03*
X77470Y457200D03*
X77470Y431800D03*
X77470Y406400D03*
X77470Y381000D03*
D16*
X653796Y609600D02*
X667004Y609600D01*
X667004Y584200D02*
X653796Y584200D01*
X653796Y558800D02*
X667004Y558800D01*
X667004Y533400D02*
X653796Y533400D01*
X653796Y508000D02*
X667004Y508000D01*
X667004Y482600D02*
X653796Y482600D01*
X653796Y457200D02*
X667004Y457200D01*
X667004Y431800D02*
X653796Y431800D01*
X653796Y406400D02*
X667004Y406400D01*
X667004Y381000D02*
X653796Y381000D01*
X653796Y355600D02*
X667004Y355600D01*
X667004Y330200D02*
X653796Y330200D01*
X653796Y304800D02*
X667004Y304800D01*
X667004Y279400D02*
X653796Y279400D01*
X729996Y279400D02*
X743204Y279400D01*
X743204Y304800D02*
X729996Y304800D01*
X729996Y330200D02*
X743204Y330200D01*
X743204Y355600D02*
X729996Y355600D01*
X729996Y381000D02*
X743204Y381000D01*
X743204Y406400D02*
X729996Y406400D01*
X729996Y431800D02*
X743204Y431800D01*
X743204Y457200D02*
X729996Y457200D01*
X729996Y482600D02*
X743204Y482600D01*
X743204Y508000D02*
X729996Y508000D01*
X729996Y533400D02*
X743204Y533400D01*
X743204Y558800D02*
X729996Y558800D01*
X729996Y584200D02*
X743204Y584200D01*
X743204Y609600D02*
X729996Y609600D01*
D21*
X60960Y819912D03*
D22*
X737616Y356616D02*
X786384Y356616D01*
X787400Y355600D01*
X737616Y356616D02*
X736600Y355600D01*
X97536Y448056D02*
X82296Y432816D01*
X77724Y432816D01*
X77470Y431800D01*
D21*
X97536Y448056D03*
D22*
X172212Y202692D02*
X188976Y185928D01*
X172212Y202692D02*
X135636Y202692D01*
X105156Y233172D01*
X103632Y233172D01*
X100584Y236220D01*
X86868Y236220D01*
X85344Y234696D01*
X82296Y234696D01*
X71628Y245364D01*
X68580Y245364D01*
X68580Y246380D01*
X475488Y278892D02*
X481584Y278892D01*
X475488Y278892D02*
X397764Y201168D01*
X204216Y201168D01*
X188976Y185928D01*
X481584Y278892D02*
X483100Y279900D01*
X189230Y185420D02*
X188976Y185928D01*
X472440Y304800D02*
X481584Y304800D01*
X472440Y304800D02*
X429768Y262128D01*
X202692Y262128D01*
X188976Y248412D01*
X481584Y304800D02*
X483100Y305300D01*
X189230Y247650D02*
X188976Y248412D01*
X400812Y579120D02*
X405384Y583692D01*
X400812Y579120D02*
X399288Y579120D01*
X361188Y541020D01*
X361188Y451104D01*
X320040Y409956D01*
X405384Y583692D02*
X406900Y584700D01*
D21*
X320040Y409956D03*
D22*
X400812Y481584D02*
X405384Y481584D01*
X400812Y481584D02*
X249936Y330708D01*
X405384Y481584D02*
X406900Y483100D01*
D21*
X249936Y330708D03*
D22*
X48768Y268224D02*
X48768Y217932D01*
X68580Y198120D01*
X68580Y195580D01*
D21*
X48768Y268224D03*
D22*
X256032Y409956D02*
X256032Y449580D01*
X339852Y533400D01*
X342900Y533400D01*
D21*
X256032Y409956D03*
D22*
X68580Y170688D02*
X65532Y170688D01*
X48768Y187452D01*
X68580Y170688D02*
X68580Y170180D01*
D21*
X48768Y187452D03*
D22*
X477012Y426720D02*
X481584Y431292D01*
X477012Y426720D02*
X475488Y426720D01*
X429768Y381000D01*
X429768Y295656D01*
X481584Y431292D02*
X483100Y432300D01*
D21*
X429768Y295656D03*
M02*
