G04 EAGLE Gerber RS-274X export*
G75*
%MOMM*%
%FSLAX34Y34*%
%LPD*%
%INSoldermask Top*%
%IPPOS*%
%AMOC8*
5,1,8,0,0,1.08239X$1,22.5*%
G01*
%ADD10C,2.082800*%
%ADD11P,1.649562X8X292.500000*%
%ADD12C,1.524000*%
%ADD13P,1.649562X8X202.500000*%
%ADD14P,1.649562X8X22.500000*%
%ADD15P,1.649562X8X112.500000*%
%ADD16C,1.524000*%
%ADD17C,1.711200*%
%ADD18R,1.553200X0.603200*%
%ADD19C,2.078200*%
%ADD20C,2.453200*%
%ADD21C,1.611200*%
%ADD22C,0.959600*%


D10*
X27940Y615950D03*
X27940Y641350D03*
D11*
X530860Y609600D03*
X530860Y584200D03*
X368300Y304800D03*
X368300Y279400D03*
D12*
X533400Y406400D03*
D11*
X533400Y355600D03*
D13*
X605790Y335280D03*
X580390Y335280D03*
D10*
X546100Y787400D03*
X546100Y812800D03*
X604520Y449580D03*
X604520Y411480D03*
X604520Y373380D03*
X800100Y622300D03*
X800100Y584200D03*
X800100Y546100D03*
X546100Y736600D03*
X546100Y762000D03*
X151130Y220980D03*
X151130Y93980D03*
X34290Y68580D03*
X604520Y603250D03*
X604520Y563880D03*
X604520Y525780D03*
X604520Y487680D03*
D14*
X119380Y753110D03*
X144780Y753110D03*
D11*
X736600Y251460D03*
X736600Y226060D03*
D15*
X144780Y580390D03*
X144780Y681990D03*
D13*
X205740Y702310D03*
X104140Y702310D03*
D11*
X533400Y304800D03*
X533400Y203200D03*
D15*
X558800Y203200D03*
X558800Y304800D03*
X736600Y106680D03*
X736600Y208280D03*
X787400Y254000D03*
X787400Y355600D03*
D14*
X189230Y247650D03*
X290830Y247650D03*
X189230Y185420D03*
X290830Y185420D03*
D16*
X400296Y610100D02*
X413504Y610100D01*
X413504Y584700D02*
X400296Y584700D01*
X400296Y559300D02*
X413504Y559300D01*
X413504Y533900D02*
X400296Y533900D01*
X400296Y508500D02*
X413504Y508500D01*
X413504Y483100D02*
X400296Y483100D01*
X400296Y457700D02*
X413504Y457700D01*
X413504Y432300D02*
X400296Y432300D01*
X400296Y406900D02*
X413504Y406900D01*
X413504Y381500D02*
X400296Y381500D01*
X400296Y356100D02*
X413504Y356100D01*
X413504Y330700D02*
X400296Y330700D01*
X400296Y305300D02*
X413504Y305300D01*
X413504Y279900D02*
X400296Y279900D01*
X476496Y279900D02*
X489704Y279900D01*
X489704Y305300D02*
X476496Y305300D01*
X476496Y330700D02*
X489704Y330700D01*
X489704Y356100D02*
X476496Y356100D01*
X476496Y381500D02*
X489704Y381500D01*
X489704Y406900D02*
X476496Y406900D01*
X476496Y432300D02*
X489704Y432300D01*
X489704Y457700D02*
X476496Y457700D01*
X476496Y483100D02*
X489704Y483100D01*
X489704Y508500D02*
X476496Y508500D01*
X476496Y533900D02*
X489704Y533900D01*
X489704Y559300D02*
X476496Y559300D01*
X476496Y584700D02*
X489704Y584700D01*
X489704Y610100D02*
X476496Y610100D01*
D17*
X698900Y685800D03*
X748900Y685800D03*
X584200Y863600D03*
X584200Y838200D03*
X584200Y812800D03*
X584200Y787400D03*
X584200Y762000D03*
X584200Y736600D03*
X584200Y711200D03*
X660400Y711200D03*
X660400Y736600D03*
X660400Y762000D03*
X660400Y787400D03*
X660400Y812800D03*
X660400Y838200D03*
X660400Y863600D03*
X68580Y271780D03*
X68580Y246380D03*
X68580Y220980D03*
X68580Y195580D03*
X68580Y170180D03*
X68580Y144780D03*
X68580Y119380D03*
X68580Y93980D03*
X68580Y68580D03*
X68580Y43180D03*
X68580Y17780D03*
X93980Y17780D03*
X93980Y43180D03*
X93980Y68580D03*
X93980Y93980D03*
X93980Y119380D03*
X93980Y144780D03*
X93980Y170180D03*
X93980Y195580D03*
X93980Y220980D03*
X93980Y246380D03*
X93980Y271780D03*
D18*
X48590Y846120D03*
X48590Y839620D03*
X48590Y833120D03*
X48590Y826620D03*
X48590Y820120D03*
D19*
X48590Y808120D03*
X48590Y858120D03*
D20*
X21590Y868120D03*
X21590Y798120D03*
D21*
X26670Y717550D03*
X26670Y692550D03*
X26670Y742550D03*
D10*
X104140Y793750D03*
X104140Y819150D03*
X104140Y844550D03*
X104140Y869950D03*
X342900Y609600D03*
X342900Y584200D03*
X342900Y558800D03*
X342900Y533400D03*
X342900Y508000D03*
D17*
X342900Y648100D03*
X342900Y698100D03*
X17780Y469700D03*
X17780Y494700D03*
X17780Y519700D03*
X17780Y444700D03*
X17780Y419700D03*
X17780Y394700D03*
X77470Y533400D03*
X77470Y508000D03*
X77470Y482600D03*
X77470Y457200D03*
X77470Y431800D03*
X77470Y406400D03*
X77470Y381000D03*
D16*
X653796Y609600D02*
X667004Y609600D01*
X667004Y584200D02*
X653796Y584200D01*
X653796Y558800D02*
X667004Y558800D01*
X667004Y533400D02*
X653796Y533400D01*
X653796Y508000D02*
X667004Y508000D01*
X667004Y482600D02*
X653796Y482600D01*
X653796Y457200D02*
X667004Y457200D01*
X667004Y431800D02*
X653796Y431800D01*
X653796Y406400D02*
X667004Y406400D01*
X667004Y381000D02*
X653796Y381000D01*
X653796Y355600D02*
X667004Y355600D01*
X667004Y330200D02*
X653796Y330200D01*
X653796Y304800D02*
X667004Y304800D01*
X667004Y279400D02*
X653796Y279400D01*
X729996Y279400D02*
X743204Y279400D01*
X743204Y304800D02*
X729996Y304800D01*
X729996Y330200D02*
X743204Y330200D01*
X743204Y355600D02*
X729996Y355600D01*
X729996Y381000D02*
X743204Y381000D01*
X743204Y406400D02*
X729996Y406400D01*
X729996Y431800D02*
X743204Y431800D01*
X743204Y457200D02*
X729996Y457200D01*
X729996Y482600D02*
X743204Y482600D01*
X743204Y508000D02*
X729996Y508000D01*
X729996Y533400D02*
X743204Y533400D01*
X743204Y558800D02*
X729996Y558800D01*
X729996Y584200D02*
X743204Y584200D01*
X743204Y609600D02*
X729996Y609600D01*
D22*
X60960Y819912D03*
X97536Y448056D03*
X320040Y409956D03*
X249936Y330708D03*
X48768Y268224D03*
X256032Y409956D03*
X48768Y187452D03*
X429768Y295656D03*
M02*
